<mxfile modified="2022-07-27T15:22:23.674Z" host="app.diagrams.net" agent="5.0 (Macintosh; Intel Mac OS X 10_15_7) AppleWebKit/537.36 (KHTML, like Gecko) Chrome/103.0.0.0 Safari/537.36" etag="G0RGQ-pBz7TDSCYibi7R" version="20.0.4" type="github">
  <diagram id="WI9T0HZ2pTsCkuznbFz-" name="Page-1">
    <mxGraphModel dx="1426" dy="684" grid="1" gridSize="10" guides="1" tooltips="1" connect="1" arrows="1" fold="1" page="1" pageScale="1" pageWidth="1169" pageHeight="827" math="0" shadow="0">
      <root>
        <mxCell id="0" />
        <mxCell id="1" parent="0" />
        <mxCell id="RLjyjs_sm2IHfBNOWAbh-109" value="" style="rounded=0;whiteSpace=wrap;html=1;labelBackgroundColor=#ffffff;fillColor=#f5f5f5;strokeColor=none;fontColor=#333333;" parent="1" vertex="1">
          <mxGeometry x="225" y="578" width="110" height="100" as="geometry" />
        </mxCell>
        <mxCell id="RLjyjs_sm2IHfBNOWAbh-113" value="Azure AD Connect&amp;nbsp;" style="rounded=0;whiteSpace=wrap;html=1;labelBackgroundColor=#ffffff;fillColor=#f5f5f5;strokeColor=none;fontColor=#333333;" parent="1" vertex="1">
          <mxGeometry x="274" y="80" width="927" height="460" as="geometry" />
        </mxCell>
        <mxCell id="RLjyjs_sm2IHfBNOWAbh-143" style="edgeStyle=elbowEdgeStyle;rounded=0;orthogonalLoop=1;jettySize=auto;html=1;strokeColor=#808080;" parent="1" source="RLjyjs_sm2IHfBNOWAbh-113" target="RLjyjs_sm2IHfBNOWAbh-64" edge="1">
          <mxGeometry relative="1" as="geometry" />
        </mxCell>
        <mxCell id="RLjyjs_sm2IHfBNOWAbh-135" style="edgeStyle=elbowEdgeStyle;rounded=0;orthogonalLoop=1;jettySize=auto;elbow=vertical;html=1;strokeColor=#808080;exitX=0.007;exitY=0.495;exitDx=0;exitDy=0;exitPerimeter=0;" parent="1" source="RLjyjs_sm2IHfBNOWAbh-42" target="RLjyjs_sm2IHfBNOWAbh-109" edge="1">
          <mxGeometry relative="1" as="geometry" />
        </mxCell>
        <mxCell id="RLjyjs_sm2IHfBNOWAbh-136" style="edgeStyle=elbowEdgeStyle;rounded=0;orthogonalLoop=1;jettySize=auto;elbow=vertical;html=1;strokeColor=#808080;exitX=1.007;exitY=0.516;exitDx=0;exitDy=0;exitPerimeter=0;" parent="1" source="RLjyjs_sm2IHfBNOWAbh-42" target="RLjyjs_sm2IHfBNOWAbh-113" edge="1">
          <mxGeometry relative="1" as="geometry" />
        </mxCell>
        <mxCell id="RLjyjs_sm2IHfBNOWAbh-141" style="edgeStyle=elbowEdgeStyle;rounded=0;orthogonalLoop=1;jettySize=auto;elbow=vertical;html=1;strokeColor=#808080;" parent="1" source="RLjyjs_sm2IHfBNOWAbh-43" target="RLjyjs_sm2IHfBNOWAbh-109" edge="1">
          <mxGeometry relative="1" as="geometry">
            <Array as="points">
              <mxPoint x="345" y="797" />
            </Array>
          </mxGeometry>
        </mxCell>
        <mxCell id="RLjyjs_sm2IHfBNOWAbh-142" style="edgeStyle=elbowEdgeStyle;rounded=0;orthogonalLoop=1;jettySize=auto;elbow=vertical;html=1;strokeColor=#808080;" parent="1" source="RLjyjs_sm2IHfBNOWAbh-43" target="RLjyjs_sm2IHfBNOWAbh-113" edge="1">
          <mxGeometry relative="1" as="geometry" />
        </mxCell>
        <mxCell id="RLjyjs_sm2IHfBNOWAbh-144" style="edgeStyle=elbowEdgeStyle;rounded=0;orthogonalLoop=1;jettySize=auto;elbow=vertical;html=1;entryX=-0.023;entryY=0.257;entryDx=0;entryDy=0;entryPerimeter=0;strokeColor=#808080;" parent="1" source="RLjyjs_sm2IHfBNOWAbh-65" target="RLjyjs_sm2IHfBNOWAbh-101" edge="1">
          <mxGeometry relative="1" as="geometry" />
        </mxCell>
        <mxCell id="RLjyjs_sm2IHfBNOWAbh-145" style="edgeStyle=elbowEdgeStyle;rounded=0;orthogonalLoop=1;jettySize=auto;elbow=vertical;html=1;entryX=0.25;entryY=0;entryDx=0;entryDy=0;strokeColor=#808080;" parent="1" source="RLjyjs_sm2IHfBNOWAbh-65" target="RLjyjs_sm2IHfBNOWAbh-66" edge="1">
          <mxGeometry relative="1" as="geometry" />
        </mxCell>
        <mxCell id="RLjyjs_sm2IHfBNOWAbh-111" style="edgeStyle=elbowEdgeStyle;rounded=0;orthogonalLoop=1;jettySize=auto;elbow=vertical;html=1;strokeColor=#808080;startArrow=classic;startFill=1;" parent="1" target="RLjyjs_sm2IHfBNOWAbh-68" edge="1">
          <mxGeometry relative="1" as="geometry">
            <mxPoint x="1347" y="1028" as="sourcePoint" />
            <Array as="points">
              <mxPoint x="1165" y="1113" />
            </Array>
          </mxGeometry>
        </mxCell>
        <mxCell id="RLjyjs_sm2IHfBNOWAbh-139" style="edgeStyle=elbowEdgeStyle;rounded=0;orthogonalLoop=1;jettySize=auto;elbow=vertical;html=1;strokeColor=#808080;endArrow=none;endFill=0;" parent="1" source="RLjyjs_sm2IHfBNOWAbh-47" target="RLjyjs_sm2IHfBNOWAbh-126" edge="1">
          <mxGeometry relative="1" as="geometry" />
        </mxCell>
        <mxCell id="RLjyjs_sm2IHfBNOWAbh-140" style="edgeStyle=elbowEdgeStyle;rounded=0;orthogonalLoop=1;jettySize=auto;elbow=vertical;html=1;strokeColor=#808080;endArrow=none;endFill=0;" parent="1" source="RLjyjs_sm2IHfBNOWAbh-86" target="RLjyjs_sm2IHfBNOWAbh-126" edge="1">
          <mxGeometry relative="1" as="geometry">
            <mxPoint x="704.9999999999998" y="668" as="targetPoint" />
          </mxGeometry>
        </mxCell>
        <mxCell id="RLjyjs_sm2IHfBNOWAbh-146" style="edgeStyle=elbowEdgeStyle;rounded=0;orthogonalLoop=1;jettySize=auto;elbow=vertical;html=1;strokeColor=#808080;endArrow=none;endFill=0;" parent="1" target="RLjyjs_sm2IHfBNOWAbh-119" edge="1">
          <mxGeometry relative="1" as="geometry">
            <mxPoint x="960" y="818" as="sourcePoint" />
            <Array as="points">
              <mxPoint x="1055" y="838" />
            </Array>
          </mxGeometry>
        </mxCell>
        <mxCell id="RLjyjs_sm2IHfBNOWAbh-147" style="edgeStyle=elbowEdgeStyle;rounded=0;orthogonalLoop=1;jettySize=auto;elbow=vertical;html=1;strokeColor=#808080;endArrow=none;endFill=0;" parent="1" target="RLjyjs_sm2IHfBNOWAbh-119" edge="1">
          <mxGeometry relative="1" as="geometry">
            <mxPoint x="1347" y="828" as="sourcePoint" />
            <Array as="points">
              <mxPoint x="1255" y="838" />
            </Array>
          </mxGeometry>
        </mxCell>
        <mxCell id="RLjyjs_sm2IHfBNOWAbh-148" style="edgeStyle=orthogonalEdgeStyle;rounded=0;orthogonalLoop=1;jettySize=auto;elbow=vertical;html=1;strokeColor=#808080;endArrow=none;endFill=0;" parent="1" target="RLjyjs_sm2IHfBNOWAbh-118" edge="1">
          <mxGeometry relative="1" as="geometry">
            <mxPoint x="959" y="638" as="sourcePoint" />
            <Array as="points">
              <mxPoint x="959" y="708" />
              <mxPoint x="1156" y="708" />
            </Array>
          </mxGeometry>
        </mxCell>
        <mxCell id="RLjyjs_sm2IHfBNOWAbh-149" style="edgeStyle=elbowEdgeStyle;rounded=0;orthogonalLoop=1;jettySize=auto;elbow=vertical;html=1;strokeColor=#808080;endArrow=none;endFill=0;" parent="1" target="RLjyjs_sm2IHfBNOWAbh-118" edge="1">
          <mxGeometry relative="1" as="geometry">
            <mxPoint x="1345" y="638" as="sourcePoint" />
            <Array as="points">
              <mxPoint x="1255" y="708" />
            </Array>
          </mxGeometry>
        </mxCell>
        <mxCell id="RLjyjs_sm2IHfBNOWAbh-153" style="edgeStyle=elbowEdgeStyle;rounded=0;orthogonalLoop=1;jettySize=auto;elbow=vertical;html=1;strokeColor=#808080;endArrow=none;endFill=0;" parent="1" target="RLjyjs_sm2IHfBNOWAbh-116" edge="1">
          <mxGeometry relative="1" as="geometry">
            <mxPoint x="583" y="828" as="sourcePoint" />
          </mxGeometry>
        </mxCell>
        <mxCell id="RLjyjs_sm2IHfBNOWAbh-154" style="edgeStyle=elbowEdgeStyle;rounded=0;orthogonalLoop=1;jettySize=auto;elbow=vertical;html=1;strokeColor=#808080;endArrow=none;endFill=0;" parent="1" target="RLjyjs_sm2IHfBNOWAbh-116" edge="1">
          <mxGeometry relative="1" as="geometry">
            <mxPoint x="694.9999999999998" y="868" as="targetPoint" />
            <mxPoint x="790" y="828" as="sourcePoint" />
          </mxGeometry>
        </mxCell>
        <mxCell id="RLjyjs_sm2IHfBNOWAbh-41" value="On-Premises&lt;br&gt;Users" style="aspect=fixed;html=1;perimeter=none;align=center;shadow=0;dashed=0;image;fontSize=12;image=img/lib/mscae/PersonWithFriend.svg;labelBackgroundColor=#ffffff;fillColor=#4D9900;" parent="1" vertex="1">
          <mxGeometry x="255" y="586.7499999999999" width="50" height="49.5" as="geometry" />
        </mxCell>
        <mxCell id="RLjyjs_sm2IHfBNOWAbh-42" value="Express&lt;br&gt;Route" style="aspect=fixed;html=1;perimeter=none;align=center;shadow=0;dashed=0;image;fontSize=12;image=img/lib/mscae/Express_Route.svg;labelBackgroundColor=#ffffff;fillColor=#4D9900;" parent="1" vertex="1">
          <mxGeometry x="405" y="596.25" width="50" height="30.5" as="geometry" />
        </mxCell>
        <mxCell id="RLjyjs_sm2IHfBNOWAbh-43" value="VPN Gateway" style="shape=image;verticalLabelPosition=bottom;labelBackgroundColor=#ffffff;verticalAlign=top;aspect=fixed;imageAspect=0;image=data:image/svg+xml,PHN2ZyB4bWxuczpjYz0iaHR0cDovL2NyZWF0aXZlY29tbW9ucy5vcmcvbnMjIiB4bWxuczpkYz0iaHR0cDovL3B1cmwub3JnL2RjL2VsZW1lbnRzLzEuMS8iIHhtbG5zOmlua3NjYXBlPSJodHRwOi8vd3d3Lmlua3NjYXBlLm9yZy9uYW1lc3BhY2VzL2lua3NjYXBlIiB4bWxuczpyZGY9Imh0dHA6Ly93d3cudzMub3JnLzE5OTkvMDIvMjItcmRmLXN5bnRheC1ucyMiIHhtbG5zOnNvZGlwb2RpPSJodHRwOi8vc29kaXBvZGkuc291cmNlZm9yZ2UubmV0L0RURC9zb2RpcG9kaS0wLmR0ZCIgeG1sbnM6c3ZnPSJodHRwOi8vd3d3LnczLm9yZy8yMDAwL3N2ZyIgeG1sbnM9Imh0dHA6Ly93d3cudzMub3JnLzIwMDAvc3ZnIiB4bWxuczp4bGluaz0iaHR0cDovL3d3dy53My5vcmcvMTk5OS94bGluayIgdmVyc2lvbj0iMS4xIiBpZD0ic3ZnMTIyNzAiIGlua3NjYXBlOnZlcnNpb249IjAuOTIuMyAoMjQwNTU0NiwgMjAxOC0wMy0xMSkiIHNvZGlwb2RpOmRvY25hbWU9InZwbl9nYXRld2F5LnN2ZyIgeD0iMHB4IiB5PSIwcHgiIHZpZXdCb3g9IjAgMCA4OS42OSAxMDAuMTEiIHN0eWxlPSJlbmFibGUtYmFja2dyb3VuZDpuZXcgMCAwIDg5LjY5IDEwMC4xMTsiIHhtbDpzcGFjZT0icHJlc2VydmUiPiYjeGE7PHNvZGlwb2RpOm5hbWVkdmlldyBib3JkZXJjb2xvcj0iIzY2NjY2NiIgYm9yZGVyb3BhY2l0eT0iMSIgZml0LW1hcmdpbi1ib3R0b209IjAiIGZpdC1tYXJnaW4tbGVmdD0iMCIgZml0LW1hcmdpbi1yaWdodD0iMCIgZml0LW1hcmdpbi10b3A9IjAiIGdyaWR0b2xlcmFuY2U9IjEwIiBndWlkZXRvbGVyYW5jZT0iMTAiIGlkPSJuYW1lZHZpZXcxMjI3MiIgaW5rc2NhcGU6Y3VycmVudC1sYXllcj0ic3ZnMTIyNzAiIGlua3NjYXBlOmN4PSI1OS43OTYiIGlua3NjYXBlOmN5PSI2Ni43NDMzMzEiIGlua3NjYXBlOnBhZ2VvcGFjaXR5PSIwIiBpbmtzY2FwZTpwYWdlc2hhZG93PSIyIiBpbmtzY2FwZTp3aW5kb3ctaGVpZ2h0PSIxMDE3IiBpbmtzY2FwZTp3aW5kb3ctbWF4aW1pemVkPSIxIiBpbmtzY2FwZTp3aW5kb3ctd2lkdGg9IjE5MjAiIGlua3NjYXBlOndpbmRvdy14PSItOCIgaW5rc2NhcGU6d2luZG93LXk9Ii04IiBpbmtzY2FwZTp6b29tPSI1LjIxOTMxOTciIG9iamVjdHRvbGVyYW5jZT0iMTAiIHBhZ2Vjb2xvcj0iI2ZmZmZmZiIgc2hvd2dyaWQ9ImZhbHNlIj4mI3hhOwk8L3NvZGlwb2RpOm5hbWVkdmlldz4mI3hhOzxnIGlkPSJnMTIyNjgiIHRyYW5zZm9ybT0idHJhbnNsYXRlKC0xMi4yNCwtMTIuMjM1NzAzKSI+JiN4YTsJPHRpdGxlIGlkPSJ0aXRsZTEyMjQzIj5QYWdlLTE8L3RpdGxlPiYjeGE7CTxnIGlkPSJncm91cDk0MzQtMSIgdHJhbnNmb3JtPSJ0cmFuc2xhdGUoMTIuMjQsLTEyLjI0KSI+JiN4YTsJCTx0aXRsZSBpZD0idGl0bGUxMjI0NSI+VlBOIEdhdGV3YXk8L3RpdGxlPiYjeGE7CQk8ZyBpZD0ic2hhcGU5NDM1LTIiIHRyYW5zZm9ybT0idHJhbnNsYXRlKDEwLjYxMTIsLTYxLjI2NDQpIj4mI3hhOwkJCTx0aXRsZSBpZD0idGl0bGUxMjI0NyI+U2hlZXQuOTQzNTwvdGl0bGU+JiN4YTsJCQk8cGF0aCBpZD0icGF0aDEyMjQ5IiBpbmtzY2FwZTpjb25uZWN0b3ItY3VydmF0dXJlPSIwIiBzdHlsZT0iZmlsbDojQTBBMUEyOyIgZD0iTTY4LjQ3LDEyMi43OHYtNC40YzAtOC44MS0zLjItMTcuMDItOC44MS0yMi44MyAgICAgYy01LjItNi0xNi44MS05LjgxLTI1LjQyLTkuODFzLTIwLjIzLDMuODEtMjUuNDMsOS44MUMzLjQsMTAxLjM2LDAsMTA5LjU3LDAsMTE4LjM4djQuNGwxNS44MiwxLjgxdi00LjAxICAgICBjMC01LjIsMS44LTExLjgxLDQuOC0xNS4yMWMzLTMuNDEsOS40MS01LjAxLDEzLjYyLTUuMjFjNC4yLDAsMTAuNjEsMS44LDEzLjYxLDUuMjFjMywzLjQsNC44MSw3LjgsNC44MSwxMi44MXY2LjQxICAgICBMNjguNDcsMTIyLjc4eiIvPiYjeGE7CQk8L2c+JiN4YTsJCTxnIGlkPSJzaGFwZTk0MzYtNCI+JiN4YTsJCQk8dGl0bGUgaWQ9InRpdGxlMTIyNTIiPlNoZWV0Ljk0MzY8L3RpdGxlPiYjeGE7CQkJPHBhdGggaWQ9InBhdGgxMjI1NCIgaW5rc2NhcGU6Y29ubmVjdG9yLWN1cnZhdHVyZT0iMCIgc3R5bGU9ImZpbGw6IzU5QjREOTsiIGQ9Ik0xMC42MSw2MS41MkMyLjgsNjEuNTIsMCw2Ni4xMiwwLDcyLjEzdjQxLjg0ICAgICBjMCw1LjIxLDMuMiwxMC42Miw5LjIxLDEwLjYyaDcxLjI3YzYuODEsMCw5LjIxLTUuNDEsOS4yMS0xMC42MlY3Mi4xM2MwLTUuNDEtMi4yLTEwLjYxLTEwLjYxLTEwLjYxTDEwLjYxLDYxLjUyeiIvPiYjeGE7CQk8L2c+JiN4YTsJCTxnIGlkPSJzaGFwZTk0MzctNiI+JiN4YTsJCQk8dGl0bGUgaWQ9InRpdGxlMTIyNTciPlNoZWV0Ljk0Mzc8L3RpdGxlPiYjeGE7CQkJPHBhdGggaWQ9InBhdGgxMjI1OSIgaW5rc2NhcGU6Y29ubmVjdG9yLWN1cnZhdHVyZT0iMCIgc3R5bGU9ImZpbGw6I0ZGRkZGRjtmaWxsLW9wYWNpdHk6MC4xNTsiIGQ9Ik02My4wNyw2MS41MkgxMC42MSAgICAgQzIuOCw2MS41MiwwLDY2LjEyLDAsNzIuMTN2NDEuODRjMCw1LjIxLDMuMiwxMC42Miw5LjIxLDEwLjYyaDEzLjQxTDYzLjA3LDYxLjUyeiIvPiYjeGE7CQk8L2c+JiN4YTsJCTxnIGlkPSJzaGFwZTk0MzgtOCIgdHJhbnNmb3JtPSJ0cmFuc2xhdGUoMTEuNDEyLC01LjYwNTg5KSI+JiN4YTsJCQk8dGl0bGUgaWQ9InRpdGxlMTIyNjIiPlNoZWV0Ljk0Mzg8L3RpdGxlPiYjeGE7CQkJPHBhdGggaWQ9InBhdGgxMjI2NCIgaW5rc2NhcGU6Y29ubmVjdG9yLWN1cnZhdHVyZT0iMCIgc3R5bGU9ImZpbGw6I0ZGRkZGRjsiIGQ9Ik0yMS40Miw4NC4zNGwxMS42MS0xMS42MWwxMS42MiwxMS42MWgtOC4yMSAgICAgdjguNDFoLTcuMDF2LTguNDFDMjkuNDMsODQuMzQsMjEuNDIsODQuMzQsMjEuNDIsODQuMzR6IE0wLDEwMS45NnYtNi44MWgxMi4wMXYtOGwxMS4yMSwxMS4yMWwtMTEuMjEsMTEuMjF2LTcuODFIMFYxMDEuOTZ6ICAgICAgTTMzLjAzLDEyNC41OWwtMTEuODEtMTEuODJoOC4yMXYtOC4yMWg3LjAxdjguMjFoOC40MUwzMy4wMywxMjQuNTl6IE02Ni4wNywxMDEuOTZINTQuMDZ2OC4wMUw0Mi42NCw5OC41NmwxMS40Mi0xMS40MXY4aDEyLjAxICAgICBWMTAxLjk2eiIvPiYjeGE7CQk8L2c+JiN4YTsJPC9nPiYjeGE7PC9nPiYjeGE7PC9zdmc+;fillColor=#4D9900;" parent="1" vertex="1">
          <mxGeometry x="395" y="770" width="54" height="60" as="geometry" />
        </mxCell>
        <mxCell id="RLjyjs_sm2IHfBNOWAbh-58" value="Virtual Network" style="aspect=fixed;html=1;perimeter=none;align=center;shadow=0;dashed=0;image;fontSize=12;image=img/lib/mscae/Virtual_Network.svg;labelBackgroundColor=none;fillColor=#4D9900;" parent="1" vertex="1">
          <mxGeometry x="1328.9999999999995" y="463.5" width="50" height="28.499999999999996" as="geometry" />
        </mxCell>
        <mxCell id="RLjyjs_sm2IHfBNOWAbh-64" value="Office 365" style="shadow=0;dashed=0;html=1;strokeColor=none;labelPosition=center;verticalLabelPosition=bottom;verticalAlign=top;align=center;shape=mxgraph.mscae.cloud.cloud_office_365;fillColor=#DF3C01;labelBackgroundColor=#ffffff;" parent="1" vertex="1">
          <mxGeometry x="563.5" y="968" width="64" height="40" as="geometry" />
        </mxCell>
        <mxCell id="RLjyjs_sm2IHfBNOWAbh-65" value="Synchronize&lt;br&gt;Identities" style="shadow=0;dashed=0;html=1;strokeColor=none;labelPosition=center;verticalLabelPosition=bottom;verticalAlign=top;align=center;shape=mxgraph.mscae.general.continuous_cycle;fillColor=#7D7D7D;pointerEvents=1;labelBackgroundColor=#ffffff;" parent="1" vertex="1">
          <mxGeometry x="718" y="963" width="48" height="50" as="geometry" />
        </mxCell>
        <mxCell id="RLjyjs_sm2IHfBNOWAbh-66" value="Active&lt;br&gt;Directory" style="aspect=fixed;html=1;perimeter=none;align=center;shadow=0;dashed=0;image;fontSize=12;image=img/lib/mscae/Active_Directory.svg;labelBackgroundColor=#ffffff;fillColor=#4D9900;" parent="1" vertex="1">
          <mxGeometry x="717" y="1088" width="50" height="50" as="geometry" />
        </mxCell>
        <mxCell id="RLjyjs_sm2IHfBNOWAbh-68" value="Azure Access&lt;br&gt;Control Service" style="pointerEvents=1;shadow=0;dashed=0;html=1;strokeColor=none;labelPosition=center;verticalLabelPosition=bottom;verticalAlign=top;align=center;shape=mxgraph.azure.access_control;fillColor=#0078D7;labelBackgroundColor=#ffffff;" parent="1" vertex="1">
          <mxGeometry x="942.4999999999998" y="1088" width="50" height="50" as="geometry" />
        </mxCell>
        <mxCell id="RLjyjs_sm2IHfBNOWAbh-70" value="" style="group" parent="1" vertex="1" connectable="0">
          <mxGeometry x="928.9999999999999" y="580" width="77" height="63" as="geometry" />
        </mxCell>
        <mxCell id="RLjyjs_sm2IHfBNOWAbh-51" value="" style="aspect=fixed;html=1;perimeter=none;align=center;shadow=0;dashed=0;image;fontSize=12;image=img/lib/mscae/Virtual_Machine.svg;labelBackgroundColor=#ffffff;fillColor=#4D9900;part=1;" parent="RLjyjs_sm2IHfBNOWAbh-70" vertex="1">
          <mxGeometry width="60" height="55" as="geometry" />
        </mxCell>
        <mxCell id="RLjyjs_sm2IHfBNOWAbh-59" value="" style="aspect=fixed;html=1;perimeter=none;align=center;shadow=0;dashed=0;image;fontSize=12;image=img/lib/mscae/SQL_Database_generic.svg;labelBackgroundColor=#ffffff;fillColor=#4D9900;part=1;" parent="RLjyjs_sm2IHfBNOWAbh-70" vertex="1">
          <mxGeometry x="51" y="28" width="26" height="35" as="geometry" />
        </mxCell>
        <mxCell id="RLjyjs_sm2IHfBNOWAbh-71" value="" style="group" parent="1" vertex="1" connectable="0">
          <mxGeometry x="1137.0000000000005" y="582.5" width="74" height="58" as="geometry" />
        </mxCell>
        <mxCell id="RLjyjs_sm2IHfBNOWAbh-52" value="" style="aspect=fixed;html=1;perimeter=none;align=center;shadow=0;dashed=0;image;fontSize=12;image=img/lib/mscae/Virtual_Machine.svg;labelBackgroundColor=#ffffff;fillColor=#4D9900;part=1;" parent="RLjyjs_sm2IHfBNOWAbh-71" vertex="1">
          <mxGeometry width="60" height="55" as="geometry" />
        </mxCell>
        <mxCell id="RLjyjs_sm2IHfBNOWAbh-63" value="" style="shadow=0;dashed=0;strokeColor=none;html=1;labelPosition=center;verticalLabelPosition=bottom;verticalAlign=top;align=center;shape=mxgraph.mscae.other.windows;fillColor=#00188D;labelBackgroundColor=#ffffff;aspect=fixed;part=1;" parent="RLjyjs_sm2IHfBNOWAbh-71" vertex="1">
          <mxGeometry x="46" y="29" width="28" height="29" as="geometry" />
        </mxCell>
        <mxCell id="RLjyjs_sm2IHfBNOWAbh-81" value="" style="group" parent="1" vertex="1" connectable="0">
          <mxGeometry x="1315.4999999999995" y="580" width="77" height="63" as="geometry" />
        </mxCell>
        <mxCell id="RLjyjs_sm2IHfBNOWAbh-82" value="" style="aspect=fixed;html=1;perimeter=none;align=center;shadow=0;dashed=0;image;fontSize=12;image=img/lib/mscae/Virtual_Machine.svg;labelBackgroundColor=#ffffff;fillColor=#4D9900;part=1;" parent="RLjyjs_sm2IHfBNOWAbh-81" vertex="1">
          <mxGeometry width="60" height="55" as="geometry" />
        </mxCell>
        <mxCell id="RLjyjs_sm2IHfBNOWAbh-83" value="" style="aspect=fixed;html=1;perimeter=none;align=center;shadow=0;dashed=0;image;fontSize=12;image=img/lib/mscae/SQL_Database_generic.svg;labelBackgroundColor=#ffffff;fillColor=#4D9900;part=1;" parent="RLjyjs_sm2IHfBNOWAbh-81" vertex="1">
          <mxGeometry x="51" y="28" width="26" height="35" as="geometry" />
        </mxCell>
        <mxCell id="RLjyjs_sm2IHfBNOWAbh-85" value="" style="group" parent="1" vertex="1" connectable="0">
          <mxGeometry x="759.5" y="582.5" width="85" height="58" as="geometry" />
        </mxCell>
        <mxCell id="RLjyjs_sm2IHfBNOWAbh-86" value="" style="aspect=fixed;html=1;perimeter=none;align=center;shadow=0;dashed=0;image;fontSize=12;image=img/lib/mscae/Virtual_Machine.svg;labelBackgroundColor=#ffffff;fillColor=#4D9900;part=1;" parent="RLjyjs_sm2IHfBNOWAbh-85" vertex="1">
          <mxGeometry width="60" height="55" as="geometry" />
        </mxCell>
        <mxCell id="RLjyjs_sm2IHfBNOWAbh-87" value="" style="shadow=0;dashed=0;strokeColor=none;html=1;labelPosition=center;verticalLabelPosition=bottom;verticalAlign=top;align=center;shape=mxgraph.mscae.other.sharepoint;fillColor=#2471BA;labelBackgroundColor=#ffffff;aspect=fixed;part=1;" parent="RLjyjs_sm2IHfBNOWAbh-85" vertex="1">
          <mxGeometry x="54" y="28" width="31" height="30" as="geometry" />
        </mxCell>
        <mxCell id="RLjyjs_sm2IHfBNOWAbh-88" value="" style="group" parent="1" vertex="1" connectable="0">
          <mxGeometry x="553" y="771" width="85" height="58" as="geometry" />
        </mxCell>
        <mxCell id="RLjyjs_sm2IHfBNOWAbh-89" value="" style="aspect=fixed;html=1;perimeter=none;align=center;shadow=0;dashed=0;image;fontSize=12;image=img/lib/mscae/Virtual_Machine.svg;labelBackgroundColor=#ffffff;fillColor=#4D9900;part=1;" parent="RLjyjs_sm2IHfBNOWAbh-88" vertex="1">
          <mxGeometry width="60" height="55" as="geometry" />
        </mxCell>
        <mxCell id="RLjyjs_sm2IHfBNOWAbh-90" value="" style="shadow=0;dashed=0;strokeColor=none;html=1;labelPosition=center;verticalLabelPosition=bottom;verticalAlign=top;align=center;shape=mxgraph.mscae.other.sharepoint;fillColor=#2471BA;labelBackgroundColor=#ffffff;aspect=fixed;part=1;" parent="RLjyjs_sm2IHfBNOWAbh-88" vertex="1">
          <mxGeometry x="54" y="28" width="31" height="30" as="geometry" />
        </mxCell>
        <mxCell id="RLjyjs_sm2IHfBNOWAbh-91" value="" style="group" parent="1" vertex="1" connectable="0">
          <mxGeometry x="759.5000000000002" y="771" width="85" height="58" as="geometry" />
        </mxCell>
        <mxCell id="RLjyjs_sm2IHfBNOWAbh-92" value="" style="aspect=fixed;html=1;perimeter=none;align=center;shadow=0;dashed=0;image;fontSize=12;image=img/lib/mscae/Virtual_Machine.svg;labelBackgroundColor=#ffffff;fillColor=#4D9900;part=1;" parent="RLjyjs_sm2IHfBNOWAbh-91" vertex="1">
          <mxGeometry width="60" height="55" as="geometry" />
        </mxCell>
        <mxCell id="RLjyjs_sm2IHfBNOWAbh-93" value="" style="shadow=0;dashed=0;strokeColor=none;html=1;labelPosition=center;verticalLabelPosition=bottom;verticalAlign=top;align=center;shape=mxgraph.mscae.other.sharepoint;fillColor=#2471BA;labelBackgroundColor=#ffffff;aspect=fixed;part=1;" parent="RLjyjs_sm2IHfBNOWAbh-91" vertex="1">
          <mxGeometry x="54" y="28" width="31" height="30" as="geometry" />
        </mxCell>
        <mxCell id="RLjyjs_sm2IHfBNOWAbh-94" value="" style="group" parent="1" vertex="1" connectable="0">
          <mxGeometry x="930.4999999999994" y="771" width="74" height="58" as="geometry" />
        </mxCell>
        <mxCell id="RLjyjs_sm2IHfBNOWAbh-95" value="" style="aspect=fixed;html=1;perimeter=none;align=center;shadow=0;dashed=0;image;fontSize=12;image=img/lib/mscae/Virtual_Machine.svg;labelBackgroundColor=#ffffff;fillColor=#4D9900;part=1;" parent="RLjyjs_sm2IHfBNOWAbh-94" vertex="1">
          <mxGeometry width="60" height="55" as="geometry" />
        </mxCell>
        <mxCell id="RLjyjs_sm2IHfBNOWAbh-96" value="" style="shadow=0;dashed=0;strokeColor=none;html=1;labelPosition=center;verticalLabelPosition=bottom;verticalAlign=top;align=center;shape=mxgraph.mscae.other.windows;fillColor=#00188D;labelBackgroundColor=#ffffff;aspect=fixed;part=1;" parent="RLjyjs_sm2IHfBNOWAbh-94" vertex="1">
          <mxGeometry x="46" y="29" width="28" height="29" as="geometry" />
        </mxCell>
        <mxCell id="RLjyjs_sm2IHfBNOWAbh-97" value="" style="group" parent="1" vertex="1" connectable="0">
          <mxGeometry x="1316.9999999999998" y="771" width="74" height="58" as="geometry" />
        </mxCell>
        <mxCell id="RLjyjs_sm2IHfBNOWAbh-98" value="" style="aspect=fixed;html=1;perimeter=none;align=center;shadow=0;dashed=0;image;fontSize=12;image=img/lib/mscae/Virtual_Machine.svg;labelBackgroundColor=#ffffff;fillColor=#4D9900;part=1;" parent="RLjyjs_sm2IHfBNOWAbh-97" vertex="1">
          <mxGeometry width="60" height="55" as="geometry" />
        </mxCell>
        <mxCell id="RLjyjs_sm2IHfBNOWAbh-99" value="" style="shadow=0;dashed=0;strokeColor=none;html=1;labelPosition=center;verticalLabelPosition=bottom;verticalAlign=top;align=center;shape=mxgraph.mscae.other.windows;fillColor=#00188D;labelBackgroundColor=#ffffff;aspect=fixed;part=1;" parent="RLjyjs_sm2IHfBNOWAbh-97" vertex="1">
          <mxGeometry x="46" y="29" width="28" height="29" as="geometry" />
        </mxCell>
        <mxCell id="RLjyjs_sm2IHfBNOWAbh-100" value="" style="group" parent="1" vertex="1" connectable="0">
          <mxGeometry x="930.4999999999994" y="959" width="74" height="65.49999999999994" as="geometry" />
        </mxCell>
        <mxCell id="RLjyjs_sm2IHfBNOWAbh-101" value="Azure Active&lt;br&gt;Directory Connect" style="aspect=fixed;html=1;perimeter=none;align=center;shadow=0;dashed=0;image;fontSize=12;image=img/lib/mscae/Virtual_Machine.svg;labelBackgroundColor=#ffffff;fillColor=#4D9900;part=1;" parent="RLjyjs_sm2IHfBNOWAbh-100" vertex="1">
          <mxGeometry y="10.499999999999947" width="60" height="55" as="geometry" />
        </mxCell>
        <mxCell id="RLjyjs_sm2IHfBNOWAbh-102" value="" style="shadow=0;dashed=0;strokeColor=none;html=1;labelPosition=center;verticalLabelPosition=bottom;verticalAlign=top;align=center;shape=mxgraph.mscae.other.windows;fillColor=#00188D;labelBackgroundColor=#ffffff;aspect=fixed;part=1;" parent="RLjyjs_sm2IHfBNOWAbh-100" vertex="1">
          <mxGeometry x="46" y="23.49999999999984" width="28" height="29" as="geometry" />
        </mxCell>
        <mxCell id="RLjyjs_sm2IHfBNOWAbh-103" value="Active Directory" style="group;labelPosition=center;verticalLabelPosition=bottom;align=center;verticalAlign=top;" parent="1" vertex="1" connectable="0">
          <mxGeometry x="1088.5000000000005" y="959" width="74" height="70.49999999999994" as="geometry" />
        </mxCell>
        <mxCell id="RLjyjs_sm2IHfBNOWAbh-104" value="" style="aspect=fixed;html=1;perimeter=none;align=center;shadow=0;dashed=0;image;fontSize=12;image=img/lib/mscae/Virtual_Machine.svg;labelBackgroundColor=#ffffff;fillColor=#4D9900;part=1;" parent="RLjyjs_sm2IHfBNOWAbh-103" vertex="1">
          <mxGeometry y="15.499999999999947" width="60" height="55" as="geometry" />
        </mxCell>
        <mxCell id="RLjyjs_sm2IHfBNOWAbh-105" value="" style="shadow=0;dashed=0;strokeColor=none;html=1;labelPosition=center;verticalLabelPosition=bottom;verticalAlign=top;align=center;shape=mxgraph.mscae.other.windows;fillColor=#00188D;labelBackgroundColor=#ffffff;aspect=fixed;part=1;" parent="RLjyjs_sm2IHfBNOWAbh-103" vertex="1">
          <mxGeometry x="46" y="28.49999999999984" width="28" height="29" as="geometry" />
        </mxCell>
        <mxCell id="RLjyjs_sm2IHfBNOWAbh-106" value="Active Directory&#xa;with ADFS" style="group;labelPosition=center;verticalLabelPosition=bottom;align=center;verticalAlign=top;spacingTop=3;labelBackgroundColor=#ffffff;" parent="1" vertex="1" connectable="0">
          <mxGeometry x="1316.9999999999998" y="959" width="74" height="67.99999999999994" as="geometry" />
        </mxCell>
        <mxCell id="RLjyjs_sm2IHfBNOWAbh-107" value="" style="aspect=fixed;html=1;perimeter=none;align=center;shadow=0;dashed=0;image;fontSize=12;image=img/lib/mscae/Virtual_Machine.svg;labelBackgroundColor=#ffffff;fillColor=#4D9900;part=1;" parent="RLjyjs_sm2IHfBNOWAbh-106" vertex="1">
          <mxGeometry y="12.999999999999947" width="60" height="55" as="geometry" />
        </mxCell>
        <mxCell id="RLjyjs_sm2IHfBNOWAbh-108" value="" style="shadow=0;dashed=0;strokeColor=none;html=1;labelPosition=center;verticalLabelPosition=bottom;verticalAlign=top;align=center;shape=mxgraph.mscae.other.windows;fillColor=#00188D;labelBackgroundColor=#ffffff;aspect=fixed;part=1;" parent="RLjyjs_sm2IHfBNOWAbh-106" vertex="1">
          <mxGeometry x="46" y="25.99999999999984" width="28" height="29" as="geometry" />
        </mxCell>
        <mxCell id="RLjyjs_sm2IHfBNOWAbh-69" value="" style="group" parent="1" vertex="1" connectable="0">
          <mxGeometry x="553" y="582.5" width="85" height="58" as="geometry" />
        </mxCell>
        <mxCell id="RLjyjs_sm2IHfBNOWAbh-47" value="" style="aspect=fixed;html=1;perimeter=none;align=center;shadow=0;dashed=0;image;fontSize=12;image=img/lib/mscae/Virtual_Machine.svg;labelBackgroundColor=#ffffff;fillColor=#4D9900;part=1;" parent="RLjyjs_sm2IHfBNOWAbh-69" vertex="1">
          <mxGeometry width="60" height="55" as="geometry" />
        </mxCell>
        <mxCell id="RLjyjs_sm2IHfBNOWAbh-60" value="" style="shadow=0;dashed=0;strokeColor=none;html=1;labelPosition=center;verticalLabelPosition=bottom;verticalAlign=top;align=center;shape=mxgraph.mscae.other.sharepoint;fillColor=#2471BA;labelBackgroundColor=#ffffff;aspect=fixed;part=1;" parent="RLjyjs_sm2IHfBNOWAbh-69" vertex="1">
          <mxGeometry x="54" y="28" width="31" height="30" as="geometry" />
        </mxCell>
        <mxCell id="RLjyjs_sm2IHfBNOWAbh-110" style="edgeStyle=elbowEdgeStyle;rounded=0;orthogonalLoop=1;jettySize=auto;elbow=vertical;html=1;exitX=0.25;exitY=0;exitDx=0;exitDy=0;strokeColor=#808080;" parent="RLjyjs_sm2IHfBNOWAbh-69" source="RLjyjs_sm2IHfBNOWAbh-47" target="RLjyjs_sm2IHfBNOWAbh-47" edge="1">
          <mxGeometry relative="1" as="geometry" />
        </mxCell>
        <mxCell id="RLjyjs_sm2IHfBNOWAbh-114" value="Web Front End&lt;br&gt;with Distributed&lt;br&gt;Cache" style="text;html=1;resizable=0;points=[];autosize=1;align=center;verticalAlign=top;spacingTop=-4;" parent="1" vertex="1">
          <mxGeometry x="640" y="588" width="100" height="40" as="geometry" />
        </mxCell>
        <mxCell id="RLjyjs_sm2IHfBNOWAbh-115" value="Application&lt;br&gt;with Search" style="text;html=1;resizable=0;points=[];autosize=1;align=center;verticalAlign=top;spacingTop=-4;" parent="1" vertex="1">
          <mxGeometry x="650" y="779" width="80" height="30" as="geometry" />
        </mxCell>
        <mxCell id="RLjyjs_sm2IHfBNOWAbh-116" value="Availability Set" style="text;html=1;resizable=0;points=[];autosize=1;align=center;verticalAlign=top;spacingTop=-4;" parent="1" vertex="1">
          <mxGeometry x="645" y="859" width="90" height="20" as="geometry" />
        </mxCell>
        <mxCell id="RLjyjs_sm2IHfBNOWAbh-117" value="SQL-Always On with&lt;br&gt;Windows Server as Windows" style="text;html=1;resizable=0;points=[];autosize=1;align=center;verticalAlign=top;spacingTop=-4;" parent="1" vertex="1">
          <mxGeometry x="1089" y="643" width="170" height="30" as="geometry" />
        </mxCell>
        <mxCell id="RLjyjs_sm2IHfBNOWAbh-118" value="Availability Set" style="text;html=1;resizable=0;points=[];autosize=1;align=center;verticalAlign=top;spacingTop=-4;" parent="1" vertex="1">
          <mxGeometry x="1111" y="718" width="90" height="20" as="geometry" />
        </mxCell>
        <mxCell id="RLjyjs_sm2IHfBNOWAbh-119" value="Availability Set" style="text;html=1;resizable=0;points=[];autosize=1;align=center;verticalAlign=top;spacingTop=-4;" parent="1" vertex="1">
          <mxGeometry x="1111" y="859" width="90" height="20" as="geometry" />
        </mxCell>
        <mxCell id="RLjyjs_sm2IHfBNOWAbh-120" value="Active Directory" style="text;html=1;resizable=0;points=[];autosize=1;align=center;verticalAlign=top;spacingTop=-4;" parent="1" vertex="1">
          <mxGeometry x="1111" y="805" width="100" height="20" as="geometry" />
        </mxCell>
        <mxCell id="RLjyjs_sm2IHfBNOWAbh-121" value="Server-to-Server Trust" style="text;html=1;resizable=0;points=[];autosize=1;align=left;verticalAlign=top;spacingTop=-4;" parent="1" vertex="1">
          <mxGeometry x="1129" y="1088" width="130" height="20" as="geometry" />
        </mxCell>
        <mxCell id="RLjyjs_sm2IHfBNOWAbh-124" value="8" style="ellipse;whiteSpace=wrap;html=1;aspect=fixed;fillColor=#4D9900;strokeColor=none;labelBackgroundColor=none;" parent="1" vertex="1">
          <mxGeometry x="449" y="755.5" width="23" height="23" as="geometry" />
        </mxCell>
        <mxCell id="RLjyjs_sm2IHfBNOWAbh-125" value="5" style="ellipse;whiteSpace=wrap;html=1;aspect=fixed;fillColor=#4D9900;strokeColor=none;labelBackgroundColor=none;" parent="1" vertex="1">
          <mxGeometry x="679" y="698" width="23" height="23" as="geometry" />
        </mxCell>
        <mxCell id="RLjyjs_sm2IHfBNOWAbh-126" value="Availability Set" style="text;html=1;resizable=0;points=[];autosize=1;align=center;verticalAlign=top;spacingTop=-4;" parent="1" vertex="1">
          <mxGeometry x="645" y="678" width="90" height="20" as="geometry" />
        </mxCell>
        <mxCell id="RLjyjs_sm2IHfBNOWAbh-127" value="10" style="ellipse;whiteSpace=wrap;html=1;aspect=fixed;fillColor=#4D9900;strokeColor=none;labelBackgroundColor=none;" parent="1" vertex="1">
          <mxGeometry x="627.5" y="951.5" width="23" height="23" as="geometry" />
        </mxCell>
        <mxCell id="RLjyjs_sm2IHfBNOWAbh-128" value="6" style="ellipse;whiteSpace=wrap;html=1;aspect=fixed;fillColor=#4D9900;strokeColor=none;labelBackgroundColor=none;" parent="1" vertex="1">
          <mxGeometry x="1003" y="951.5" width="23" height="23" as="geometry" />
        </mxCell>
        <mxCell id="RLjyjs_sm2IHfBNOWAbh-129" value="7" style="ellipse;whiteSpace=wrap;html=1;aspect=fixed;fillColor=#4D9900;strokeColor=none;labelBackgroundColor=none;" parent="1" vertex="1">
          <mxGeometry x="1392.5" y="951.5" width="23" height="23" as="geometry" />
        </mxCell>
        <mxCell id="RLjyjs_sm2IHfBNOWAbh-130" value="3" style="ellipse;whiteSpace=wrap;html=1;aspect=fixed;fillColor=#4D9900;strokeColor=none;labelBackgroundColor=none;" parent="1" vertex="1">
          <mxGeometry x="1004.5" y="745" width="23" height="23" as="geometry" />
        </mxCell>
        <mxCell id="RLjyjs_sm2IHfBNOWAbh-131" value="4" style="ellipse;whiteSpace=wrap;html=1;aspect=fixed;fillColor=#4D9900;strokeColor=none;labelBackgroundColor=none;" parent="1" vertex="1">
          <mxGeometry x="1003" y="559.5" width="23" height="23" as="geometry" />
        </mxCell>
        <mxCell id="RLjyjs_sm2IHfBNOWAbh-132" value="2" style="ellipse;whiteSpace=wrap;html=1;aspect=fixed;fillColor=#4D9900;strokeColor=none;labelBackgroundColor=none;" parent="1" vertex="1">
          <mxGeometry x="1375.5" y="447.5" width="23" height="23" as="geometry" />
        </mxCell>
        <mxCell id="8DieQMmsyX2rE4fabxvS-1" value="" style="rounded=0;whiteSpace=wrap;html=1;fillColor=#EAEDED;fontSize=22;fontColor=#FFFFFF;strokeColor=none;labelBackgroundColor=none;" parent="1" vertex="1">
          <mxGeometry x="1573.5" y="222" width="539" height="1209" as="geometry" />
        </mxCell>
        <mxCell id="8DieQMmsyX2rE4fabxvS-2" value="&lt;span&gt;Lorem ipsum dolor sit amet, consectetur adipiscing elit, sed do eiusmod tempor incididunt ut labore et dolore magna aliqua. Ut enim ad minim veniam, quis nostrud exercitation ullamco laboris nisi ut aliquip ex ea commodo consequat. Duis aute irure dolor in reprehenderit in voluptate velit esse cillum dolore eu fugiat nulla pariatur. Excepteur sint occaecat cupidatat non proident, sunt in culpa qui officia deserunt mollit anim id est laborum.&lt;/span&gt;&lt;br&gt;" style="text;html=1;align=left;verticalAlign=top;spacingTop=-4;fontSize=14;labelBackgroundColor=none;whiteSpace=wrap;" parent="1" vertex="1">
          <mxGeometry x="1643" y="233" width="449" height="118" as="geometry" />
        </mxCell>
        <mxCell id="8DieQMmsyX2rE4fabxvS-3" value="&lt;span&gt;Lorem ipsum dolor sit amet, consectetur adipiscing elit, sed do eiusmod tempor incididunt ut labore et dolore magna aliqua. Ut enim ad minim veniam, quis nostrud exercitation ullamco laboris nisi ut aliquip ex ea commodo consequat. Duis aute irure dolor in reprehenderit in voluptate velit esse cillum dolore eu fugiat nulla pariatur. Excepteur sint occaecat cupidatat non proident, sunt in culpa qui officia deserunt mollit anim id est laborum.&lt;/span&gt;&lt;br&gt;" style="text;html=1;align=left;verticalAlign=top;spacingTop=-4;fontSize=14;labelBackgroundColor=none;whiteSpace=wrap;" parent="1" vertex="1">
          <mxGeometry x="1642" y="356" width="450" height="115" as="geometry" />
        </mxCell>
        <mxCell id="8DieQMmsyX2rE4fabxvS-4" value="&lt;span&gt;Lorem ipsum dolor sit amet, consectetur adipiscing elit, sed do eiusmod tempor incididunt ut labore et dolore magna aliqua. Ut enim ad minim veniam, quis nostrud exercitation ullamco laboris nisi ut aliquip ex ea commodo consequat. Duis aute irure dolor in reprehenderit in voluptate velit esse cillum dolore eu fugiat nulla pariatur. Excepteur sint occaecat cupidatat non proident, sunt in culpa qui officia deserunt mollit anim id est laborum.&lt;/span&gt;&lt;br&gt;" style="text;html=1;align=left;verticalAlign=top;spacingTop=-4;fontSize=14;labelBackgroundColor=none;whiteSpace=wrap;" parent="1" vertex="1">
          <mxGeometry x="1642" y="474" width="450" height="117" as="geometry" />
        </mxCell>
        <mxCell id="8DieQMmsyX2rE4fabxvS-5" value="&lt;span&gt;Lorem ipsum dolor sit amet, consectetur adipiscing elit, sed do eiusmod tempor incididunt ut labore et dolore magna aliqua. Ut enim ad minim veniam, quis nostrud exercitation ullamco laboris nisi ut aliquip ex ea commodo consequat. Duis aute irure dolor in reprehenderit in voluptate velit esse cillum dolore eu fugiat nulla pariatur. Excepteur sint occaecat cupidatat non proident, sunt in culpa qui officia deserunt mollit anim id est laborum.&lt;/span&gt;&lt;br&gt;" style="text;html=1;align=left;verticalAlign=top;spacingTop=-4;fontSize=14;labelBackgroundColor=none;whiteSpace=wrap;" parent="1" vertex="1">
          <mxGeometry x="1642" y="590" width="450" height="121" as="geometry" />
        </mxCell>
        <mxCell id="8DieQMmsyX2rE4fabxvS-6" value="&lt;span&gt;Lorem ipsum dolor sit amet, consectetur adipiscing elit, sed do eiusmod tempor incididunt ut labore et dolore magna aliqua. Ut enim ad minim veniam, quis nostrud exercitation ullamco laboris nisi ut aliquip ex ea commodo consequat. Duis aute irure dolor in reprehenderit in voluptate velit esse cillum dolore eu fugiat nulla pariatur. Excepteur sint occaecat cupidatat non proident, sunt in culpa qui officia deserunt mollit anim id est laborum.&lt;/span&gt;&lt;br&gt;" style="text;html=1;align=left;verticalAlign=top;spacingTop=-4;fontSize=14;labelBackgroundColor=none;whiteSpace=wrap;" parent="1" vertex="1">
          <mxGeometry x="1643" y="707" width="449" height="114" as="geometry" />
        </mxCell>
        <mxCell id="8DieQMmsyX2rE4fabxvS-7" value="&lt;span&gt;Lorem ipsum dolor sit amet, consectetur adipiscing elit, sed do eiusmod tempor incididunt ut labore et dolore magna aliqua. Ut enim ad minim veniam, quis nostrud exercitation ullamco laboris nisi ut aliquip ex ea commodo consequat. Duis aute irure dolor in reprehenderit in voluptate velit esse cillum dolore eu fugiat nulla pariatur. Excepteur sint occaecat cupidatat non proident, sunt in culpa qui officia deserunt mollit anim id est laborum.&lt;/span&gt;&lt;br&gt;" style="text;html=1;align=left;verticalAlign=top;spacingTop=-4;fontSize=14;labelBackgroundColor=none;whiteSpace=wrap;" parent="1" vertex="1">
          <mxGeometry x="1643" y="823" width="450" height="118" as="geometry" />
        </mxCell>
        <mxCell id="8DieQMmsyX2rE4fabxvS-8" value="&lt;span&gt;Lorem ipsum dolor sit amet, consectetur adipiscing elit, sed do eiusmod tempor incididunt ut labore et dolore magna aliqua. Ut enim ad minim veniam, quis nostrud exercitation ullamco laboris nisi ut aliquip ex ea commodo consequat. Duis aute irure dolor in reprehenderit in voluptate velit esse cillum dolore eu fugiat nulla pariatur. Excepteur sint occaecat cupidatat non proident, sunt in culpa qui officia deserunt mollit anim id est laborum.&lt;/span&gt;&lt;br&gt;" style="text;html=1;align=left;verticalAlign=top;spacingTop=-4;fontSize=14;labelBackgroundColor=none;whiteSpace=wrap;" parent="1" vertex="1">
          <mxGeometry x="1643" y="938" width="449" height="113" as="geometry" />
        </mxCell>
        <mxCell id="8DieQMmsyX2rE4fabxvS-9" value="1" style="ellipse;whiteSpace=wrap;html=1;aspect=fixed;fillColor=#4D9900;strokeColor=none;labelBackgroundColor=none;" parent="1" vertex="1">
          <mxGeometry x="1593.5" y="239.5" width="23" height="23" as="geometry" />
        </mxCell>
        <mxCell id="8DieQMmsyX2rE4fabxvS-10" value="2" style="ellipse;whiteSpace=wrap;html=1;aspect=fixed;fillColor=#4D9900;strokeColor=none;labelBackgroundColor=none;" parent="1" vertex="1">
          <mxGeometry x="1593.5" y="360.5" width="23" height="23" as="geometry" />
        </mxCell>
        <mxCell id="8DieQMmsyX2rE4fabxvS-11" value="3" style="ellipse;whiteSpace=wrap;html=1;aspect=fixed;fillColor=#4D9900;strokeColor=none;labelBackgroundColor=none;" parent="1" vertex="1">
          <mxGeometry x="1593.5" y="481.5" width="23" height="23" as="geometry" />
        </mxCell>
        <mxCell id="8DieQMmsyX2rE4fabxvS-12" value="4" style="ellipse;whiteSpace=wrap;html=1;aspect=fixed;fillColor=#4D9900;strokeColor=none;labelBackgroundColor=none;" parent="1" vertex="1">
          <mxGeometry x="1593.4999999999995" y="598.5" width="23" height="23" as="geometry" />
        </mxCell>
        <mxCell id="8DieQMmsyX2rE4fabxvS-13" value="5" style="ellipse;whiteSpace=wrap;html=1;aspect=fixed;fillColor=#4D9900;strokeColor=none;labelBackgroundColor=none;" parent="1" vertex="1">
          <mxGeometry x="1593.4999999999995" y="711" width="23" height="23" as="geometry" />
        </mxCell>
        <mxCell id="8DieQMmsyX2rE4fabxvS-14" value="6" style="ellipse;whiteSpace=wrap;html=1;aspect=fixed;fillColor=#4D9900;strokeColor=none;labelBackgroundColor=none;" parent="1" vertex="1">
          <mxGeometry x="1593.4999999999995" y="832.5" width="23" height="23" as="geometry" />
        </mxCell>
        <mxCell id="8DieQMmsyX2rE4fabxvS-15" value="7" style="ellipse;whiteSpace=wrap;html=1;aspect=fixed;fillColor=#4D9900;strokeColor=none;labelBackgroundColor=none;" parent="1" vertex="1">
          <mxGeometry x="1593.5" y="941" width="23" height="23" as="geometry" />
        </mxCell>
        <mxCell id="8DieQMmsyX2rE4fabxvS-16" value="&lt;span&gt;Lorem ipsum dolor sit amet, consectetur adipiscing elit, sed do eiusmod tempor incididunt ut labore et dolore magna aliqua. Ut enim ad minim veniam, quis nostrud exercitation ullamco laboris nisi ut aliquip ex ea commodo consequat. Duis aute irure dolor in reprehenderit in voluptate velit esse cillum dolore eu fugiat nulla pariatur. Excepteur sint occaecat cupidatat non proident, sunt in culpa qui officia deserunt mollit anim id est laborum.&lt;/span&gt;&lt;br&gt;" style="text;html=1;align=left;verticalAlign=top;spacingTop=-4;fontSize=14;labelBackgroundColor=none;whiteSpace=wrap;" parent="1" vertex="1">
          <mxGeometry x="1644" y="1056.5" width="449" height="113" as="geometry" />
        </mxCell>
        <mxCell id="8DieQMmsyX2rE4fabxvS-17" value="8" style="ellipse;whiteSpace=wrap;html=1;aspect=fixed;fillColor=#4D9900;strokeColor=none;labelBackgroundColor=none;" parent="1" vertex="1">
          <mxGeometry x="1594.5" y="1059.5" width="23" height="23" as="geometry" />
        </mxCell>
        <mxCell id="8DieQMmsyX2rE4fabxvS-18" value="&lt;span&gt;Lorem ipsum dolor sit amet, consectetur adipiscing elit, sed do eiusmod tempor incididunt ut labore et dolore magna aliqua. Ut enim ad minim veniam, quis nostrud exercitation ullamco laboris nisi ut aliquip ex ea commodo consequat. Duis aute irure dolor in reprehenderit in voluptate velit esse cillum dolore eu fugiat nulla pariatur. Excepteur sint occaecat cupidatat non proident, sunt in culpa qui officia deserunt mollit anim id est laborum.&lt;/span&gt;&lt;br&gt;" style="text;html=1;align=left;verticalAlign=top;spacingTop=-4;fontSize=14;labelBackgroundColor=none;whiteSpace=wrap;" parent="1" vertex="1">
          <mxGeometry x="1644" y="1180" width="449" height="113" as="geometry" />
        </mxCell>
        <mxCell id="8DieQMmsyX2rE4fabxvS-19" value="9" style="ellipse;whiteSpace=wrap;html=1;aspect=fixed;fillColor=#4D9900;strokeColor=none;labelBackgroundColor=none;" parent="1" vertex="1">
          <mxGeometry x="1594.5" y="1183" width="23" height="23" as="geometry" />
        </mxCell>
        <mxCell id="8DieQMmsyX2rE4fabxvS-20" value="&lt;span&gt;Lorem ipsum dolor sit amet, consectetur adipiscing elit, sed do eiusmod tempor incididunt ut labore et dolore magna aliqua. Ut enim ad minim veniam, quis nostrud exercitation ullamco laboris nisi ut aliquip ex ea commodo consequat. Duis aute irure dolor in reprehenderit in voluptate velit esse cillum dolore eu fugiat nulla pariatur. Excepteur sint occaecat cupidatat non proident, sunt in culpa qui officia deserunt mollit anim id est laborum.&lt;/span&gt;&lt;br&gt;" style="text;html=1;align=left;verticalAlign=top;spacingTop=-4;fontSize=14;labelBackgroundColor=none;whiteSpace=wrap;" parent="1" vertex="1">
          <mxGeometry x="1643" y="1307.5" width="449" height="113" as="geometry" />
        </mxCell>
        <mxCell id="8DieQMmsyX2rE4fabxvS-21" value="10" style="ellipse;whiteSpace=wrap;html=1;aspect=fixed;fillColor=#4D9900;strokeColor=none;labelBackgroundColor=none;" parent="1" vertex="1">
          <mxGeometry x="1593.5" y="1310.5" width="23" height="23" as="geometry" />
        </mxCell>
        <mxCell id="F9bRvU_HwHoMVBIt6-M2-1" value="" style="sketch=0;html=1;dashed=0;whitespace=wrap;fillColor=#2875E2;strokeColor=#ffffff;points=[[0.005,0.63,0],[0.1,0.2,0],[0.9,0.2,0],[0.5,0,0],[0.995,0.63,0],[0.72,0.99,0],[0.5,1,0],[0.28,0.99,0]];shape=mxgraph.kubernetes.icon;prIcon=api" vertex="1" parent="1">
          <mxGeometry x="380" y="122" width="50" height="48" as="geometry" />
        </mxCell>
        <mxCell id="F9bRvU_HwHoMVBIt6-M2-2" value="Applications" style="verticalLabelPosition=bottom;html=1;verticalAlign=top;strokeColor=none;fillColor=#3399FF;shape=mxgraph.azure.mobile_services;dashed=1;fontFamily=Helvetica;fontSize=14;fontColor=#004C99" vertex="1" parent="1">
          <mxGeometry x="305.5" y="120" width="32.5" height="50" as="geometry" />
        </mxCell>
        <mxCell id="F9bRvU_HwHoMVBIt6-M2-3" value="" style="sketch=0;html=1;dashed=0;whitespace=wrap;fillColor=#2875E2;strokeColor=#ffffff;points=[[0.005,0.63,0],[0.1,0.2,0],[0.9,0.2,0],[0.5,0,0],[0.995,0.63,0],[0.72,0.99,0],[0.5,1,0],[0.28,0.99,0]];shape=mxgraph.kubernetes.icon;prIcon=api" vertex="1" parent="1">
          <mxGeometry x="428" y="250" width="50" height="48" as="geometry" />
        </mxCell>
        <mxCell id="F9bRvU_HwHoMVBIt6-M2-4" value="" style="sketch=0;html=1;dashed=0;whitespace=wrap;fillColor=#2875E2;strokeColor=#ffffff;points=[[0.005,0.63,0],[0.1,0.2,0],[0.9,0.2,0],[0.5,0,0],[0.995,0.63,0],[0.72,0.99,0],[0.5,1,0],[0.28,0.99,0]];shape=mxgraph.kubernetes.icon;prIcon=api" vertex="1" parent="1">
          <mxGeometry x="478" y="120" width="50" height="48" as="geometry" />
        </mxCell>
        <mxCell id="F9bRvU_HwHoMVBIt6-M2-5" value="Applications" style="verticalLabelPosition=bottom;html=1;verticalAlign=top;strokeColor=none;fillColor=#3399FF;shape=mxgraph.azure.mobile_services;dashed=1;fontFamily=Helvetica;fontSize=14;fontColor=#004C99" vertex="1" parent="1">
          <mxGeometry x="579.25" y="120" width="32.5" height="50" as="geometry" />
        </mxCell>
        <mxCell id="F9bRvU_HwHoMVBIt6-M2-6" value="Applications" style="verticalLabelPosition=bottom;html=1;verticalAlign=top;strokeColor=none;fillColor=#3399FF;shape=mxgraph.azure.mobile_services;dashed=1;fontFamily=Helvetica;fontSize=14;fontColor=#004C99" vertex="1" parent="1">
          <mxGeometry x="436.75" y="333.5" width="32.5" height="50" as="geometry" />
        </mxCell>
        <mxCell id="F9bRvU_HwHoMVBIt6-M2-7" value="Queues" style="verticalLabelPosition=bottom;html=1;verticalAlign=top;strokeColor=none;fillColor=#3399FF;shape=mxgraph.azure.queue_generic;dashed=1;fontFamily=Helvetica;fontSize=14;fontColor=#004C99" vertex="1" parent="1">
          <mxGeometry x="820" y="576" width="50" height="15" as="geometry" />
        </mxCell>
        <mxCell id="F9bRvU_HwHoMVBIt6-M2-8" value="Queues" style="verticalLabelPosition=bottom;html=1;verticalAlign=top;strokeColor=none;fillColor=#3399FF;shape=mxgraph.azure.queue_generic;dashed=1;fontFamily=Helvetica;fontSize=14;fontColor=#004C99" vertex="1" parent="1">
          <mxGeometry x="430" y="136.5" width="50" height="15" as="geometry" />
        </mxCell>
        <mxCell id="F9bRvU_HwHoMVBIt6-M2-10" value="Service Bus" style="verticalLabelPosition=bottom;html=1;verticalAlign=top;strokeColor=none;fillColor=#3399FF;shape=mxgraph.azure.service_bus;dashed=1;fontFamily=Helvetica;fontSize=14;fontColor=#004C99" vertex="1" parent="1">
          <mxGeometry x="435" y="172" width="45" height="50" as="geometry" />
        </mxCell>
        <mxCell id="F9bRvU_HwHoMVBIt6-M2-13" value="" style="shape=image;verticalLabelPosition=bottom;labelBackgroundColor=default;verticalAlign=top;aspect=fixed;imageAspect=0;image=data:image/png,iVBORw0KGgoAAAANSUhEUgAAAd4AAAIICAYAAADAEY9sAAAAAXNSR0IArs4c6QAAIABJREFUeF7sfQd4XNW17j/qvVqWLMmWu8HdgG0wEHqHUAMh9E4IhHADqTchhTRCuJfeayCQF24SQk3ozQZXMGDci4qretfU9/37aE/dRR4h28A57/PLRTPnzD5rr7VX/dfyhEKhENzLpYBLAZcCLgVcCrgU2CUU8KgUbzAYBP+lpaUpF+Hz+ZCenq79rK+vD3l5eQmfU8f7/X7lvVT/gYBf+5umNfG5XV1dyMzMVD47EAiItaSmpiasKRgMIRgMGN+VdPB4PAn38l26u7uRn5+f8DnXxN/lb6ruNa3JRCcuore3F/xOdna24n30eyfXpNtXM52C6OzqQk52tpJWpEVKSor4F39x7/jbKvrzu7xXRyfyEj/Pzc3VvqvuXtuaTDxOfiKdyFPx12D2jmsiP6howefyd/muqs8pdzpe5L2ksW5vTTTu6ekRr6jjJz7bJO9cazL73t7ejpycnJ3mJ5t8mPbdJrNerxcZGRk7LbMRPuZZkXg0dnZ2iufyn0o+bDTW7btNtppbWlBUWKjcH/KTbu9sNLbpAJ6LhYWFSh3B8ysrK0v5mWnvJI11PG7iJ9JJR2Pbu/I+yqyOx/m7RUVFWn2o2rukFK9kTtUv8TMStqCgYKcYjIrX79cfLCbC8TMyNjdTxdimw24gilfHnGQ+/i6JHq9c5WaalLbuAOb7cM2qdyFRydR8vk4ZDYbBdIc3n9nR2Ym83FzlQWkS4oEYcjoak5f4bBpy8TSWPGGisckYMCnejo4OoWxUBwT3hpfqALAJsYkX+Rn5iYacSvFStvibqgPApnhNSpv8JBWvjsY6xWtak23fW1tbxb6q6Mj18j11xjKNdN2aTIc3n0vjhudTPB25dzT0aGztrLFM+jk0TlcqXh7OfK7KkLPJO2nMd01mTTsaG1FaUqLkGdPekRZ8H90ZZFK8fC75uKSkRKmMaOipjDypWHXnoqSxbt9bWloEP6k+p3yQzqrPbO9q4qdAIIi2tlblu8rnqvbOVbwD8HhdxctohKt45SniKt7Ieeoq3ggtXMXr0MJVvA4djIo3SJcv7rKFdU2WkMnjHYg3kJqqDtXY1kQPJSsrGxkZiSHwoQo1+3x+dHV1orCQHm8sEYcy1EyLkc9nmG5n9s5mMZroRMuus7NDeNk6DyXZkKMt1EyeystjOD/2bWW0Qsczgwk1Ox5vBrKydl2o2e8PCBqrPF5GhHy+5D1eh8Zq2Yp4vDlKGjspILUnZ/KkbWFQery5ufRQElNapr0byDmii3RImS0oYPg1lqFIY6+3L+lQs1nxdiAzM0Pr8Q5FqJnv09TUiJKS0oR3FWeB14fUNHWaQEYgTSkG02f0eIuLi7Wh5szMLGVkQOy7JwUpqYkpK1s60hRBGVSo2R+AJ0UdajZ7vPoorsfr9SYoXllvpQpt8DO+hC5fx0OS4RoeHvEX7+U/VajM9Bmfw9/kpbtXhppVzMB7+S6699GtSf6u7l4yiQxb6cJAOjrZ1mSisUnxWmkcDCmZ2kZjGc7X5eR4cHBvPm8ak5+E4s3NAxTGjYlONhqb9p38RF7ShQZNvGjjJ929thyvicYm+bDxsSnHa5P3wex7W1ub1pCz7R0/1/Gb6V6bzJqMwMHQ2MRPg6Gx6V25783NzSguKhaKQ2Wkm87FZGVLhvN1eU/SWJentb2PrJtRaXQTP5lobKO/aU0iEtjRoc3x6tbrScbj1RVIyTCDLsdrslSHMsc7WI/XFGqm4mURgSrHm2xxlck6I42T9XhtnoIpT8jPeHioPF7p3SebTzXlh2nEOR6vOscrDwdd8Vuya7LleHV5KBuNbTle8hPfNd5gE8/1+bUeylDneHV59MHk9k0eiq0uY6hyvIMprjJ5vOQn5kt1hpzJ4002x0ueaWpqEvlHlcMyVMVVXC/5WOXxyjx6ssVVptyyE0HJVeZxB+PxujleTXWlW1wVsf8Gw2A2xesWVzl0dnO8EX5zc7wRWrg5XocWbo7XoYNbXGWAcLhVzZGDw1W8EVrYPF5+061qdg5ZXaW1W9Uc4Se3qjlCC7eqGXCrmt2q5rBEuIrXVbwunMiFE0V7ay6cyIlw6VJWLpzIxfEKreGGmiPKc/BVzS6O11Zv4Hq8bqg5vtDJDTW7oeZwTk7frMLeucrF8bo43ujDxc3xujleVVWtm+N1c7zRfGHM8fp8PiWcyAT7scGJZBVqPHMOpGxbVX0nQx+mNTEnx24oOjgRn6F7tqlE3QSXkJW+7IKjqmq2QR50a7LRydQy0gbLMr2rqWx+QHAiT4oStjCQNemgIYOFE5loPBRwIv5esjSWcCJWNeu6UyUL2TKtaU+EE5nkbjA0HgycaCB8rIMPmlpG2uTdBHGyrUnAiYqLtV2vdPxko7GJn2xwIlNlsg2ytafBibheU8tI3d55/H7/TilebogJh2XD8ZqUtu3AIpOpGJt/T1bx2piea9L16bQJcbK4SwnP0WHdbDheHY1t78r7dDTmZ6SxroGG9V1D0OKHTfdKOJEOF27jJ5OiMt1rg3+YeJHvY+qHreMnacip4ERS7pLp/S0OUX9A0F8Fu7Lxk/F9DM818RPXZMJdmuTOJh8mfpJtOVUtI7kmWz9s3d5JRaXjN/IToUS6Xs2kVTJ9tm2KSsCJikuUBrGtSYmNj3VGhk3xmloOm/bdpnvIT+wzoHO+dDJre65pTfyMilfXLESreJMZkuD2anZ8ebdXc2x+y9S5ynSwmPCEbq/mgYV1hxrH6/ZqdiIZvEwKx+3V7MKJpMS6cCIXTiR4wdbcwa1qjig5F07k0MItrorwhKt4Yw1tkzHmDklwcbwiNO4WV7mKN7rmwIYxdRWvq3ij+UWGkl2PNxLtcxUvoyDudCJ3LKALJ4o5K104UayHomv76I4FdOgk2xm6YwEj3pqL43VxvNpBxm7LyMgB6+J4I7RwFa+reOO9Vnce78BqBmR+0lW8Q6R4A4GAciygqQLMVA7Oz1gQo6tCNVXK2aZW6Ap0uFbbdCKym26yka16T1epKKuaOSRBdZlgAIOp3iN9SQvdWMDBVO/pQmk2OJFNydnWpKvWZVUzeYqVvvGXrbrVBsMw7XtnVxfS09KUTe1tuT4TH5vulXAiVo6rCnhsFbemMKiJFvR4mYpRDScfDI0HU9U82Ipbm8yqIICkn2kgga2C2LTvPJ8yMzKRrhhbakt7mM5bG5xIDklQVbOb+EmM4OMUIcXIRtLJ9K62qmbKtGpYhAznmyrHTb9rm3al1x/O+6jGU8o1mSZh8Xd1Vc06bLenra1NCSeywTR0lX18ATKvSinY4CwmOJHpXn5GSAStM1VJvklg+PLBQEBbqWiCJvAzKkEelKrLCrFJEltM+vKdVcw7GBob6dRPY/6mau9N72o7HEz3knHJUzqlYONTkxBLnLVq78hP5KWhwIXr1sT1yD62KiPRpDxtSsEkWzwIeSXDTzbjxoyV7kJ2dpaWn3R0svG4CY8uZZbn084qo8HQmPtKXtL19zbxsUnZ2GSLUBc6QbrpXTqDVyoc3Tlv4ieul+eiyljmc4cKx8uJSJx6pIOcJktjEz9Jp0/laJoMFCWO12SB2SpjbR6vY1kkDqu3WVG2NZlwvKbiqsFY9CaPV9JJl1czeT42Gg9mLKDNu0/W4x3MeDjT4T1YjzfZsYCm+amD2TsTL9o8XlN7xsHCiZL1eE1e02A8Xj6Xe6c7RG3nSEoKB7wnzqC1Ye/JbzTgdfO17VGFNOWAdxuOl/tnGiyvO0dsNKbHS29MZciZ+Mk2dH4wHi+Vsm4s4GCiSaYxk8FAEMGQGittO29tDpTd4yVPxPKiOyTBHZIQdvhcOFHE9/1qVjXTC4z1/104UYQeNqXgtox0aOX2anbo4OJ4dwOciAeWbDSiCxvqIU5BEV7VFTYwJ8dNVYW45UGpspCjvXCHNXjKOpkGroW/6Vj0aeHTRh7EPHTcebwOWSSd3LGA7ljAaDMlWvHGK+ldPRaQsk6Z3tHYiNKSkhiPl96sE/L1iogC//H7kTNBQg992jPIFC52Fa+reMMH5a7E8bI/6vPPP4/169dj7733xlFHHYWSkpIYV0IXcty0aRM2b96MffbZR1uAIBUv81QLFiwAi7umTJkinl9XV4cVK1Zg9OjR4vcPO+wwEdbZvn07Vq5cialTp2Lx4sWor68XgkmB49qGDx8u7pN04t9HjhyJQw89VOSlXMUb2T5X8UZo4U4nitBChscpX2+//bYogKT87bvvvmD+kTl0VR6d35OGNuV58uTJQqblpSv42rFjB9577z0cccQR4WLWt996G5VVlVizZg0qKyvFv9LSUsyfPx8jRoxAUVERXnrpJZFnlQVs8+bNw2effSZaeMozgfL+ta99DRMnTow5t+R/uIrXoYSL491DxgLSsv3DH/4A5or22msvvP/++ygvL8d///d/ixyOFLJoAaRQ8jMqyH/9619488038Zvf/Eb8jQqQ/0vhozCwyEjmeOnx3nHHHUJh3nLLLeJ79957LzZs2IDZs2fjpptuwo9//GOcffbZWLRoER588EFcf/31+MUvfiGUbU1NjXg+le6oUaPw4Ycf4uOPP8a2bdtw9NFHY9y4cTjhhBPEc13F6ype1QnsKt5YvqDC+9WvfoUDDzxQyNYrr7yCm2++WcgYZZdyxEiWjGbxnJA5T54J3/ve9/Cd73wH48ePF3/n36jk+C/6Pv5qY2MjvvWtb+F3v/udUO78zmmnnSbknucNzxWeDzT+r7rqKqFIJ02aJM6EQw45JOwFH3PMMfjoo4+Ecf7UU0/h8MMPF0r6+OOPDxv08XvvKt5drHhl3FoVBpWfkWFYrh9/mcOgDOH5hHelK2zg/boqU1lcFb8uWSRg8ngDAX3Bl6loSNWrmd7qBRdcgCuvvFJ4uvRgqXwPPvhgPPvss0KYaFked9xxQjnSM6aVywKIb3zjG8JSff311/Ff//VfQmjnzp0rQkFPP/20ECw+R3qhVLy0ZH/605/ivvvuE5YthZYCw/e9/fbbhYK99dZb0dLSgnvuuQc/+clPcOONN+Lyyy8XhwOvVMJmMjKEUfDkk09i+fLlQpFHXybFK0PYumKYgcAldH2eh7JXs66gRVYqSmMono8H4vHq+NhUXMXPWNTFCsn4oiIpW3yubnIRv6NrtG8qguIBLYur4mXPJLOkS7IFX1yrLIZRybSpuCoYDImzQpeKMUGRBoLj5XN3lsaySPM///kPnnnmGWHcDhs2DP/4xz8wY8YMLFmyRESyqNyohK+44gqhOB999FFBByrHCy+8EDfccAOuvfZa8d1ly5aJs4QeKv9vPu+iiy4SSlF6pj/72c/E3yn3S5cuFUqexjfvIx14XvCZPI/offN3HnvsMfz6178OF5HRIOD7MpJ24oknCkU+e/YcBIP6YR8DUbyqqUikkzQ0dJXWurPaVgTFM46V1Cp+oqxLo0ell2Sxnm5NuiLNpD1er9erhBNxcapFOO61Hn7DDaEVpyslN0E4TJ+ZyublQUmPUUV0mb/QvU+ya5JVqNHl+vRGydj//ve/hUDQwqT3yAPqBz/4gRAqChw/p6KlMr766quFYC5cuFCEjaiMKyoqxD8K4x//+EfhfTJs9Ne//lVYrPSm+b6sWvz+9dfjpBNPFB4shYbCR4VMD5aKl+9Pa/fhhx8WivdHP/qRsKSrq6sFDzKszbWQuf7yl78Ir5fPiOR9nJ69PKAZ3lZVmtpK7vks3VhGE/3lWEAaGfH7Z+IJvtdg1mSqahZ0CUE58UX+ruld+R4645I0HoqxgDboFNedDGQrWZnl77W1tyM3J0cLAdTRaSA01tHfVtVsg0eZzkXSggrz5z//uVBiVVVVwrg+6aSThMxS7inrjz/+uDC833nnHRFpOuCAA4ShS6/0//2//ycUNUPI3/72t4VSplHNc+Ott94SZy+9Wcov+ZBGPaNjVOBU9jwneN+ZZ54pjOs//elPIgLHZ9CTZeiYXvX+++8v7ucZwmczKkeFSMVLpczPkz0XTWgP0s9UEW2SWdu+M9rI8ykZyJbtXXW8yPtMYwF1z/3cxwKaFC832oSlMil0U9k8nzuUYwFtYPzofAwVL0O9FLzVq1fj3XffFWujpUpvkuFe5mGphGm5UqGQ0T/55BN897vfxSmnnILbbrtN5GIYMho7dqwQJAonD0Z6o7SWDzroICE0pAsFmX8fM2aMsKhpBdNDpvd86aWXCg+XOd9169YJ75iCy+dRwEk7roN5Jf7fUvFS2ccrXiojHWPbcLy2fbfO49U00Ej2uTZetMGJTPhgGx/bFK+ugYZNKYSCIePoRR0mc6jm8dqgLraxgMmOdCR0xJOiNm5sincwzSq478y7Ullu2bJFpIDorVL2X3vtNTCXeu6554Zlkx4qQ8E0mCnrNLSpXD/99FMhj/RcaQC/+uqrQlFTtvn8+++/X5wb5CMa3ieffLKIkFHueRZMnTIFp59xhrj3hRdeEPlb7jEjYTTYf//73+OSSy4RRjcVOJUsn8fvUPFyLfybSUHacLyUH55huvSELlpBnuGVzOx0Ez/JiIROKZtgliZjgJ+Z4EQ6Grpwos8ZTkQmv+aaa0R4lwVP9GSZ86HypFBQ8VIx0yqeNWuWECR+l9bvb3/7W+F5UkinT58uiqNonVJRUtlSMPk9hrCpkGWTEhZN8XsURIaVmL954oknhOKnUqcSpjBNmDBBeMT8bT6P3yND8j5GCsgkNA5oBOxMqJmCMhgcr+neoQw1U2h0odmvJpwoO8ETl6FmdyygfSwgD+8HHnhARIbo2ZK36IXyfxsaGoTSo3FNZUsjmlEvyqfMwTIyRkVN4/uhhx4SRjOjT/R+6dXW1taKosiLL744HGbnb/I33njjDZGiYESMe3X66aeLc4UpP0a4eG7we/ytRx55RChlmRri+vhPhpqjFa/bMnKIWka683jphZtzGbr8oyrHS+uHHuvGjRuFJ0nFynAScy0MNzGvytAEK4ZpgTIExDAPw1AM+VK5fvDBB8JKvuuuu4SVzPAVrWcKEQ9CCi9DyBJOROVEZUormwqTnzGETQVPRUyrmMLEHAg9Xlq8DOEyFC6Kq8rLcdmll4o8M3NSVNj83kBzvK7ijVDKlodKNsc7mHyq3B93SIJjIFIxUpbivSrunWxnmEwDDT6bskP5Yh6XSosKl6FcKlJGnBh6ZsSL8kXvlqFinhOsBaESpuKmYqXCZaETw8/0cFlsRfmmd3vssceG0z08D2js87ygguXnXAdzujTYKdM8O3hm8L/HT5iAH/7gByIFJtM/DEGziJJnwmWXXYbrrrtOOAUmSONAcrzxSA4pJbI7m8obNsmH5GOdEWjL8epqhEx1SzI0/rnneF3F+/kqXm5UX28fln+8XChM5mUJ4WHVIIWKni+Zi6EkKk5WEFNwqAT5PWJlO9rbhTImI1GplpWViVAyDwV60byPTBSN4+Vz+F3mlWTond+nUPOi8mUIjIp969atIjwiQ8kMN1GweTDzNylUXLereJ1K8/hrIMVVpu5suuIRU3GVq3gju8DiKlNB5GCLqwY3nSgtbChTRulhUiap+Fh5zLAyDXHmYrlOngs0xOkNU+aoqCnv5BGmipgiIjyRUS3+nWdEdJRGNr2hUud3uXb+Lo1u/i5DvkyF8VmUffIz/2/+tgyh8ozgb/M8YJSN/81omqykVilIV/E6VEm6uMpVvJ+/4uWGSM9HehlUnMy30OuVVpSpes/E9ANpoGFqP6f7zO1cFTli3FCzQws31BzhiWQ7V/EsYIqH0SsWOcZ72gOhMWU2GS9c1UBDvpEpxWPzAl3F6ypecTjI6USqnIQpfEHr+fMMNUumjle89Ea5Rnq2NsXL9zGFeZJVvLYwqKt4XcWrgxO5OV57jje6c1W8l8j8LD1P1SQzm7ybJibZjAGT4jX3ag65Hm//JpoiKEl7vH6/XzkWkL9pKsnXFaVwMxniTGYsoK0alIpD1zR9d1Y1q0aMyapZ0zgpHY1NFXi8h0qc31HBP2yVpLZSfh2NpXGjq7jl3ukqfW2wH1NFtBySoIMT2aqaTWsy3WurauY+JDO5hRW37NSpw4ky/5hMVfNg9t00dEPwcSCI1LRUVcRRGIi6CTe2ynFbVbNp70xVqCZ+MlU1xxvL8S9so7Hp/CI/xTfAkM/nc02FfiYa26qATWMBTQpFOge6c950jsg8ejJVzaZzxLam5McCMnWhr/MZbFWzSj48Pp9PieOViXeVtJmILhSv14v8JOEfusPMxGCDhRPZYBi6A8AmxFxzsorXpBRs04lMBorpuSYa8zMaN1QKKmG0wYlsNNbRSSherw+5eWoc71ApXr4rD0pdiz+T0ZTsmkhDHtDE8arkwHYA6/bdyUUFtLxoVbzBYFJjM22KqrWtDXkGfkrWaBqI4qVjMBSjF3V8bMOF23gmmXOE+y4Ub3GJEnNuk9lk12RTvKYwtc2QMBk3VLzMTeuaLCV7LpqMAX7GHL1uHq+OxjsNJ7LF/ql4bZ2r1E0uvhydq3Sh5ngDxhz+/mKFmqWnoKv+tln0uwtORKHQNVyRB+WeUlwl5W4oOlcxdcGLEZTPs3OVad/Zg8TpXJWr3IPd2bnKVFzFfTB3B2MuNtFd2dVDErgCrrWxqSlhSIJcHc9qOSQhfsW2c34gOd49rXMV+VEn7/J9dlnnKre4atfkeL/Mipfv5uJ4nR225dFdOFFEEkzzU22Kd8+tat5zFC8p7eZ4HX6jkW1TvMm0IE06x+sqXlfxyqPQLa6KKAW3qtmhxUAqbnVeuC3S4SreCI1NxZRucVVELk2etovjtQxJSCbUbDoAvghVza7Hq+8StbtCzaaCFlfxuoo3XmZtFcSmqubdEWp2Pd7IDroerzavZs7xuoo3wkQunChWKZgmAek6zti8MVfxuorXVbz6CVADyfG6nascSJYKg+0JBlnmEHsR1+pUgKXFf8QsVv/DMhSfMdfnRU+PeixgKOQUDaWnq+7lqC9/f+FCYnUC1+R4KOkJv8vnRuBEic9mPogYDjUUySnlV7+rYwykpKRqKiB9ogrVKZuPX7PzPnyuGvjONRGSkkhjM52Anp5usT85ObkJtDDRiXvn0DiRhk5YUb/v/CxS1Zx4v4lOZn5yaOyU3KckvE9fXy+8Pl9/lXwsjUmnCAwgkWe4705lbCIUxkwnoKOjXfCpqrjK4Sfd3jldlXQ0Nq2JnzlVzYljAbl3kZBjIp0GRmM1L3Z3R8YCxvOxjcaUd/KwqkLYtqa2ttb+KnkdP6Uo986B2+nPCn7mVAEn0om8Jrs5JX7utIxkrk91r+195FjTxLPA4ScWbWVkZCpklnysOxedM9WJEqrPRT5QxeP8e2NToyiuUr2Ps3c82xLlw6lVcJSG6ndN78rnksbFxSVKHdHb29MvVzsns3yY87vq86u1tQW5ueqxgNw75mN1xVX6d3WgRjp+4nOdIQmqd3V0peMYxPKiRzcW0AQnMpV026YT6Z5rw3qaPh8InEg3Ecb2uyYMlw1OxGebxkk5ApN4ONjwjyYcr41Opn013SvD+brpRKaJMFYaG6bJ7IljAW3QtmQhWzY4kQn+YYNhmPh4qKYT2fbdhrs0yYeJj5OVWedg1+OSB0NjE47XJu+m89Ym78x7qqqL+a6DgRNJqKRKs9rgRLZeAqZxkDY4kQ7uaONFWw8J00QxOiQ6zLIWTrSzHq/Na3XgRH2iCXn8FblXZUXZPUSnlF/t8TKHkp2doxiO7VgsJo/X8ZrUVpTjyaktb2dIAolerJwVK62zz9fjDYnxXey4Fd2rWdJ6IB5vMl64oxSI481TwCmcvdPRaSCegtHj9XqFF5g4j9eJoHDv1DAA/d45oWbdvjtjJmkdZ2VlJ/Cx2eM1e+EmfjJ5vA68wytor/JQeK9OPqSnoNt3Nu0gBIbys7M0lmvSeYiRPHp8tCIEx+NVeyikk9NS1RQR0ntjOn5ylEInCgoKlUMSvF69x2va90g0ietN9OTo8UZw4bGfO96YhLYl3mujccRASaRxU1MjSkpKlQa+yeO1RTZNHi91AGnsYFsTI4F0HDIzswyRQF10Unrh6mgrPV5i4FVnuZPjJY0T75V6SX2O2D1eFgmSxon6zpFZJ9Qc5/G6Vc1uVbNkGLeqOSI6bo7XoYVb1RzhCbe4KkILN8fr0MKFE3V2irzBntqrOd4a+jI10OC7uTheZ4ddHG+E020FbC6cKGLcuHAihxamc1GeM+5YQEWAf6g6V7lVzRFiu1XNsd6YW9Xs5OvsXZV0xVX2zlXukITBDUlw4USR88udxwvsdMtIko/KVdflw1W8sZ6PSSnoxgLSyHCnEzl0ZD6I3jRzNzvbztDUBN7mjbmhZjfUHO9XuKFmN9ScyBNBUauggk7JtptKOJGb43VzvJKZ3BxvRKxcxesqXlfxujheGf7W9QNIOsfb19ennE5kgkSYEus2OFEEd5kYp7aVmes6DdGyYGUmcXKqkJhpuoSDCdSPhDLBC/gZw76qCm65YbqRabo1cTM6vQF09flRlJ2OrLREuJFtLKCpI5ONxgKmkZqKDm8QfYEQCjNSkJnqQSAYRFdXN3Jysj/3yTkmGjOCQp5SVXDb9s4GlzDtO/kpLT0dmRkqXDir5PVjAU00NvEiP+Pv0rtXwcwimEAVnjPYj73Xj+/TNfe3wYlMdBrMmhh+NY1A1B127DwQwfEmniOmfZcyy+lEqkp4U3tGypXT3yCRxpSXLq8PRVkZyEpL3B8bnMjpb6BGVtim+cg1tXuD6A2EUJThQUaqc240E05UVKR8V9Pe2fKptrGAPBdVs4f5XGKlVVO/+JlJPuSZquNj8pMW7mgYvWiryzDD+EJob2/Twol0e+fp6OhQzuPVMZhtkfwhn9eLnNzE5g62g9KGoTMpXm40w9/xzCsxcrqDciBr0h0AXC+VoG5WrMSGqeFE6sN7fUtK9NrOAAAgAElEQVQX/vzRVtR3+DCvKh/fmj4CmXHKl4zLdauaO5gOB9u7ylDahtZePPbhVmzr8eOgqjycNqUcOWkp6O7pQXZWVsLBI5+bbJcoq+L1+5GjmJwjf3dnjRvygolO/Jz8RAFXpVRMIceB0Fg37o7PpRLk4RGveKXcmSZA6WTWZgSSh3mp+En+7lDk0amM+Ju6MZOmsYAmRWUzlvm+OhqbptTo9r2utQcPLW3A5q4AZpZn44KZlcjNiIVBkZ94NulG1pmMZZtxw71raO/DPYsbsL0niLkVWfjm9ErkZaSKkXWqeeE2T852zpsUr2Pc9CA/PzE9xOfKVKXuXEx2DrOJn0yppcHyOH9XDZ+NNIWKf1c3xxvcM0LNbCC2saUHd3+wCe/XtYL/XZabiZuOmIhpI/JjzPqhLq56aOlmPLq0XmA78zLScOqUcnxjSjnS/X3aebxuVbOzRQM5sHS5fR5YFGJ6YyqvigfW7hoL6BZXqYurqHTvfH8T3qttRjAEoXBvPmYvzKqM7WMwlMVV5Kc/f7QF9y/aJNaQmZqC06dU4LyZVfB1tRnHAur4SeYndbU8LpzIkfekQ81ujnf3K16GHNY3d+F/52/Ess3tkCGIkux0/PaoSZhWsesUL3/8waUNeGRZPVL7B4tmpHpw2t7DcdakYpQU5is9FFfxuoo3PuhrK2D7osOJGtp7cfPb67BkcxtC/Y0islJTcMtxVLyFMeQYasX7xIdbcP/iTeF1pHiA0yeX49QxORhVMRweRYc8kyHnKt7I9pmKNF3F+wXF8VIgNrR04+73N+GDegqwc2WmeXDmlEpcuG91Qp53qD3e2navsOIX1reG18NQ87Fji3DR7NEoyU3sN+sqXlfxfpUU78aW7rCMBPqFNi3FIzzNi/etFpGi6GsoFS9/Z2uXD7e8sx6LGpwzhP8yUjw4piYfVx40AcXZibUKruKNyCzPL3ceb7+nFc24X0YcL4VjXUsv7ltYGxYYkWtLS8Epk4bj/H1HojArsWXeUCtetunb2NyN29/fiIUNbeFtoOd71tQROGdGFfLj1uUqXlfxfhUULz3B+nYv7nh/Iz5oaEUo5BFKjvVUp00ux0X7jlLK7FArXqYmtnT04eZ31gmDma0aua5UD/CNqSOUxoCreF3FC1Yqyv6fqqT7l07xBgL4bEcn7v6gDp9s60BQerqpHpyydwXOnV6OkrzEPsH82lArXuZ9uB9rm7pEznlhfVu45WpuegpOnDQc582qRnF2pArTVbyu4v2yK172+l29oxP/M78OnzV2INrTPXVyOc6ZVo6y/Jx4Moj/3hWKl7+zqbUHt7y7PiZlRVTCiXuV46J9YmXWVby7UfEGApJ9IvwiK4FVBR78li2xzqpbVnnxOdGXreJzIFAX9Wg/p6l9dnZ2EnAiZxye7l1tFZKRsYCJ8qZ7H1Lls20duOuDWizf3hFuJE4BOW1yBc6ZMQJ5aR6kpqnGMnIsYE//WMBEIbdV6+4MjbnOtU3dQvkuico9Z6em4PhJZTh3ZhXKcjPCBUW66mIbP5loTF6SDTTiKWx7rg1OZILMcV9ZUKSCPdgaKQwGTiSLq1RwIr/Pj9Q0jk/cc+BENiSCqdLaNJ3IDAEcHJyIkC1dpa+pORBTQv/z3gZ8uLUjKpdKmR2Oi/YZiZxUDnFRyyzPJ2csoKpJvxnSaIMTUS6i+aWurVfUiyyiR96fe6bne/zE4bhs9kiUZKUJb9i0d7Zz3gYncsYCckhC4jUUcCLKBCcxOUMSEvfAVtVsgsyZ4URsoMGxgOp31cKJPu+xgGTcPq+3f35qLNFtB6Vp1FQoGAL/n26MnknxmsaEcU38p3ouV5/siDHx3GAInhRPwkFJT/f2BXX4rKkzrHQZxj1173KcN30E8jJTBZ5NZwzYFG+8IMpdsL2risYU0LrWXtz5QR3er29FCqs2GFpL8eDosSX49pyRyM9MM9LJ9rsmxraOBQwSd5yIdbbtnW1NJsX7hRwLaBi9aMPxGsccGp5ro/FgxgIa1xQMasdxUmGYFK+KF2nn0AD9/Tsbsba5O1z3QFE4Y3I5zpsxwioDJn6ynYums0DHiww73zK/VhR+yYtScmhNMa6dx3B4+h47FlB3fvHvJlo4E+rUzpeJF230N+kArifJsYAsQI+9bF6TzeMlTs6Ea9JBE2zemAnHy5fXDUkYDO7SVNEm4R8EiieOU3Os2Ggv0BcICUF4eHEdVuzohMDrMKebmoJTJlfgwn2qBPbOBkmxKd5kG2iYOletbuzCvR9swtIt7fD3cwzXfdzEYSLnW5qdilQxPlE1pN3e3EHnLdM6pvIlxEbl8Zqw0kPVMtLGTzaMqQ5OxOfygKbVrjK6THhO096RbibvhqkLXsS2qs4CPtvU3MGELTbxoqmq2bR3NvkYjMzGY0wDwZCov3hsaT0+2d4ZVro0PGkoX7BPNYr66x1M5xfPp8hYwMTz1kZjHY5ad1bzaNnY0os75q/D4s2d8PdHH2ksHD+hTOR8izNSRARF58wk29TDGQvYpfUCqR9UmHHJp7p+APJzXVSB/MSeCjqstI7GNn4yRV9If2csYInSu9fJrIvj3UU4XuJy529qxZ/e3YCtXb1IiVK6pxFzN6sKBZlOiGRP7NXMNdXtaMYjyxvx2oaWcE6aRSUHjy7FlftWorIosfGDfB9bgwDd4e32ao7Is4vjdWjBWdTsXGUy4HWHtxzSTsdA1aREhkFpHFFXLapvEwVLmzt6w8Y1ZfeMKcyZjkRBVJGhc8hy9mriGbyrcrzxv7xx8zY8uaodL61pDBsNXN6Bo4px9ZwqVBXlahWvqdLX5nzRgNQpI3dIgjskQQixMxBdnZsxFQ3xM5njVXm80gJmFv2Duhbc/X4tNrT2hAUzm9XLe1fgfCrdKAHeExWvaGfY2YnWQCqeWL4V/1nbCF8gKLx2RnpnVxbiqrmjMK40T+k1uYrXIQt5wm2g4dBiT8bxMqizoK5V1DewsY280unpTi7HuTOrUZoT2+JxT1S8jY2N8Gfm4eEl9fj32kb4+wOcVL77jMjHdQeOxZiSxEiHi+ONHGMujlcT8uKhLtuF7WnzeIOeFIHPveP9TWhoo9KNhJdPnZyodPdUj1fkMhgGzc1FS28Q9y3ahFfXNcEXlak4qKYYV80ZjVFFWTFWv62Rgsm4cT1e1+NNDH8PrcebkpYhigkJp9vU2g1Pf4GSyOlOqUjwdOX69kTFu6OxUXSu6vQFcceCjfj3mh3hamxG4eZUF+FHXxuHivzM/rd03sZVvK7iDYdfdTH6PVXx9nl9eHNTK+5bXIftnd7wTrJ6+eRJw3HBPlUoyklsRrGnerxS8TI6sK2zT1jRL63eDubBhOfrAfatLMJV+9dgQmnEinYVb6wQux7vnuvx+n1evLmpHfcsrMP2rr5weDaVnu6kMhGdKs3LMuTz9qxQs1S8DKs3dXvx4OJavLhqR7hOg27AlPJ8XH/QGEwojfTXdxXvHqZ4TRsiP9MVV0ksrqpQwIbjpdLl/brEuaxqjvd45SQT/ezboQk19/kDeHNdIx5YUo/NnX1hq5nVy6dPGYFvTSsXlYWqIhqT4iWNZXGVamKPpJOaxvqm3WQzU4GO9Hhzc3LCe7ClvQ8PLqnF6+ua4O33fOkV7FtZiCtmj8JeZWyS7uSsd0eo2YYtNhVbyCpUVREIQ0+8VOmJgTRcT0bxStkail7NLIThmlgRurMzj5PNO/N9ZFWzSqa5d1QWavkYGo+XqZM31+3AA0saUN/u5HQZck73eES/8gtnViI/MxVsMBN/RfbdrHh5PqloLAuZdnZikq3Qr7GpKaZXc0u3F/csrI0JO9PznTWiANfNG4NxpbmgDH8eipcQG1UKThZXqd7VlIqxFUFJOJFuQh1ppYNzmYZjDDbUrJJZj2osoAw1qAgjQ6E6+A1fgHAihiRVlxEyFAopMYryOSS8bk2myRQST6y71/RcWym5hCbINcrfeH19C27/YBNaev3hEA5buJ04qQwXzeLkkBRRvJEMjU1jAa3v2g9xUm5OiK3m1DTmc0ljVr7Kw5BKtanHh8eWbsZzq3YgJKLo/P9CmF5RgOvnjUJNYbYY+GCjsYmfeLirjAzBp4b3Mf2mjce5rxRgnaCKN1VV0fQXx+nex7Q/MnKjGwtokx3Tmkx0Mk0nssm7aU02GpvGAprkzrYm076LWoWuLlElH71/9Gjf3NCCW+dvQmufY1jxohI6da8yXDirGrnpTpoomXPExk9cswnSmAw/ca1URsVFxeEGOPxbly+AhxbX41+rG8NhZ/7++JJc/PzQsRhdlCVk1sZvOjpIyFZRUVFCLwdp4Ougkrbzy7Qm01hAG7Qt2XflfRJOJNcefbbqnutRNdAwwYlsVofA8fb1GeEfOk/BBmLmb+vuTb6Bhn0er6lCMr64yusP4u2NzXhwSR0aOqLDy87EkHNnOFazuUEA1xREWpp6tio9Xu6RShmJvQuGBExAZZXbaMx7dF44aczfjN4DHkXbu7x44qPNeHH1dvT62YPLCTvPrMjH5fuNxKSyXJrQSTUpkXAiKqOBQLai33l3wYlsNOZ7qA5SE5xIyp2u+nuwcCJ6doxm7CzP2GgsFYrqkDbBP2yejw1GpoOnhSGABYUCY8+LML93NjbhgcX1qO/giMQIVp2FVOfPrBKQIZN3yef4/YQPpigVsxlOZI+6meBEwkBQwPj4dxZXsbo4+nO+HR2Cx5fW49lV2+GN6qE0fXgurt6/BpPK8hAUcMg0ZZW2CZ4mi05NDTRUnr9UyuL80GDzTZAtEz+Z5MOk0/iZNAJ1MsvIjQsnUnSGMQnx51nVzFwnw663LdggGFteovcycbqzqgTQ3hFSdXVrIORDj7cVTV218KQEkJ9ZLv6lpUTySvqWkSH0+XvR3rMVPYHtSEvJRnH2SGSmFSDFY8cHc03+YB86/JvR421GZmoBirKrkZGaK6q/o3O88Qd0W3evmEn67Mod4cpJMi3DztcdUCMKrpKpHHeLqyKUTjasK5SLgLrwEE3EukgcrynU/GUdC0jP7q31zfjfBRuxo6vPCBnSKd5gyI9eXzsaOzci5PGhIKsCeRnlSE9l/YZDbxOcyOfvRVvPVnQHtiPVk4GS7Bpkpjsyy4v7Tvqr9o5rCgT70ObdjG5vo5D1kuxRSE/NgceTgugcb7zMdvb04eFlDfjbp9vEOEFepMfeZbn42SHjUZWfgYyM2Mpt+QwXTuRQwp1OtJunE/mCwJvrG3H/4jps7mBO17mE0iXQflZ1DGQoUfGG0N63DUvqH8aaxhfR3tdAMUBmWj5qCg/FfiMvQ0X+VCGMKsUbDAWwpWM5ltY/gk2tb6LX3ya+W5g1GlPKz8T0EWchO61IKHx1ntyPdU1v48OGx7ClaxH6Ap1IT8lGec40TK88F+NKjkRfT8A4j7e514+nP96KZz/bhj56vv0FV9OG5+GqOaMwZUTsqLRoIXZxvI4x5s7jdbhiV+R42U7x9XURmZX8SMgQZZb9yKMhQyrF29G3DUsbHsWqxufQ0duAIALISi1AdeGBmD3yClQVzIDH4wykZ8vI+BakWzs+xuL6h7Gx+VX0BtrhQQoKskZh6vBvYFb1BchKy9cqXhq2G5vnizNjc+f76At0IC0lA8NypmJW5fnYq+wEtLZ0JHi8YbnzetHpD+HPH23GP1bQ83U6xvPs2rssD9/b3yyzJmPMxfFG8uQqo8ltoPE54Hhz8wvx1sZmgfljta+0TJ02kOxIFat0VR5vS08dXlnzU6zc8XcEgj1hxU1D1IM0VObPxvF734bqwn0TFG8oFMTGlvn4z5ofY0v7BwghEHN/ZmoJZo/8Ng4efT1SkdhSjRb72sbXxf07Oj8iujvqfg/yM0bh4DE/xaSC07W9UGUhE/NjjyypxwurdqCvX5AZZt6vqhDf2X80xvcXb0Rb3/Jep2lBbK7L9XhdjzfeUxtoAw3eFx8elA00cvLyMb+2VYz2i26OwXsIGbpYMRksXvFS6b606gdYteP/4I+TWSAVZblTccqU+1FduJ9S8da1LsILK7+LrZ1LgVAkQiYKulLysW/1FTh83E/hCWYpPN4Q1jW9hZdWfg87uj+FJ9zShge+B7kZFTh03C9Qk3kCyoaVK0PRMoLSGwjhgUW1+PuKbeFoFT3fGeX5+NEh41BTRO85dhdcj9f1eEUMfnfheNs7OrG40Yf7FtVhW1ckp0ur+ehxpbh8zigMU8yvjfZ4qfjeWf8nvLn+RoTgiz9nxH+HkIoZI87HiXvfAX+fU6wkc7ztvZvxz08vxbrmV2IEMPpB2RkVOGmvezCx9PiEkG9rTx3+/sklqG19Q3jZiZcHpTlTcezo+zCmfD9l7jm6gpiwhT9/uBn/XLFF5M8otUynTavIx7X7j3FyvlEXaUEv/r333sPIkSMxZcqUsPHiKl5X8SajeHnPiy++iGnTpqGmpiaseMinPd1d+GC7T1T3Rsssm50eNa4UV8ypQXl+IswvWvFS/t7ZcCve2vBzBILMCydelKRp5efh5Cl3obcrEOPxegPdeOrDb2BD87/7p+cm3p+WkoPTpj6J8cXHJiher78Lf/nwDGxseUV7f0HmGBw78lHsVTPPqHhpnLT1+vD4h5vxf59sicHmTyzNwY8PGYeJw2Ib47iK11W8u03xeonTXd2A+5c3xUCG5CSQi2aOwPCCRIhGvMfb0rMJf1t+Dja3L1AKsPxjUdZ4nD7tSZRmTA4rXh4An27/B/614jJ4/ZzDqbk8qZhWfi6Om/C/yMkqiPnSim3/wj8/vRjeQIv29lRPDmZX/ABH7PVDpKclTliJh+7s6PKKntQvronkfKl896ssxDUHjMHYkmyxb83NzXjnnXfwzDPPYMmSJfj1r3+NM844w1W8qYnFcW6O12HPgXq8J5xwgoAsnX766Tj++OMxfvx4wVdvrXJktq4fMiQM21AIJ0wcjktnVWB4Ya42n8rvMi3S5W3E40uOwzZ6q4YrJ6MKF+/3OjICw2MU72fbX8Q/PjkX3kBkiIHqMVMrzseJE+5EZia9zojbub75XTz90Snw+vUyS697bvnPcdTUHyItJTFXG89PHX1+3PNBLZ5buS1sfguoUUUB/vuw8agsiNSZuIp3kIp3KKqaTUMSdBWfZHxTNait0jrZqmbTc6WC1FU1t3Z78Ye31uCd+o4ooQihKDMNNx8zCRNKsmOGJEQLVvTv1rctxF8/OhNdPuZ19Vd6ahGO3+t2TCw8JVzVzGKodzbejHc2/Fpr+conVuYfgDOm/AVFudXhHyHdF9TeidfX/RTBUKQ1XuIqUjC59FycNOV2ZKYnQsVU1a0crPCz19aInLe8qHy/PXsUTp5YgjffeB0PPvgg3n777fBIr4ceeihG8Q5kLGBKCkflJa7YVjnOPdDBGgj/YDGSaiwg7+Olbi5vHjPJA0se3vErNlU187smXLKt4pafc72m4irVkASbXJqqW2WFPadH6aqadWPcIvzEJv6xmysrTc2QFA8OPfQQwVvcx8mTJ+P888/HSaeejtuXt2LZtu7wkBKxHyke3H/yFIzJT0eaoZBJ7t3m9mV4YtkJ6PXvMMqsx5OGc2e+iNL0fZCZkRXmp5dX34BF9XciFBViVj2oLHcmzpvxb+RmRWNiPZi/6W68vu56BEORKFv8/YQrTiw5B9+YeR/SUhI9eI6Z5N5E8zGnGl34j4/R7Q2EH8eiUdZocFyp3MfBVjWr5Io/aJJZeR4nOyQhSKRIuhqDbdJLtqpm5u9VFdyyWlpV1Ojx+XwJ04lMjG1jehucSOKadBV6usPBpCD5GQ9KNjvQNdjQH5ROubhOiE0HVnuvF7e8vQ5v1Udm6jIonJ+Rht8dOQFThjuVhap3jT68G9qX4G8fn4VOb51RiDPSinH8xDswruAkMK/Lg9If9GFB7a14a+MvgVBEWBKEEEBV/oE4bcoTKMqujFG8C+vvw6vrfoxQyJlSo75SMbn0fJyw963ITI+FnahK7vm3ZVva8Zu3NqCxJxI+z0xNwYVTS9D8/ou49557sGbNGkF/XoQYHHvssZg0aVJE6A2NU/glE2bThAm04QVNxT22e6PXxL2n4BE3OmrUKMyePTsm9BlNaxucyCQ7NgNyIIpXVdUs91Ynl6bnmg2UkMh7xsPTJD14Lw34Tz75BMuWLcO27dsRYNW93y/2fCC4y6effgp1dfXikdwHDkY46tjjkXn4+diA2EK/VI8Htx03CZOHZSMlVT/zWJ4j2zs/xZ8/PB49vq0WxZuBc2a8iNK0mYK/JYzm1XU/wwd1/4uQQXHywcPz9sG5019CdkZRlHHpwcL6h/Hq2u9aFe+k4gtw+oy7kKrweFV799n2Tnzv5VX9sED5aiF8/4DROGmvsvBZJuFcqpeXeXTieBONAXsTHx3czqZ7GN3gmajTAeQZE5RVB0EzYcr5mW4er1hvICiMm3gd4BZXDaK4yuvz4b3Vm3HbskbRXi6auMdPGIarZlejKJd9ixPdsegcb3vfVvz944uwseU/RiEuzpqIM6Y/heL0iZFQM0JYtf1l/OPTi9BntL4Zaj4Px026DTmZsfmaz3Yw7HUhvP4m7e+neHJwwIif4NBJ1yM9LTFsFe+N1Yth3Ovxfl1kGDepMLu6EP91QA0CbTvw3HPP4dFHH8Vnn30mDlkewn/4wx9wzDHHhGnG51LIVR2kyNhSyemMG/5d9Zm8V4d/JFaagjjYBhqymUBdXZ0IqW/btg2XXnop5s2bl3AIuFXNEfZj44f77rsPK1aswJw5czB9+nRw/CZ5hHs2EMV79tlnY+HChWIfhw8vw8knn4JzzjkH/qJK3Lm8xUEf9Msm+eGY8WW4Zk4livNiw7pyVdFRhT5/B55Yeirq2t40RppyMkbiktlvIN1fGhNqZmHUX5efAa+/2SjzDDWfMPFOZGXEromFWU8sOw59hlAzizL3r/gljpzyfaXijQ81t/b6cNOb67CgNhK+Jl2mV+Tjd0fvheLsiNy7oWZn21w40W6CE7W0d2DhDh8eWFSHxm5fuENMVqoHx3Hu5eyRKMlOzIlGK156rx9v/Rue/+w76As0h9tLxkpkCmZXX42jJ/4Ovj5nvq0srur2teDfq36Ej7Y8rCyOYkgjP6MaX9/7PowpPiLBImzv3YJ/rbgKa5ue195fkTcXx9Tcg1HDp1qLqxq7vLhvUS3+s6YxPAdUTEOpKsB35rKPc54otmIYuaGhQRTBMMfLQ/aOO+7AmWeeGT4QTaFmicE2NUvQpQl4cOssYNLdNLjc1txBBdnifvGZLCB78sknceGFF+Lwww+PMQpcxetwPNNGN910k+Dv8847D1VVVTEGkAzh6eAs0pM79NBDUV9fj69//es49dRTMWPGDOERdXZ1YcG2PtGPubmHoVrHMGZB5LHjS3DJ7NEoy02U2dhwfgifbv0nnl95Jbp9jTEDBsJeO6v5q6/G8ZNuRneXN0bx+oNePP/ZtVi25UF4QqqCRiAtpQDfmP4kxhRSZmNbTbI462/LL8Tqpn8o76fMl+ZMwTHVD2DCyNnW4ioqXU5Pe3kte687b0A6s4/zDQeNxYRhuTHv6CpeV/HutuIq2aElJ68AL67eIaokO30SyhNCZloqTtmLeMCqGGuRWxZ/eNOCXtbwZ7y36Ra09zHkLMPGHqSn5GFM8ZE4etLvUJY7UYHjDaGxay3eWPtrrGx8Dv5ge9gKJy4wN6MaB9RchznVl8ETSk9QvMQA17YsxKtrfoqGjvkIhhgadjIQKZ50lORMwtdqbsTovCOQm5unDNeI0GxqKtp6/XhoSb3oYiU74rDjLeFEV+8/GuNKWLgSa1JQufKAfO211zBz5kwRjpWeyJetqpl0mj9/vjA2rr32WlRWRsL+ruJ1+OLpp5/G8uXLcd1116GsrCzBIxxIcRX5h/UCzO3OmjUrbKTKMGhWbp6YrnX3B7Voi24RCYDzsTngviTKw3O8G0cmZVrKH+zF4rpHMb/2FrT3bkQoChGQmpKDMUWH47hJt2BY3kQlnIhFla+s/hlWNz0HXyAiszQEstNHYF7NdZg76gp4AhlKOFFt6xK8vOoGbOl4vz/k7MisB8Tvj8eR43+D8rQDMay0zAwn8odw78JN+MdnkUYazA/PqMgXk4tGFWcnGBau4nUV725XvMxldPuCAkLz9PKGmHL8zLQUnDSpDJfuNyrctUqleMXfAn3Y0PwmPtn2DOpbF8EX7EBRzgRMGnYcplacjoKsKuENqxposMdyR+9WrNj2LFZufw7NPWtEt6uKghmYVnEWxpceLjpZ6Rpo0Ove3PYJlm99EnWtC9Dp3YLs9BJUF87FjIqzUZE/E93dTg9uVZ7E7/OhtS+AR5Y24OU1O0BsoHMIANPL83DtATWYWFagLIKSYWqZS4nOt3/ZFK/MUf7xj3/EhAkTRMWtDHe7iheCt7/73e/isssuEwaYKhUwEMXL+2TBTHSqQSpe5nu9QeDRpfV4+uPNDuyt/2JP9eMmluHS2aNilK+qgI2d5tY3v4WPtzyNhrYlAllQlD0OE8uOF01rCrIqhcyqG2iE0O1twcdbn3FktnslUlMyMDx/KqZXnI0Jw45Bemq2oYFGENs6VuGjLU9gU8t76PBuQHZaOUYU7IOZledhVNFsNDe3xwxJiLZiGGruDXhw76JavLRmR9hQpqc7lZ7uvBpMGB6LgJD3u4rXVbx7hOKlRmnp9uHhJXWicxNtY8exCyE7LRVf36sc58ysRGmOE8LShSvJ9D3+NnR0bwVSfMhKL0ZexnAhkPLSt4zkc33o6NsOb7AFKSnpyEkfhpx0VkRyKINT2GAK0TGE1RtogtffibTUbORkDENWWoEoEjC1jGzs7MGjSzfjhSgB5nrn0NOdMwo1bBmpqCjkd0zVul9GxUtFwPw24VM//OEPRVMSyRNf9c5VLKS68+iRbGcAACAASURBVM478bvf/Q7Dhg0blOJVKe1oxcvP23v9eGAxITTbYwxmhp1P3ns4zhfdqxzZ01WOU67YKa69Zxvg6UNWWjFyRZvXiMyaWkb6Az609/L3W0S3uZyM4WGZ5e+aW0YG4Q10CZnt87eD2N/czDIhs1T4ppaRrV29eGTZZuHpSrvDyekW4PoDx6CmIAPpbstIcWbqUlafe46XG6Cr9CUjqIpOHCbxobe3R1QQxl/0aMi8uoPfBk3Q5eRkAw1WZepGQkWHiKLXNRC4xM4MSdjR2ScmfxC/GmC8pv9KS/HgtMnluGLOKGSlpWoVL79us+htQxJs1Xu6cnwTJIXPVA1J4Hpbeny474NNeHntDrB1pnOFMKOiANcdOBbjirOsYwF1fYRNitdUri8VWbI5Xr4reUlV1JVsw/Vog2vp0mV4/PHHcOONNwoFIw92Kl4qYpXs2Xr2kh66vTXJVqRXc2KHIpt8mIwmWx6dTe3j4UQvvPCCKIi64YYbxJhCFR1sBqRzUCbCkKKNG55PUjG3kn8X1sZgzvldpkRO2Ws4rpxTg7zMgQxJ8Gvpb1K8tnPRtO+mynG+g2pIAv9OuNAdCzbghVWNCPSnlaSny/DymJIcMIplOqtNvdfJx7ohCXIsYIKCGCSciAV5RA+o1kWZJa1U72PjJ1vlPvlYNSTBdD55Ojo6lHAi3qSr+CRjmwScjKLCBIrDhRM8NFN3TCXqJrgE18rDg9gw1bpssIZk4URcL5Wg9FgkIzHP+ZdPtuH5tS3hFmz8LDc9BUePH4ZvTh6Ggv4RY8nQmDlRvrNKKQwEVqIzqEx04md8V/5m9P2tvQE8tWIHXlzdGJ7JS2/hwKp8nDNtOEYWZSPEiUkGQ84GTSC/8RCOv2zwAhMMwHYv+Ym8pDIwbYed6X0kTnH9+vW4/fbb8bOf/Sycx5Q05ruq+MJmmCZLY/ITLxW20qZ4bYcSn6vjcR7O0cqVkYC//vWv2Lp1Ky6//HJB+2Tkw7QmKbMs3IoOQbN5xFOfbMOza2JllkWSx05wZLYwg72t9O9j2nfyEw993cFvOoNM562tOp9QFxoZ8l0ZhWvvC+Avnzbi+ajoFIsdD6jMwwXTK1BT7MiajY915wjX28tzMT9fpVuFB69z3Ewya1uTHFuqxtebYaMmGtvOERmlUr2sTmY9vb29CYrXdrCYFkkLmIIcr4yED2RpkjEYxStxvLtS8ZIOVEa0suKvtr4Anly+VYzdis4f0Yo+bVIZzp9RgdwMWuWOMEdfNjqRvtwjlTIaSsXLwyP6oKSn+/CSBvx7fTP8/VyU5gGOHF+GS2ZVYlh2qrClbUrOpFAopOQp1QhE+VwTxjRZTGCyDTSkV2WKKnBNmzZtEtCpX/ziF6ioqAgfdKSxhMzE88VgFK/pXvIw16SDbOmaC8h31VWV2/ZdNr2JphXhZaTBxRdfPGSKl89XjZlkncbDyzYLz7dXMrTYhBBOnliKi2dVaWV2IEqBho1O8dporOMnm+JtbWlBYRExwE7iq9sXwH0L6/D82uZ+P9eRzyPGleK7c0ahMDMl/HfTOW86q3kfaayKenINNsWbrHFjmu9sOlNt560Nx0s+JtRtpxRviL8ad9lCROZQs1dgMnc21MxVMD9pmjupC1PLUDMPDpUlZYJ/DGwsYFpC9xySTOaLSPR4rCjJ2tTZixfXNOGpj7egvb9yUsw9FZ5vKS7ZdyRKchI7ythCH4MJNdtyvLpwJWlPy042PGjq8uLRZfV4cRULqZz4Mj3dI8YNw6X7jcSIqF63Nn4iHZMJNcsQne5eU27GtiZTqDkZOJEUMXnvxo0b8dvf/la0yJSVzbu7uEoVpRpIGJT0VxdBmSFbqlAzO5mRvy+55BLhgScfao7tyCTpH5/jjT/7Wjq78eLaZtG3uNPLwQWOwmKR5FFjSwRvl+VFWidG3+/wMcf3JR7BtlAz916fvjONBaTs6dOC0TleQobYxpUDTKTMcqmHjynFlXNrUFkQOYt4DvB9dGvaM4urmLrI1TbQ0OkP27vu0hyvLk9os1hEpdyXTvGqPVMJJ2JVs0rxcsO8oRT8a+VWPLqkAR3RUKPUFAFbOG9mFQqzYhtSkPYmQTQVV5kOSptCN+Uu+ZksruqgZ7C4Hs9HQYbYn/rIccNEDrs8L9aYsCm5r2Jx1Z6oePeEebwDUby2GgjTQWlSvJQPL6NJKen418pteGxZA9r6CK1zNCn//28QarRvNYriZFYa4rte8cZCnOJVvlS89ODvX1SLf6zYGo5OUWEfOroU1x04BsPicMs2ZbRnKt4WEcnQ1fmYcrwmI8NVvJrCrKH3eJNXvPQGevxBvLhyu/AQm3v8YYuYs3pPn1yOS/YbJSxqee2pipceb58nA499tBkvrebYPydYwvDyYaOLccXcGowoSMzFuoo3chzuyR6vq3hDIk1GT5sY9OdXbsMjS+tF8aAUWkZ1TpvMsYHVouBq93u8dsWbnlMg5oS/tKYxPHOX6z6sphhXzxuNivxED95VvLEyu8uqml2P1yG8yRsbiMcrw6B9/gBeXu0M3W7p8fZ7yCHkZaThG1NH4MxpI1DQL8h7ouLlmhp2tOAvnzXj5XVNYcwfDyJ6upfsMwLl+eqiIFfxuopXlf9KNtQ8lB6vVLyMYPX5g3htXaOoeN7RLWUWoMF85tQROHt6JQqyIsp394SazYq3dss2PLO2E8+u3B72dEV4eWwprti3EiMKc7R1Jl+8ULPr8X7JcryD83hlGNobCOL19U24Y/5GtPRGPN+01BScM60Sl+xXLaak7ImKl8bC3fM34D9RhVROeLkM354zCkWZHpGPSybX54aane5VuzvH63q8EY83PIUn6CjfOxZsivF8yftUvBftU42sdGeE456meHt8Adz61hq8vKEFwf5KniBCOHLMMBFezktz4Ge6Ak9X8Trm4pCEmnXTiUxwIhv8w1TVbCqb52c6+ICpeo+fMQyazHQiEtb0uyZoAjeE1a+6ijYVnXzBoPB8H166GU09vnDYOT8jVeR8z5pajtz0VGMpP3PoXLNujFuye6eqZmehSEuPXxSb/CuqyUC6x4PDxhSLYpPyvAyxXl11sa3y0nQvawb4T1clb3pXGwzAdK+pV7Ot6t9WnS+rmmVxVXl5uRBwWcCmw/GaKpMHQmMd/IPFTLySgWw5e6cey2hbUxunE+XkxEAAH3nkEVFcxUESHMbhiRsJyHXaqqVN+y5lNhpiEx8ujs8R+oMhvLK2EfcuqkdrVM43Oy0FZ0ytwDenjkB+RgoChvOL/CSnE8V7/7b3MfGTjsYd7CL3YQOeX7k9nBKip3vwqCJcNXeUKH40yZ3kR9PUNt1nMo+umk4kDRQdPti0d7Y1ETqlm3ZlorGN/raqZhbO6d5VR2OP3x9TNy94wgRJsZVly7GAqqpmea8KfmCDhpjWZMrxyufyvVSMYnqu3GgdJMVW1SwFJr7wyusPij6x9y1mk3YqX6d4IyPVg3OnVeCb0ypBI1pX0SkVrwpiI94nGFKOojLRX75rNJ34fTYXeJi9l9c2hTv7MKd7xNhhuGx2NYbnZoRhYvo8iDkcZjoAbJ2rpCGnGzOp2zsbj0vFq2ugoeMnwW+aUWDRNCaciN2ZWNUs4UQmj1cWxumiCqShbk3SatfBfiINNLITigQlnXRGla1yXBo3quJDeVBGH8JUvDRmheJNT9fKgE62BI39AaGwB9K5KloJShqrquT9gRDe2NCEuxdyGEok7Ey74JxpI3DezEqkeZzqYhUvsko+eixg9O/KVIxp2IdpZB2f5YwfdZ7a5fWLoS3/WhUZUsJ3Y3j5mrk1GJbrFHOa9i5yVqQpq7SNEECfD12aBhoyd8y91U1t050jJt3D92HqgmeirriK9+/sWECpP3TnCPmQfKxroKHj050eC2hLug9VVTNfQFeVxr9LTGAycKJAQN9G8fPK8cZbud19XryytgkPL22IyR/R8z13eiVOm1yGnKxEqBGfs6uqmjlliL1sOfBAFlIJyNDYUgcyVBApyhhMByM31GwPNUu504UGTRXp0svQwa6o6HiwmELNunvjR8tF87ltTew0FF+FururmqNzvPEy6/X7xcSt+xfXxyjfnPQUXDCzGqfuPQy5GpkdOjhRrMHV1sNJaU7v5XC/dI8DGSLioLIgKzzwgHtHha4z8Icy1EyD1jYuNZ7+Nm9ZxU/yGSb9YdNpQxJqdnG87GgS0HbiGirFS2XPysm3NraK4o1t4Xm+IZRmZeCSfatw7KTymGpnyUS7QvGK5hiL6/D8KvZ9dhJEzGsdPb4Ml88eieFxkCFX8Tq7I70mU6s9HjgunMjxUOJbRu7JipeHty8QxPy6Nty9sBab23vDyiMvPRVXzq7GCXtVICMKoSBldlco3i5vQCjd/1uxNZzTZTeMw8aW4HvzEiFDJqPJpoxcOJGzs597r2a3qtkh7FApXgkr4RDB9za14M73N2JL1GDukqx0XLRvNU7eu1wUXEVfQ614O7whPLS4Di+uiXi6VLpfG1mI78wbG+PpynW5itdVvPEeiq2a/YuoeIVx5UnB/NpW/M9767Gtsy+sfAsz00RTnJP2Ho6M1NiOdEOteLv9ITGW9KUobD2V58FVebjua5NQEdUcQ+6Tq3gjMuvieNOYU0hs/UIh3n2dqz6fqubogym6+xGt6Hc3tYiw7trm7v6vhTAiLws/OHgc5oyMbUc2lIqXBSJsdfn4hw1hyFBmagqOHFuKb04qwqjhRdp5vG5Vs+vxRvP4l1Xxks8DwRDm17bgwSV1WNskZRYoykrDzw8bjznVnAgWocZQKl6el09+tBkPLqkP94Z3WrcOw+ljc7HXyArjPF63qtncpcsNNX9BG2gMJJcRDIWwcnsn/vD2eqxpdnJunGh0zvQRuHxOzS7zeDv7/PjhK2vw8TYO5vaINpAn7TUcF82qQqq/V1s16Hq8rsf7VfF4o3Oiaxo78Zs312F1kyOz7AZ12X6jcO6MKqQxTNR/DbXivfSfn2Dljk6xBk5FO23vcgHz6+t0Cn9UytX1eHejxxsIRE2Alr4WKzODQe1YQFN8n5+xElU1OMBWlWaaXGSrppbFVeqKtqCwPpOdWmGqNmT1q6qUfCBV2iR39JqofD/a0oEHF9fh0x2dGJaTIeZi7j+qKOZMM8GJbFXapsbnIqoQDOGBJQ145tOtQukeP7EM586sQnFWarhXs6oYwwZ1MfGTCS5hgxOZmsvbIE6mNZngRHyursqRG2VrLi9zvKxq/tWvfo0RIyJDEuSkE11FrqmXOXnONDFG12ifERRZXBWvPG0ya9p3Gy+qQs0PP/ywKB5kVbNuOpFtTQOBAOrgRDs7go/VD59s7cBdC2uxakcncjPS8NNDx2L/kcXhIibSlOcTO2Kpij9t72OTWe7d/Yvq8bdPt4A974+bMAwX7lstzo/GpiaUlpSoC5l8fjEpTuUY2PjYtCYbnEgWsMXzmpMzNcuW6awwwYlM0Rcb/U38xOfKqmY+J/7SyYenr68v8dv9RSK6DTHhXkl0EpaKV7UQ0738vu43RW5F8zn/bppORHgNpUD3bNPvmj6TuEsdjtf2rnynxDV5UNfaIzzO8vwsTK/IFwow+qLi5bpUuEsTnfjZQNbEtpbLtrYjPSUF+1QWgJXWvC9+OlF8WJHvoqKx5INk6G9SvAN5n2T4ic8lP9GI0x2U6r2LWNCmd+W3amtrBZzoV7/6FYYPHy5ulLA4FhzpGpGYcO7GNQVDSkws77Hxk4lnBsJPOlrET5Ph9zidiLS/7LLLtLNgB7LvOlpQZvl8nk86CJrOeNHxMZ/T0NqDZds6UJqTjn1GFCTkeE38ZHsfE42lvHPU36LN7ULZzxtZhOx0J8fMSl9VL3nbb9o+N60pmf4G8iyxnRW63+UeUAGyt4HOwBwMH5vkmb+rw/Fq1xtk/7W4y5absVW06YYkDKTi00Q0XcEXn2v2ePUYR9t0IpNFL3GXuulERqyhAXfJ9/H6OK0kPcZqltvEBgP8jm6ajKkwzuaN8Td48EiukDpfQLY4nUjD2APBc5q8MV1UgUYcla8pgmKKSOgwgTYel7hL1YxaE2Z2IDwe7fESxztixAixtbYGGk5nJHUNhA26Y+JjieNNZjqRaU3JeLwPPfRQ2OMl7XVRKr6PqXJct+82mZWT13RKWcpH/JnJ/6bMpqenKWXW5PGa6lfEc7366UTRNI6XWd7b2NiI0tJSpZFhSg/Z+NgW9WTkpri4WEUmYeip8PFSBpKNJplwvCYa297V5IXzufxdFY6X7+Pz+pBGnoirW9ppHK9kBNMIK3c6UaTIxjSyjpuha+qxJ08nUhlHbo434u3alIILJ3Jo9UWtajZ1bNpTpxO5OV59HwgbdMotrvoSF1dFm4a0olzF61DE1rlK5nh1BWyD8XjpUaksc+4NL10XHFfxOntniyq4ijdCJ5O8mzxeW8ey6Hm88e6nW1wVMZZdONFXEE6kCvW7itdVvDtzUNpCzaaQsK1lpA7GJ6Nfum5aruKN7OBQVjWbwt+u4nX2wO1cpfFaWRDm9+tzWKYYvSxKoXeSTMvI3dG5KhrH6ypen3aykevxRrhjMO0ZXcXr0FFW3LKqOT78ypCjqWWkzbvc06YT8X1dxesqXhF60lnPruKNHLBuqDlCC1fxuoo30TANwdRf3ZSTcxXvwPjJlve0FdiyuEpXcMTiUB0iw+SQSMNJV1T3herVrBoLaKpGtGGe5HQiXRUqn61ryq37TOaLdDhF6fFyM+M3hffIEvVkcLymijZZNq/CBCaD45UiIe81jXEzVTXr6GR7LunIS0UnWXGrGrs1mHcVYSB/QDlNiZ/RA6GQ83fj87i23zXtnYkWEp5GXlJVNZvoZKOxXJOcTkQ4kZxOZKpqlnJnylnr9l2G2nQThkyhZvm7uspxW8Un71f9Lv+um04kcbykv0lmde9jw/FSKSSDRDDtu43GJly4jWdsWGn+tgrKx+c2NzcLBair0tZVEA9EtnT0N+F4ZQWxqTrfVNVsw/GyMl+lmAei00xT83Rr4nqYRtBVcGtxvH7Ou4q7QqGgUFacs5l4hfobBDijpeIvn88rDsu8vPyEz5zNDCA1NU35XIeoqs9YqBEQa1J9zvVG5vFmJDyb9xLIqxbiYH+zEPXv0rJ2GCy296ojaH7xuw6ON77NJa1yOatU1QLTgTjpaGyiRU9PtwDKq+fxmt7HWZOJxro1kYZ8VypA1f0mOjn0172rQ0cdjb1eB07kzOONpSP3PWKsJdLY9FwSMKDlRaCzs0MIcGZmZAKTZCzxPiEgJXXn5YNriocTVVRIOJHDTzRaE/nCkTvncEjkRZN8SF51DLlEOpGfeDleSCKNnQI2tbwPbN+53sTfbWtzxrhFP/uRRx4OjwWk0aN6V3GOkI/T1O9jWhPTWRHFG09Hp3WgoxTUNLbxsY7G5CdnLGDixLEIH6vPIJmCU9EwclaraBxCU1NTv+JNfB+Hn9RnGxncgR7q9133rtQBxC0XFangRCEhz05KUC2zjpJTyZZzVujOLxU/RWSWOo1On1r3RGCWiec4x3xyzKSOJ2hAFheXGHQlfzP2uS6cKLh7phO5Od4In7pjAe1jAUktN8fr8Ayx926o2aGFLe/s5ngjdKKRrvKGbWF1F07kwokEFw3lkAQyoQomQwFnA4084aEkWo0ujtcRcBlKc8cCunCiaBfIrWqOUMPN8QKux+t6vGGJMEFSvoqKlwYGjRyG1GRLOBoYO3bsEGFZfsZ2j1Sy9EZ5uPJ7DO/xcJEXn8O0ALsXyZwoW0Zy9uwf/vAHVFZWipD51q1bRVMJVuczBMuOQ9FGzkA9Xob5+N3oVoFuVbOzG25xVUQBujjeiLHs4nhdHK84hF0cryMUu7OqOTUlFU89/ZRou3fDDTeIPPSSJUvw+OOP46CDDsLdd9+NX/7yl/ja176GdevWCUV67bXX4r777sPrr78eLswaOXIk5s2bhxdffFEUFFFhU1lzn5966ilUV1eLv/FeFl0x/0UFfeGFF+L0008PK9+BKt7//Oc/WLVqFa644oowvM5VvK7ijU9CuorXVbyiWMjF8coclqt45SGxOxUvlePSpUtx11134fe//z2qqqrwxz/+UXi0c+fOxTXXXIOjjz4at9xyi/BWb7rpJtx8883ivydMmIAjjzxSvAYVKSvf6c2++eabeOaZZ3DRRRfhueeeE8+jx0tv+OKLL8YZZ5yBmTNnYtmyZfi///s/4RHTA/7oo4/E/86ePVt4w3V1dfj4449F4Qy/z4Kh+vp64XWLebGBAMaOHSuqWrdv3y7+NmfOHOGpf/LJJ2K95eXlwmOXmFZ+Fl/9OpA+wm4DjYhSd1tGOrUILpzISTtJ2FVCr2bVWEBb6bWpJZ5pLOBgBhKYuuDwMzmdSD0WUD8kwQaPMpXy813pqejgRLL0PZlSfh2NuV45TUZV1WzrYGR6n0CAcCL1aDk+t6u7GznZ2cocr21Igm1wgw6uwnfls3VwIhONTWsy7buEE8kw79VXX42TTz5ZKNvvf//7OPPMMwUNHnvsMaHQDj74YKHUqHCpKPm/9HIPOeQQcSIz5DtmzBhxz0svvQxW7n7ve9/DI488IjxmKl4eVByFd+6552LWrFlYvHgxnnzySfF79LDpbdPzPuyww3D88cfjN7/5jfCoqUBPPPFEYRTwb6NHj8akSZMEj4wZOxZP/PnPmDZtGlauXImzvvlNlA0bBo7eo5dNZX7OOefgtNNOE8YBFbtO8ergH05uPw0pcRO0+N4mmaWh3d7uTJOJlllGDRimF2MBMzORmpJYjSuNdFMe3TjKs6sLBaJyPPbZpoNSvo8Jqifbl8Z7lvxvOSSBa1bRWFbnq84K2yAKPl8Hu6LhRaiLbswk6aSbeGXC6kaqgBPfVobzVZAtfruvtw8ZmRlaiBO/o4OcmmisakEqV2duwOQU65kgTjroFJ/rVDUnVnCboFOe9vZ25XQiEybQRHR+RotHDXVx4Cy6CUQmjJbNGKCw8vBQFgYFg6KYOxkcr1lRBcQhkYxSsGFBTXQifXm/qo+wiU5kQhONbZhMvit/UyUUtntt/KQ7KCnE/KfyxgaDMbVhJ2lQkZeo3O655x4xxo+K9C9/+YsY50ev8Z///KdQghxld9ZZZ+Hll18WivTWW28VniYVIH+H3u9JJ50k3oFhYCpshpV5389//nPheVLxnn/++cKIKysrE5A8etM8iB944AGccsopwnP97LPPhJJ/++23hcJdsWKF+DtD0n//+9/xk5/8BO+//z6WL1+OiRMnitA4PXH+ZkNDg3ju5MmT8a1vfQt/+tOfMHx4Oc4779x+6JQK6mKWWRvG1LTvfGfSJJqfaGSQzy644IIhmcdLPu3p7RVTtnZWyQUM5whly3QuyvTCzmJMRV5awHrUU49IX4mVVil8KgXd7GHT3tnex6YDuIeqXg58bgROlLhi0zliO79U/BSteHXGv835MuHChdNHCGBBQcLLmM4nz856vIIRfD7tSC6vl/N4e5VEN3eukhhT9WBmm8criT4UHq+uaYHJshNE9ztYw50dMWYL7yU7FtBWcWuCJsgmJbp5l0Pl8doaaJhoPJg1kZ942NHQWLhwofAmGZatqakRXugbb7whQsZUak8//TTmz58v5OLOO+8Uinf//fcXylZa7zQKyQcvvfSS8Divu+468b9soCFDzZxBe/bZZ2PGjBlCIbG46m9/+xs4Ku+YY47px7GninAyQ+BHHHGEUFLck/Hjx+Odd97BjTfeKAwCKlwq3s2bN+MXv/iFUN70cHkQU0l//etfF+ukYXHeeecJJZedTWUUe37YGh7YqtlNilflocixgJdccolYm87zMUXdTPsum944WOlEb3owAwlMimxXjAVUKV6mRYbK4zUZy7trLCDx/irny6Z7TPxkU7xJebwhSkbcZVJyNouFjOuOBXTHAkazlI2f9nQcLwWL+dwPP/wQd9xxhwgts1CKipfKi0LL0CgLo5i3ZT6YURCGpnlRifL/HjZsGF544QVRhHX99dcLxct5vFLx8hnf/e53ccABB4SVAr1XfodKmc+nsqLHSwVF5USjgMbB9OnTRUEXFTlzw1S89LipePm3e++9V3jpDP/xMKa3zHw0c8r0tHWK12YEmgp0bPvuTidypMRWTDkYY8DF8To0pvJ0cbzpid1Q3OKqiKqyCaKL440cWDIkP5RjAWmbvvbaa1i9ejW++c1vCuXFEC8VMfOjVKxvvfWWUIJUkPRqGeqV0ReG+s488yyMHl0jlN+CBQuw3377Ce9YKl569szpUulSYUpvjHv97LPPivvoYTDXzM+p9Fm5TK+QHiy/z/WdcMIJ4rcZGqeHTqOBf6M3vGXLFpFrpoKmscD1H3XUUSJMzrW6xVXukAR5CtmaSri9mqVCZ463VdmX2lhc5Xq8bucqKWwujjdi/DA0mOw8XlN+XoZBN2zYgN/+9rdhxSutcoboGC6LD7HKvL7TRtGJB/Nv/J6sYpZhbVXIUXZKY66XhVb0wKm8r7zySmEE8Jmu4nUVr6t4E6XH7Vzldq4SXOF6vLvW440XRQoiL1UuyZZHlwpw48aNCYqXn8lezarc5kBxvCrFKytjWWD16quviipbFn0deuihIgQnQ+IunKhPRBF2ti6D9HPHAjqc58KJHDoYPd4gMT5xl63i0xZm0OV4bdVjpko5MzQhJA4S1XQi6UnovIGBrMkITejsDHc1iibjYCtuTcn+ZIuruD4TjW3FVWwZyWpQlcKxQXckXELnjeloLIurnCEJsZdt70xFEbZ7TdNkbP1xbRWfDAtHK94RI+SQBGcQha7wxwYrsUG2dGgCOZ0oGSSCbU3JFlcx300FqEYiOJj/ZOFEhB7qKn3Jb7IQLp7fbIgB076biqtsxprpvDWhI7j+xqYmlGqmE5lqVyA7yQAAIABJREFUK6QhoaWxz4+0dPVQBz73q1ZcRTy9olwqauhG3JAEr9erLK4i4ZOB39DaiUyTSTwoTaXvkSkQiVMrTGXz/CwynSgxf0zmVI3NklaJcU2Ge6WHohsxxt814b+SoTHXysOBz9YdlKb3sUG2dGuyVTXblFyyNLZVNdtonMy+c608nHVjAUPBEPj/dPJhe1fSmDlYwpJY+EQ4kTQQ+bvOBKjY6SzSGE6Gn+SzbWMmdZAtI43Dk1tUE7j0Yyb5PqzOjh8zSYgVacBcuQrzKmXWZMiZ5F1WNSeDvbcpOUknlXE5mLGAtqpa0znS0tyMIg2O1yazRhoHgmKUp+qS/Q2cqW1qY1lnaA+Gxqxn0I0FNDmTJt3C1ZvWxM9MVc062RkCOJEzFlA3j9eI4+2H36g2c7Aer23upO5QMkEEbIp3MA00THSyebwmL8MWVdDda1O8Q+3x7sp5vOS/ofJ4JU6RHq+jeH+NESMqwopXl+OVHogO5D8Yb2wwHu9gcLyqqmZWest5vPQ8dcaNrR+AzkCxKV5dpyHbAczPbR4v30c139kWfbFFFXSKd0g93n5ssU7xOmMBi5SKmfpBRQdpIJrm8ZpobGugoYsI2SIONsNHp3glT6iMDHdIgjskISwcbnFV5JwYTHGVDWMq5/HGF1ftihyvKncpFa9bXOUWV0kJcKuaI2eBW1zlFlcJbnCLqxyhkBhTnRdoEhgbxtRVvLE01uX6XBxv5IDeE4ur2GaU+UddsxBdn21X8bqKN+aQ1bVckzlehnPiL1lJqgon2/pHmwoQZBGBGAXX5cOihlYcWFOCgqy08FzWaKVAZl7f0oP2Xj+mDs9Bisej7MzzRcbxsvXRim2d6PD6Mae6CKkpHmXPXn8whA83t6EiPwvlOQ4kRnU47O4hCaq2nF/kquavvMfr9+P1lQ0YU1GKicNiC/Zk/QTDoL3+ID6oa8U+VYUoyHSKiGxFdXua4mXxzofrNqM3LQtzR5Ugvp12tNH03qZmjCvJRXkeK7ojFbmq81SmPUzGmDskwVLV7OJ4B4nj7epEjycLDyyuw8bWPvzk0DGYUJqnVLzeQBAvrtqBf67YirOmVuDwcaXIVFQGflEVLzwp+HBrB+75oBaThuXimgNGIycjVal423p9uH3+Rmzv8uKq2dXYu7wACf0Kd/NYwGRxvG6oOeItmyqtd0fnqlfW7sCdCzbi3JlVOH3qCGH8RodXZf5xS0cfbnxtDcaV5OCKOSNRnO2MauSlqwfZ0xTv6h1d+P3bazCuNA83HDwWGXHFUFLxUm5/+dpqbO304vqDxmDCsNwwFMZVvE7uXtc2mINl3AYaWVnh+aPRXu9Qery121vw55WtWLmjC9+eW4MDa4qRluJRKl6uqb3Xh/sX1Qlr+qq5o3DwmFLx/ejri6p4qXTv+qAWw3IycNXcGowpzRXDKVRhXXoXK7Z34n/e24jCrFRcfcBojC5K7BXserwRzvg8cLxfVY/XFwjizQ3NeHhxLaaV5+LyOWMwLDc2Ohbt8dJbfHtDM+5dWIu9h+fiitk1KMtxPN89XfFy7Z9t68RtCzYgFAjgR4dNxNiSnIRIYDQ/rW7sws1vr4cnJYTvzxuLicNyBWTLVbxDpHh9Pp8Sx5ssJIVWH61GFe5Shmt0jGuCutjKwU043sGUqOsq2mgpN7T14K75G1Db6cel+1Vj3qiiGCWqu7ep24enl2/BBw1tuGBWNY4YWywUlNwI07uShnIsIIth4i/bvYOFEymhLgCWbW7HPQtrUZSdjqvmjMLoIs52dVanK9cngnxDcxfuXFgn4F7XzK3B2JLsGDzcUMLTTHAJhsp46KgOHhs/2Wgsi6tY1cyWkRJOJCvHKTuqsLupgtgGiTCtiVXyvJLlp2QhTqwGHSo4UTz9XlrTJKJSB1Xn45t7l2BEaZGySUZ01WwgGMKCuhbc/n4dpgzPx7X7j0JhVgo8HjWMxkRjEz8NRmYldlQaVDyXPt3eiZvf3YDCjFRcNLkQ02oqlPwUfT6xZW9dWw9ufmcDuv1B/OjgsRhfkqUdGWh6Vzk8RlfVbMMl6yCANv2h4qfoaIZO3m30N8HTJJxIh+PV6QDPrlS8the0KV6dMTAQHC83IFncpYoRqDzvXrgJK3Z049tzRuGgUYUxYSsTk1AfNXd78fiHm7F0awcumlmJA0eXID3K8zUelL29CBlwvDaMo27+po3BeHjEK14K7JLNbbj9/VpUFWThyrkjUVOQFWMPmJQClfMnWzvwwJIGZKZ5cOm+1Rjf7ynzIbYGGkbMLDGmHg88ilmxNl40wYmGSvFyz00NNGzQHR2P8+8mjOlgFa/OkLbRKf6g5F5xRjGhKGIeb/9Ep501LqP5mLUE/17TiCc+2iIM47OmlCEr6BVj3HT9vTlfWBqNwRCVbxvuX1yHkXlZ+M7+IzEijr/l+myKV4sLDzHdFdR60jZDLnrfP9rSjj/N3yRytVfPHYX8QBeKNQ00EpSCh4ZwD25bUIuOPh+um1eDqeX5Cca9TQF+FRWvah6vUQfsbI7XVu02VNOJyCRkTl1xlfR4kymu4hBkXaGAqrhqa0cvbpu/EWubunDZrHIcNqkS6Yqh2n4/Zw+rxwLyEG3v8+PPH27BG+ubcfG+Vfj6ZAfP+UUJNfNQoqfLXG1hZiquPXAMxkYpTSmxTqg5JGihukjjDa19+J/5G0Ev+L8OHINJZbniq0MZaiZPqfZdGnJ7Uo5Xyp2uCtUEBSMdTVjQgcCJdJXjyVY102Bzcry5MXvAyU00BExjAclLAb8f6RmJzXL4rjInR+350qoduGfhJhw6phSXzR6JnFQIxc4GGvEGaHSoOVopc63vbmrG799eh31GFOD7B40VkZ34a3fneFc3duKXr69FQUYafnToOIwqzAp3rhpoVTOjbptaevCrN9aA4flfHzkRNcU5IiIXfdm6F+qKq0hjyjSLFnWGD/9uCufrzuqWlhYRadWNhtXpD5tOc3O8uxlORKbc3tGH+xZtwvKtnbh8vyrsOywDJcWJYSufvwebWhaiL9CEqsI5KMquAqLYV+adm3sDeHxZPRbVt+Fb0ytxzMQypKc4h4cuv7InwIkCoRCWNrThrvc3YXheBq7crwo1JXlIVcw47exrwsbmd5GVkYuRhXORmRZrRVOIU1JSsbKxC/ctqoXPH8K396/B9Ir8IVW8psIfF07kHLMSsvVFgxNR6b6wuhGPLa3HwTUlOG9WlcjpSm8sWvE292xCfesCFGePw7CsKcjKZJokVtX4giEsqm3GnR/Uiupf1jCMKMhMUEZpaemqGkHRpYvV0qrGETZDeyBjAZdv68Qf312PitxMfO/A0RhZ6NRLxI8F7PV3YH3T60hLyUJl3lzkZKoMEGB9SzdufWcd2voC+OHXxmFqRX6M8k1W8ZJgNKxUaQ1pNLmKN03di5OMoFMKQ+Xxmg4AmRujFZWMxxsM0jPV9x2VUJdtnX2iInJ1UxeuPWAMZlXkorfb6dASL6ifbP07Xlh5DfoCLZhafg5O3Os2ZKRFChyiC746ev14aEkdXlnTiO8fNAaHjC0RFv2eqnhTUlPx4RbH0y3JScc1+49GdX66EhLU62/D62t/i6Wb70VaSh6OGn8T9q2+MMYIkVEF5s5otd/y7gZkpaXgx4eMR0lGSByWtGR1DfxdHK8DdaHlbuJjHZ0G4vF+kRRvn8+H19Y1i/DwvFEluHz2yLCHGq94u73N+P/sXQd4XMW1/le92pZkuTe5YYy7sSmmQ4CXRxJIgTzSgBSSkNBCIIUSeCEECJ0QyiMFSEI6ISGVjgs2HQewcVNxtyVZve7u+/5Zj7bNnFntIpDNXD5/Nlrdu3PPlNP+/5w/vvEFbKz/O4bkV+GjM3+J8eXzrE0SllY34JYVtcoo5BlQURz1fN8Lj5dn35odLbiOeyY7C989diomlUXPmVjFGw6H8O91V2PV5tuQFcjFBybfiIXjP6OMXlM4f8OuFlzzzEYEEMCVx03F5PLiPqPCK96IxDyqubVVhS8GSvFyxf3j7V340XMbcWRVOa44dhrCwUg3mWTFG8a/112BZzddq4AYo0sW4rMLHkNxfmXf+k5EWtN7vPyJdZheUYQrj52KkhwMWsXbHQ7g5qWb8NSmelxweBVOOaBSGQomLm5TRy1+/eoZ2Na6kv18cMi4r+PkGTcgKxDd7LHh/K7eEH67eiseem2rolx9fMZwBMJBr3j3dn15r0LN+5Li3dzYhm//ex32dPXif0+YhjmjhvThLxIV7/aW1XjwpQ+hracOCOTiw9MfwNxxH0V2VrIhTuOmrbsXNy2rwbPVDfjGkip8cMaIuGe/2x5ve3cvrn9mA56paVTj+a8DRsQBPGMVb3ewHfc9fzh2ta9WQM65I8/Fhw+6BTnZ8Z47Dykacd09PXj07XrcsaIa/zWtEhcfMRn5ORFgmVe8XvGqcNhAF9AIZGVhVyvDzHWq8AM5qoeMLbV6vBvqn8Jjb12AjmAj5o48E8dPvxq5WVHQkVa8tDa3NHfg9hUEarUqZO/xUyoQCg5uj/f1bc244/ka5ZledHgVJg3NAz3hxFwSN/vztXdhVe2PkZtdgOOn/gCzRp1q9HjDCGBpTSPueL4ao0vycfHhVRhVnIVe7/GqXe7pRDr8HYaEy+js6saztXtw96o6TBhWqEKlo0sjyiVR8XJ9/m3NJVi7608YVlCFDx9wP0YNm2H1eH//n+346StbcOSEMnxp8USVZtHXe+Hx0hhYyyjRsho0tPfge8dPw9zRQ/rCwnEeL0JYVXcvntt0I6g+T5hyM2aNPsXo8SIcxot1Dbj6mU0YUZyH7xwzBZPLvMebGBlI2+M1tQWkIrMVy3dZO1x8jOEzh2IKX7iKC9hCZVKJP46VObl0PF7eKxVcT0yss+AD85oEFTGvecSYAgwZmlwMPBjqwe7WjegKNaGyeBoKc8vixKGL5e/u6FUhW26eLy+agCOqypGXFVA5XpuX4WqSYMtdEiTCA8smY6lAAJ9JGWv6B4FVL21txq3LNineLqkWBFaZElxdva3Y2fI28nLzUFE0DTlZ8RZ2RMbZeG17C25ZvglD83Nx3qETFcCqu6tLKZx0mm4MVMlISU6u9RTbJEHXao5tC0gZ811t/XhtHXtcxR0kRHQmTRKkym6uc8RE/7j//vv7wFV5efnINnTAoYyl/aHC7gjgH+t2466VNaqaHDnzLIJBbiqN9NiOYh09DdjZthYleSNQkj0W/N6ktAZ5vRvrcduKGsyoLMb5h03qU+axite2Z6W2gK48uot+w3395u52XP3k26gozMN3CawaFqEaJrYF7A11YXvrG8gOZKMsbyrycguTjGXmhtfVt+P7T65De08QVx03HTNHlsTleKVmBbqinw3pq8FVSQpib3WwTJok8HyyAXAlMKVrPTFymWVgR2g6ke1dbaDGwGBpC6goJ6Gwon6Y0G4SNUErXlM/Xk1lYZ7CRisRKSmGtoDku/1k1WbUNnXgzAMr8IEZo5GbcED0fW+AvL/kJUY6EClJD7y+HS9sacJn5o7GydOGq7CVi+oiKV6JuuN6riRjFWZra1Ntt7TiJs9x5ZY9+OlLWxWS8iuLx6mqNyaDi4eDaeHqPMlb9e24+4XNilL1lUXjMI3o6ECETqTbTCaui6iM01szEj1NagvoWotcx7aWaZrqUlNTk1ZbQNuh5KLu2PiEGuxCWdjaAvIzG7dSeq4ek+lePtPVFlCqI6zpUbazgj8nIIqV4n65ejsOGTsUn184FqU5AbS1txl7HmvDNLmbTBhPbWrEnSvrMLOyGOctHo+RJXnJyllokehqCyitmVRlvHpHq8o/F+dm46LDJihOfENDA6gUTKhm9VyeTwkKZUN9O25YVo2eYBjfXDIJMyoJ1Eou8mNbE1Q2NOYGW1tAab/b6FyuM4Yy5Do2KV593pp47sbuRBJQIxUEHi0ak8er7zVZ7dqKtQFAXHQivjyVQmKOV3sgNqRcKtZmYu6S+ZH6tm7csmwTXt/erKzfE6ZWxilYDVG3eSj1rZ24a2UtXtnegvMOmYCjqir6lLckYx4OHR3tSjnTuksOfdhpVy4ZSzWIKX9a7QQ5xXrMpHYQkX3jcxswakg+LlkyGRPL4lGhLuDPq1sa1YFRmpeD8w+fhGkV0Y3OtcRcU6kFXKUtVdMBHEFLZ1nrYUsWsEY1m9CXkpwU1UWgp+kUA9sC9qc7kcq5dXcra95WXINrIR1wFY0Mys/WnUiSsSv8raMvJqNJl4yM9VBi6UTcy6b3kc4RyiA20kFKzGNrd6pqcUsmDMO5B49DTrBLpBPR49VGIiM7T2+M5DknDivAN4+YjLHDkqtAufYWzye+j6n2N9ch/0iAVSm3z3fWAKlXtzXh6ifWobI4TwGtinvbUFFRYW2SwLMtNrpCiuS1T21AW3cQlx9ThdmjCRxNdhwkehrXBA0NKiPTvKdLJ3JFOlx0IpuMZb0UiRLaS0YGFS2OMjY5HFpOiXvWtwXMoC1gdUMb7lq+EZvbenHu4gk4chILkUdWqbQRiY4mzYHIYNaMPWHq8Lg6qi7jZjDQiWIXGS1j5oPuebEO5UX5uOCwSUr56suWJiAlac3OVtz5fDVysrIURYPh5dj6uQPJ4/V0osgM7W+o5sQUAwF7f1u7E794ZTMOHlOKc2ZXYlTFMCePl0buExt3467nazBzRImKxIwsLUBOtp2P/m6DqxJTDIxCsYjGbSuqUZiThS/NGoZ5k8em1J1oU0M7rntmA7qCIcWumFFuBqu60o1a8bKak+nydCLAK94MFC+tmeodDbj/Pw2o3tOBi5ZMxqJxkQpWNsXb0tWrNvKy2gZ89dCJOGFK5X5Rq5kAqBe2NuO25TUq18scLStZ8TIpXlVPdmer2uhD8rJx0ZIqTInxdPWG9Yo3enS5vEuuuXQ83v1d8SpFEQzhyY27VQOPI8cPxRcPqVJdxGIvyi+2SfuqzU24aelGzB5ZqopvVBZFqEODvlZzGFizqxU/eGYDirNDuOKEA/v2Yuz7xq6n2j0duPbp9aDivvToKZhaXqRAjb5W8wDVau5v5SpO3PuVx5tovWkQQUugAP/3Qh1qmtrxnaOn4oBKc3ciWt6Pvrkdf16zE5+cMwonTB6Ogrxk2sK+5vFqCziELLyyrRk/WVmjWq5duKQKxZbuRI0dPSpUv6utC19dNB4HjU4uucnnesXrFW/ivkslnG8KDTIy88SGXfjx89U4c+44nD57tGpbqa9YxbuluRNXPL5OKaAvLpqAypI8hPah7kT01ql8r392ParKi/Cto6ci39adCAFc/vjbYCTu0iPZIIHtEiP8ea94veJVeZDB2o93a3Mnnq9rwrGTK1RRCZPHy9Dq2p2taOzswcIxparMpLlHcGjQV64yGSF8F6JJWbu5rasXR0xi3trcj5fhrJW1jRhdWoCJQ5jL8/14GSLVtZptqGbP42UExZ1Ht+XkOrt78I83t2DyyHLMZjUmS1vA1u4gnquux8Fjy/ooQy7k+HtFJ7J54VS+K9ZvRmegAMdMqUiqJa89XiJ2H9+wG1PKClG1t0iGxqh4xesV76BWvEQgMEyjW/zZQs2sRUxrktazBPga7CUjbYqXBx4BKdz02puQcrxZIHWqx1h8w3u88VL2oeaIPDJRvFSOLaQTDRmaRFWK9Xi5N7mfYz3ifU3xUla7du3GsPIy5Bry0rHrie9KQJn2/73ije69AanV3NnZmdQWUOLfuZBlXNi2toAaYWzLQ0ncMBePl8hM1kG1Fci2W4VuHm8yvSAyKRwv82M2zjI3qu1eFxdU4pVJbQFdcpI4yy4er6YTmbwxF2eWc2/LjUkcUx4OXFMmBHcq68nm+Uhy4txqOpHJ4nfNnUvGPNRJJ7r++uvxve99D6NGRZpj8D6uJ76rCbksIUldnFlJxq7uRNL7ZDImzUSIPQ/YnYjjOfvss9V+tnUUc9UDsM273rPkSpsQtzqNZkLJuxRvRMbRzkaxZpNqC5ifj7zc5OYKqTArbGwP17w3NDaizFDSVqeHTNXmlGvg4Eq7eLw2OhGfHZtHTzTgNc/d1kFN+l7TetLPl2ScyrtK5wi/V2qBaJq7QFtbW7/78Uovz8+4eEntMV1aGfX3M82JMh3e/IwTzY1qox/w+2yb2Mbh0oeh1D+Y32sq7uC6NxXepe17KV/eb6ImaN5ZOgvXxU/lu/I7TeOSuIauMUlrggc7/6S7nmy9Yl3zw3elEWdLbdjWkzbIpCIlPNRra2txww034Kqrrorrx6sRn/3tx+s6gCUZ05DjmEwF/F3GjfRc17xTGZHCpNcTx/Dzn/9cKd6zzjpLjcekAFORsW3eOV4+n8aNjYJmK4KRyZ7lerLRo1wyls5bl4xJdYktFhJ77krGmJJxMGhFcEvzzudSxrZzUcIIuRSv9L2kAPKcsKXvXMa/VLzJdp7ymfxek/MlrVOPas4Q1Wyu1SzTifSE7K+h5kSjyuVdStWPPLgqKk0fao7IItNQc3/bAuoZcHm8gy3Hy3EndieK3ZvSevKh5qikBiTU7FHNbEKdWneiRIWiUc2m7kQuQr0upLC/gatMlqFXvPGbmAZXfwto8Ale8XrFawrN8me26JhXvBGJSQWYXEaGV7yDGNVsyhfpEJEppOUVb/QI8R7vGCUMj2oGYitXMdRsNkzTRzUnNkmIVWSJ4Kr+Kjnv8UYk5gtoROSgFbqpeqEPNftQc9/5IpV2VCUjW1tRUlxszKO7iuVLVaK84vWKVy9Cr3gT1X1EkaXbHMN7vN7jVYAge31cWvw96lC3FT4fzDxe7/HaKUE+1OxDzcnqBKrGbWLtb694veK1YV8oGalTk6tWM88hE3DuPQk1B4NBI6pZQvq6miATLp5uG7dM2gKauhPp+L6tq4uEltbhP4lOlNhiTG8bjVSU6ETSmIK9QeTkJle14vPTbQuo30eSsQ35x/VAj7c4pjtR7BExUHQi3Z0onfUkISRdxoDUTeadoBMxx3vdddfhmmuuQWxbQH4vlZEpxJoJdUdCxmbSFrC3pxfZOdlWY1lCkpoU709/+lPFUPj85z8v0olSoWzZkOHSntVnW7p0ItvecrUFdEWEJIeE+9CGumVbwHJLdyJpz7qUnItOpJskmAyugaITmdaT/v5MaZY2lDyfy/aW70hbQA6WD7RNpov+IfF4uRFtz5W+U4LNa0i3TfHyubYWVi44vnQvF59GSJo8Xj477e8Nhqyt5To6O5lAUFSMxCuV95Gg8XyeLeLAzRTbFjD2u10ytj1XrTWhnRrDbPxjon+k8q7ptoOUFG8mtBItJ1tbQEnxSpQt15ikvaV5vKSKmdaxZISnu2c576Z+vKQTUfF+4QtfsIZXXcZyuntWG+k2oFIq6822t1rb2pCbk2OlbEnnYrqULT6TXqCpS5B+V5tCSUXGtnfVeXQbt9VVr8F2Zrr0Evm0Nh3g0h+uNW4bE++TeLy2PdvvHK/klvMzHpJUvO92W0BalBS6rS0gJ83G8bWFsLXVZyOZS6hmHVa33cvFJ43JVrmKMtYer9QW0GQhp4K0to1J53jp8SaGa/RzpRZ8LoveJqdM6ESZtgW0tXHTc2eKZkiACr2eNKqZHu///u//YsyY+BxvYviV9+nn2kpGSuvJNe80HnnRqEpUvJw3XazCZJClgrQ2FZXgmFxtAXUBjf6OSZp3vWfJbU1UHBpcxXnvb+tFl4x5OPN9+Oz+vk8qMjadbRzT7t27+9UWMDZi56rVbPPCM2kLKM2dlrGNZ+0KNfMMMxXEkda47tHs2wJaKr/QU6DFbhKsjCD2dCK92Ty4KurD6368piIlqSg52+Gg16KnE/kcb2wY1GZo83c8uCq6L/ebHK/n8XrF6xVvcibKK96ITCRApFYKNi/clUf34KqojL3ijchCcpJ0xChdj3dQgau84vWK1yter3gpAaZqTGFQKRUjhUG94o2uKx1qNpXl1KFOWycg7/F6j1dJwPfjjSwEX7kqfkPY8rSuA9jzeD2PV68kTydKNgK94vWKtw/kYbLONACEgBgbuErTAJLRkzKPVyr5paguVnAVy4X1Ci345Co4klJ4LxTvQIKrUsnxSuCqwaZ4XUU97JzysOqLy5BWujleG/BEh9I2bdqk6EQmcBWpU4nIWhe4Spo7bSTaxuQCV9n2rCvULI2J76NRzbGhQypejWqWKleR8y/1ipUAkZnUaua4bUCmCFo3lx1Ck65MwVVSAQ1pTKQTVZSXG8FiVOiUk63xjASucjlfmk5kQslTP5gQ9Hqd2kCaAwWucgEiMy0ZaUrFBExtAZOXTfxPJAoBJ0vTP0zP0RSb/n7G37fdy59zM3EybZvC1uXE9FwNsY/lgWruZuy4KQceEkShpvM+ekwcf+IlyYkLl5dJKSDMbr8RGlM6Y+L9fU05Yx7A8Wg6Uexm1TB8zrvpOylLBeVnI2LzkKzzyufxuUTJmxDc0ppwfeb6XGoLqOcrbRkDqi3gD3/4Q8XjraysVJKmLDWdyNZJS1rH0r5Nez0J+84lQ9fniW3c+G6/+MUv1F7+4he/aG2pqZ4bCiOQ1f81zn3M55vaAuo5kOh2/TlHYueD5wTPJpvDwt+1PVs6b11ntaYTmX7P9dx0z2pNsySdyHS2uShokiykMWnny6YD0n2u7UzU64Xfa3tX23gDIbb6SLgkS1XKR/BLXHQiu8cbVol1m1Wevscb6bdrq4aSGAbl/7/xxhuqPRkFyk14yimn4KSTTkqi0WzcuBG//vWv8dWvfjWJQE2xsvmCrYAGNwS/Z+HChUl8XAnQ4vJ49fvYqC6u+tFcCqaFq+hELS1KAfI7fve73+HZZ59V/yYd5pxzzsGECROSLOvHHntMbb6TTz7Z+Fx+n8kz5T1vv/22Wk9VVVVGHq+Wk8u7tDWisFGc+N18VxedyExPi0RQXGPSBTQo8OXKAAAgAElEQVTo8eoCGlKtZpfHKyGttYwHwuOVogr6HLGtRROd6P777+/zeCl/29xJXrjkobjoRDqsa6cTBZCTk200lKW9JXm8+myT6Dk2AJt2CEx8XK6ZehbQsHi8mVB3pGIuLjqRLqBhMjQkcBXfRyqc4qIT2cBVMp0o8p2eTjTAdCJaw5dddpnyQj71qU/hmWeewR/+8Afce++9qq8lFY8+mDds2IDvf//7KlxIi4f3cIPw0A4GGf5uxogRIxQ/kouxoaFBTSAJ7atXr1aN0H/wgx9g8uTJcdauC2xB65ljMHmBLqWtOZkmCziVUDNrNfO9r7zySlVdaOzYsbjnnntUM/evf/3r6j04Lm4ujoWhQ3roZ5xxhvo53103tycfmfJgWoJyo7enw4A8dG+++Wb1u3yuqQNUKopXamAtcYs9qjmyQjyqObpTtJKzFdjwTRIisvJNEiJykELY/S6goQUrIfBcOV5zvczBUauZh//FF1+srBxWz6Hi3L59u/qb5ez4GRXf9773PXziE5/Ad77zHSxYsEAJetKkSepnF110EcaPH68W4NSpU/HlL38ZP/7xj9Vz+NzDDz9cec8MNX73u9/F6aefHmfZD3bFS0/0wgsvxGmnnYZjjz1WvXtnVxc2bdyINWvWqM/++c9/YufOnUqR/uY3v8H8+fNVFR2GEPlzesz09Orq6vC1r30Nw4cPx3333afkwgPs1NNOw3333qtkSONk1qxZSbaCV7zxSsGW63N5vLpkpEc1h5XByNxyOiUjveL1ijf2kPKKt1cGV8X24+Vh/p///AcMea1fv155YieeeCKOOeYY3HjjjQoQQ+VMZUqFccstt6ifU2F8+9vfVoqFebubbrpJbeA777xTec633norLr30UlVJ5q9//SvOP/983HbbbfjRj36kQrSx12BXvPSaf//734NhZIYLGWqm90t5vfLKK7j22muVYt22bZuSwdq1a3H55ZfjT3/6E7Zu3aq85FdffVUZLQzpM1fNw59K9sMf/rAycKZNm6aMER5m9HhNOTmveL3iNUVuXKHmTMBV/D7v8crNCrzH6z1eJYH+VK4i0pIKRXulL7zwgvJWzzvvPPz5z39WipeeGxUNFSkVx1133aUUDJXxBz/4QTz44IMqxMoFSCW0ZMkSFao+9dRTlSXN8Odxxx2nlDLDqSNHjtynFC+92h07duDggw9WipRKmD/je65bt0698wMPPKDkxPAy5UAv+N///jcef/xxTJkyRSla/oxyoYLesmWL8jZmz56tlDmjCPw576XsJW9Myqf6UHNkaUk5Oe/xRg9K7/HGKw0JOW4rZOEVr1e8/Va8BCPQk+XB/9///d8qn3nHHXcoJfvQQw/h4x//OGpra5WyZX6Xf+jp8oCnEua9DI3Sa+MmZv6X4Wc+g14u85oEZdGzu/zyK3D11d/DnDlz9qkc7/Lly5UxQu+euV0aJHwnRgUeeeQRJQPKgrlrKl7+/iWXXIK///3vKlfLn9HruOCCC1R+mLlvDQT52Mc+phQ0lfrmzZuVrL/5zW+qUHTi5T1e7/F6jzeoRGDzwn0/3sgKkcC5OiRsMzIypROZqGCB3t5eY1tADsYGq3e1hGKO19bGTdNPTBuGwrEtIN7HMdk4Zwz/0iuyNULg99koGrFj4r8ZBr399tuVN0clQWXAfCYVDFHMBFERJPTRj35U0R/oMVDJ0gs+6KCD1L3f+MY3lJdB7/czn/mMynnSkybQ6txzz1U5SypoInbpKce+lwu952oLaJOTXoCSjG1y0lQXjp/v9ctf/lKFjvlverAMB5NWdcMNNyhPlflbRg04JzokzZ9RATOUz3eg/Bh2p/wOO+ww5f1X19Rg1kEHKS+X8mfel3JdvHhx0pJxyYljlrqKSHJKtzsRn+la4xxTbHciGi96bmiQcM2Z5oj7zoaSl/aHa951dyJbtysJSerqNCPJ2NSdiAYrx6PbAppyra551yhUG2rW1lFMRwZsnhxlbNsfLhmzpWZ+Xp6VTiStGUnGiqonnNUa1WyThW096Uihrc2hdFZrdL6tO5HEAc5Exqb1pA8Nac2ksmddbQGJHDdRp2x7NtDT07PPKF5JeWoOl2nTSJNpWrj8GSeRf5h/pFD5XC4Y/oyWERckFy3DqQwz8zt0+y0eHDzEuDh5D//NCaBnx/v07/EA4IZI5AG7FoKkeKV7Xc+V5BSrePkO3d09aGxsUO+n0d58FypRGl7aCOLPaJTw51TafFcqa46FcuP9lBPlzDnUh2JREWlLQSVfytnU7zKV97EpXjXvobC19eJAKV5tDMTSiXSqQXNMKSOTkSgplFQOLNvhke560srG2loutFcpZGeZ7GxjW8Cf/exncW0BUzGWTZEQ27xrjimR9DZlZFM2qcjYZtRyPfHcsPF4RWOtN6h6Hpsu15ga6utRVl5ufVeb4nXtLUnxutoCSo0O1P7gfxaOtvS9PJt5xtia3bsMYskhsa0njodUMVs/Xtue9ajmvXxb22ZzATW4oUxUFy5cF2dW4hZLRdPfazqRSVauKlESdceXjPQlI7VS8SUjk9WrLxkZlYnvTpSXZ7TAuEj2ZTpR4ksNtpKRHJ9XvJFZ8jne6GqVONg6hGoDoXlwVUSONJY9uCoqC1c/Xg+uYu44hKamPSoqmnh5OlE/6ERe8Zpr0arKVa2tYAEN7/H2qmUi1ez1/XgjhpEU6Xin2gIyVE6Dn+kKpi9MUSptpHHePJ0ocspJnaVcgCPJ8/So5njjxQiu8m0BfVtAbWykWrnKK16vePWakQ7vd0PxvvTSS7j77rsVBY3gPVLUWLwmsUkCK8WRZ/6BD3xAKWbmeBPzxzaPl8/etWuXAkLa0kPRqILcJMG3BYQCz5mAfJSh78cbCllr67o6U/hQcyRs5XO80ZCwz/FGZKEPFoKriGpPtTuRy0N5P4aaqVxZXY7Uv7nz5uFvjz2mgDWkqXG9VVRUKOAePdyVK1cqWhtLl1LhEonPPcowu/aYqbj1viVPnaBB/vnXv/6Ff/zjH7j66quVwvYFNHwBjaiz8g6HmiUagKx4e9DZ2SG2BZTCcBKi0HZ4a8QtrSjTs6Uaqy5qwkCBqyJjCiDbgPhkgwUW2rfJiQcF39lWq9kmJzZB0gX8TQl6SU58pm6SYJojSU4uz0cq7kAjjp8T6WtqMeYybgaigIak5PTBnU6omc/V3YlMh7sLZMPvlkCCNgSrzvESEWrKU0l0okxAdemGmrWMdQMTVob7yEc+otYJ2y1yvKw8x1roVKB//OMfFc2PRg6VMSk25N7PmDEDV111lcrr0qOlt8znsMram2++qRDILBFLyuDSpUsVF5+FbyQZ2z7TTRJsHi/HbFsz0v5woZpZKc/WJEGKVmgPPp2zWjeisCF9dVtA2xmkiwyZPpeoVWRAkMZqo5TaZOzasy42AdexLcdrO58Czc3NSXQiF/3GxevjhNo2cSaQbpsxoC1XLmpbZx3bZKYCm7fRJSiH9o4OlBraAurnSvwvLiwbXUKSMQ8KkI5TUJC0NjPhc7roRFT4zKP1l2OaiYy5ibl4bRxT13pKd975rtls42ZpyiEZphLlgZ9xTCwMwnKhV1xxRV/lMr6LDsOZ1oXrAE53TFxPvNfUZtJlmLoOJWlMmnsfu55Y8YwH82c/+1ml+Fz74y9/+YviyNN4oDdKbjiVBWVLhDQrolFxHnXUUYp7ztroLPbCCmqf/OQnlXJm3fXXXntNVV+j98znkXv/xBNPKKrI8ccfr7xeVq2zUb10NMOmeDk+jstGdXGdqRJ/23aO8Occv6ncKveU7v7FQjeJ/dP1nmW0gHOQSHmUFCA/i63lwGfFXpLjpveHrYaEtLdM60l/r2T8Z7rGdZtJm6Fgmjsjj1c6vF3WAQ8HqYBGJgvMtok5Xt2P18bjlZR2umOSOIF6Mm0bRlpg0kLQeSi+s8m4cSleqQiD5PEqI6O93VqkxOXxSgewNCYqBa4peveJHq/eTDYZS2NyyVj34zV5KJKcXAewvpehZn3os9Y1Lx0WtRXQcHmX6cqY80rZmpqTpyLjdIt6UCnERqk4fhZM4fPoxdoUr5YxzxmWKGVOl94OlSOL3LBNJz1eVk+jnPn3CSecoOqI04Pl3FIB8ztY3IUhZOaA2cyD3/3iiy+qAjeUCznWVLx/+9vfVHEYfm4r4iOdI5rHawLauND5LoNLMuApF9IdYxUZx8n68vTiOe/8f9acP+CAA+J0B/cPZUdvjgZN7CUpQI6XsmPUgN/L4jexe5d7mnNra0SRrrEsFdBwKV4pcuYyLvm9tjoDVo/Xg6sGI7hqoELNkbyzLXwkhVB1GJRKYSDAVTaqixRqdh1YLmNAyju/P9sCFiGQ0Ftey1iijth6xbpSDImhZv4+q5eNGzdO1TXnd9qUHOeWipsVrliKlSVG2R+aCoQhYypTes+sjEYFwBAyy7zyc/bBZrvPM888U7X85O++/vrrSvHOnDkTzz//vFLMTz/9tFLSLOnKinVsdEJDYV/P8dKzZ7lXln2lUuXfNF5YDpcyZf6bERkqSIbpOS/8nOAyVpijMUOFzrA+72epWMqExgsjB3PnzlWNU9gEhUqYDWNiFZMHVwG+gIajgIbn8UbsXCpeTyeKAqT4r3ToRLEeL0OX7GQV6/G6crxSQ3Qpx7svNElgCPJb3/oWPvShD6mGGzbvUmMgKAuGk+m1UiHyHVkX/YgjjlC5W3oijFgwlMrcLBUv76HS0OhnerJf+cpXlOfMWuLnnHOOCinTKOBcfelLX8LEiRNVrXYqK4as5Vzs4Ec1U3ESZEYvlmVdmfemYmQpV5bLZVtTGi1s38k5+O1vf4ujjz4aL7/8sioNy1aeNEQoC4LWmC6hTGjUTJ8+XdW3p+HCnDo9X5YB1Wuc+8YrXq94wU0c2xYwMU7vFe++r3hpub/11luq1SDzXZxTWv3ssczDnp/zcGZYjD2TWdqTOS0expqvSGufBzAPIh7IPNT5OUOSjAJQ6fH/+Qx6yzzI+Pu8mFPkwcTwGr0tPpOgH3pYusEGFS4vevhMIbBLE8OcseE4CQwjRSs0UGawF9AgwImGCJUv54ayNHmXseBDypL3UX7MU+pmGjzwdX6Tz6DsOc+cN8qYc6PLmVLeOi+pf4/PZIh22LAyZGUFFCCLStxWDz4q48GveOnB0qtnMxIqWzYjocy5Rhlmp6fKkD8VL9MPlDFrrLPuPKMKBKrR22UEgOkSzhPXNdc8+3PTS2bkgBdlzzUeO49e8XrF6xVvjKXhCjXvqx4vw2Y8OAiioaKkx0PkKsOPtN6pBPk5D55H/vQInnr6KZx88skKxTp//nx1ULOnMJtZ0BujnPhMhjhJXWH+kM/k4UWeKKknPLh5MLHXMoE+kUN8mDrQiKaloiAHlTlHKnqCgJhzowHAUB89Eirf94vipbHCdpKTJk1SXqfO87kUrw3QYkOza1wGDTATj7e7qxt5+fb8o1Ympu+NRBUGv+Kl8iSw6vTTT1drm14/1x6jBTrMzq5rNCZplNCwZMcxhuV/+7vfYc7s2cqIYYiea5xGCT1frvVFixYp45VrmI1AaOxddtllcevYK16veL3ifR8oXlrnDCdSATJfxzAiFSYPHobd2E2J4TJ6Ow8//LDyBKhgabnrXss//OEPlcJlCJMeA71PKm8q0yuvvBLPPfcc+DvMZ5Gfu2LFCtVhiQcWvTjmwvi7BPjQS6Di5t/8jPxRHoDMV5599tkqLGoCLO1vHq8Gw/CAp+wYoqRM6OlTiaXi8fZX8fK57/fKVatWrsJZZ5+lQuqM5LA1Jz155ry5HhlqZij+lFNOUVEEGpKcF/4+Q9Ncq1rxMrys23pyL3EvELjFvcWwNaNAt912WxwQ1CtewNqdyEbTEKHXYaC7JxK6k9oCSvQciX4joZo1lNzG400XKacQbYEsY7cMF6qZMkyXTiTJnwtfW6OJB49GNZu+l6h+htXTGZNG3NICTsxtuqhTmdCJJFSz63s1GpGWN6kjDH8xhEn5UTHykKFSZvtBKlEqXuazqHjpDVOJMtfIMfD3eSCxRaSmXVHZMhfGQ4l/09JnWI2hOnrWL7zwglK+9CgYhmMujShR5iDp4dG74KHH36VSpdLl986bN0/lwbi+EqkYJkWT6c+ojLg/bFSYTJ+fdH84jI7OTiV3Klse2JQBD+vKSoaYI0hbcc8GQ6qzlA0Za1vjLo9XQre6aJYStU13uzKheaU9qxHc6dCJuHaoFLn2Yr17viMpU/R8Ofc0dLg/GKa/9957VfSGP2O+luOlsUg+MNuhkmZFABXvY3SHnjLD+qRhsV85w9MM43Of8B7mghkp0jlezYqxpT2c8x4KWcFtUnciF1MnlOZ64nMlVLNGfyeuU2s/XmkRSRwuiU6kF1E6PR6lw5ufSW0BM5lMCUpOOejuRKbDSYLcuzaxRE2g4rDRiVJRclL7K76HiUPH7+O7mhRvJoeDBm7ZDkqteBN5hLwvlXflc3mwU6kxfDtl8hQ0tzSD7ecIFKFSpvdJS505PB4UTz31lPJ4GRbWYU8Cb3iA0TPWfFfOA8PNPGSosPk3qSdU0AzbEU3LQ4pjZwiZXi97GFPB8HAj9YW9mxmioxL+5je/qQxWHlwm2gnf16Ro9NpzfW5ToC56VLrP1UZD4pg5JwxfUt40hhYuWIhJVZPU/+vLtWel/ZHKnmVFKpMspXCxtGf1OrbtLaktYCoUwHRbFdr68fLd6flrA17veY6FMqDCjT3nE4u3BBNaFWpaEvcEx8pnc7+YdIWLx2tzdFwydtGJXHQ7SS9JzopN8UrnYr9RzRy8nhjTRn6vuhNpxWvqd6nL9NnyRR5cFZnJ/TXHS6+WVjd5mKQ6aFQrrXyum0ceeUQpQHqkDHnysGK4l+AnhpppbBA5y/8n3YW/p3N9zHGRdsKQHEPM9BoYpiM1g0qFaFiG3M4991z1OzrUzNwyv4u/++ijjyqAC5U0PWR6EqZiFpJC4b7kn3QKD/Cw5MFp4iy7jBse1GLPY8OY9O/zcKYCNL3rYA01M2qUY+mNu6/kePW5/V42SSgoKEyirmlF5aqHbUOVc1/TyLVFPblWbQVMJJ0m0RJ9d6LWVrWBveINKQVqW2CZ8Hj3VXAVPV56plSMzPFyg9K7pIdKpDPBH+SOUqES8MS8LI00AkwOPfRQpVjovVIZU4Fq5UYLmfV/WbCBSpzP1AhQUjWI8GQ4j8qUOWbmeEmtIACFHhDDdFOnTlUhPdJWmD9mxSZ+j8kb299yvKaSkVopDFbFuz+AqwaD4vVNEgxJJBfx3TdJiCxdHg461JxOHWGbZUf5U0GajAh+r+/HG5F/qgU06NFRcbIyj6YTkV7EfC//0PskrYK/x9/hn107d+KtNWuUEUNFS0+WSpohUs4NLx1S470sMMA8Fn+fzyZgioqca4Qe74jKSuTm5SkaE3/GXBhzwwceeKBCho4aNUoVIOA9fI6tVvP+zOONjaB5xRuVhqtGt2QM7Nq9GxXl5cZIyHvp8XrF6xWv5/Hu3eP7a6jZlrOOrVyVGKod6MpVzCufddZZ+PSnP6067Ogc2fu5gIZXvHnGNLxXvFGxaF69SVA+1NzZ2e/uRMyd9PaSB5djDLNJpes08MeHmqNeoA81R1rw2ficrqjOQCtegroYgiYXkrVsdX6Lipdeufd4PZ0oNiRsAttpXIb3eCOS2qcUbzAYTOpO5AJUSFaHrgRkoxNJaEQJLS0dlJmiml1jkorw21DNmnb1TjdJ4AIj1cRFJ0qnkLuEbs0U1SwhCiXQEFHNXFPprCfpuS7Fq+kf/W2SINLt9gLY6N1S8ZJ6xKIRLDagD1HJ45XKPqaCjLWtRd0kwdYBKt394RqTlONNt8GFlqOLTkSgmy2PblNyLlSzdH7RkONaMqWP1JrpDSInN8fo8brORd5kA9Xtrq9XoWY7gtvs6OhUWrptAQmcI6bBdHFPm/aVnjsbjUwbpzb0sbSeXPojXZS8RCfS4zV2J+ru7n7H2gJqxHNXFw/KkiSZuyhBfIl0OKaSx6tDiLbF6UKDSqhNTScyURNcHFMXnchG5+JzJR6v9D6ZjCkTHq/rwCKHLpAVMB4OWvHa+vFKa0aipKgxhaG4oIkX5aQVrwlx65o7CV2s76XiJXiL9Ww1x5HriUrQ1J1Iz53tUHLJWDJCdD9eKl4TViETGWtZmJ7Lko5EjNs6ikl71nVW2JDWrgIaNt4lx+KSsbSOJR6va1+6DEhJTiYer17vLpS87QzSClJqFmFTvC6HhDJEwN4uVdpbEo83zNLAYTMHWJK/Ok9DYeuYKEOuY1t3Its6DYRY+DThytTjpWJI7O/Ir+BzJVSty7KLzcnFDjkVj9cWjnF5KBzTe+HxSnJyebw2ObksRslD4WdENRcbCmjo50phXcnjlWQ8UB6va97podA76a/H6/IUtDFAihMrAVHxEoj1Tni86c67Vry2HtrSWszEC0/f442kpSRvzLVnbTxeqWWdy4PPxON1ydj2rq4xuTxeysnmLUuRTVctBxoaJmXEdU79YDJoB9rjzYTtIRm8Eo/Xtj/6zeOlcDyqOaL2Pao5av5QFrZN7ArrSvf6toBRGXs6UUQWsU0SksIVkHP7Lo9Xh0FtFbFsBrw+D/aFWs1aZh7VHJGEjtTaWCSex2vhp0qhZu2N2ak7vjtRbOiJi9CUQ6G1uK/yeFNBNSce4AMNriK3mLzixFCzB1dFjVpfqzkiC49qjjfwfQENg7n5XlWu4oHlUc0e1Ry7JAczqtkrXqhmFczdmww9z+ONj3R4VHPUIPOK1yteX0Bj7xrwoeZo2MqFY2D0xSter3j18cmInVQwx3u83uPtC33Y4uHe440/gG28ZLl+tK9cpbeaz/H6HG+ife9zvFGJuBpc+MpVEVlRTjRwBk2tZhOdKBVKigQl72RbwJL+04kkqLhrTFJ3IokSlCmdSPf2NNEl+GwbrcFFSZGg/GyphnBY9dBMvFxykp4r3avz6LbuRC5qgotiY5MTDTn+IcXGJmMbKjOTeZd4vJnMnb6XlauIamZrQrZg04eDxONNl1bCZ0tUF6LkednWk4tWYqMAuvaWq5sMx2SaWxfrQpp3Gry2PcvvczErbGNSMhYaRkjryfU+muJkCDCK38nnsqgE0cX9bZ+YyZg0gM3G481ExpIspPUkvY/rXaV55WekE9ne1bZnA76ARlhZQzZStpQndPF4XZxAG8XGRXWR2gJKCGLXc10FNGjcUAHawFcS5D5TOpGNxyvJWCzCEAojGLLPe7p0IknGzGkyxDxjxgzVi1aDq1ifmR2ReEDqXtYmhSNRd1yej0TZctGJXPtD6hUrzbuU45U42ErGjoITLjoR6Y4mGWcS1o3ImAUpklWkVEAjFdS/VNFPMlB0W0DTu2ZSpMRFJ3qvCmjwfLLxwiU6qquARiCQpfpEJ0dfQgqrwJafJidIyynR8PF0IhKrhQNYyl16OlF87sXTiWSuOg0mdiCit8vORU8++aTqzcv+v1TGn/vc55TH5UtGRqh6HtUc2V+ZGAM+1DxIQ81hmo8Jl8sC8zzeiMC84vWK12bl2pCX//rXv/CZz3xGFRGgFUxPhh4ve/3OmjVLgfW84vWKN3ZdecUbf854VLMh6eDBVRGh6CpdHlwVyX1JVZXeTwU0GPq76KKL8PDDDyvDjVEC/j+bJRCw6BVv1Kj1Hq/3eBNVjO9OlGdvYWUrGcnD1162y3cn0ovMRS/w/XgjktLrSTJuBlt3Iq7/5cuXq4b3zPfOnDkTDz74IBYsWKDCzF7xesWbqGy8x+s93r6cg6cT+VBz7AHhebzxkQ6pjjBl9bWvfQ0PPfQQLrnkElxxxRWq+ItXvPEHrPd4vce733q8vb29/epOpHOb0sFCeoKtjZuLmmCjKUnFwBnW1ZWr0u10YvteV5MEiU7kQjVTlja6hISyI/KVn5uK2ruKpktoxCA7gyBs7AXL5/Jd+Z0mWbmqREnoVokmw3fls4lWNOVTXevJhrR2Ibz5rvSkdZMEbpLuIEBgY1Y4qIYirRkbSl6jdZ944glceeWVuPPOO7Fw4UL1PN0BytSdSO87k3ffEwJ6Q0HkBoCc7GxDAijy7KysbCPidqDaArpoGro7kUlW0nriC8rrmO+aZaTQKDpRe7uiO/YX1SzRyPT82dYEz6e8PLYFzDWuY2m/S2h2F2WL3YlIdekvSj4VGafTnYjPldoCumTcSzR7jnmNk05E9oNpXJmyPaSueVKTBJv+CLS0tBgVr0R1cXXS0LxL00HpquqTDjWBY+XhQS88UfHqzZ/uAeyiE9HISIfq4qLuSDlRLlx+buJdprLApB7BNoXC51LG/M7Eha2V2EB0J+Ja4hzYWtZJxo1ESXHlnfmuVAhcU72hMJ6rbsTTdS0oygngo9PLMKW8CFkGJedS6HpMVOxr1qzB7Nmz+zq18DOuJ5uMTdSEuqYO/GlNPba39eCwMcU4adpw5BlaHUoGpAZ68V0TaQ+ZhvOlc4QyoKdvU7y2+uqpyFhSvOTBs8tWojLic3UO0cR7TcWolXoe82zqL9VFMrh0ukWSMZWCrROTFKVyydjlkHD/0Pkyce8lGTtpZAL1U9VyYPc0w750nYs22o82qCSqJI0qqRufyVg2tgV0DZKCSyfU7AIcuXiKvN+0STleXUDDNC6pSlQqC8ymUDRR3NaP1zWZNiWn5WSrsqJ5vCYvkAvXJieX/CVjgJ9xgdl4vJmGmm15WlflKu3xmg5Klxcu8fp0wYPs3Dz8be1O/N+Lm9HQ2aMOksPGDsUlR1Rh5JACo/fiMi5jN3HsuKVQs1YKlJNWGC1dvbhlWTUe37gbwVAYQ/Jz8Nl5Y/HhA0egOC++qbq0t6R+vC7FK827ay3qggemdS7RiaT9oT0115418Xj5XM3Y6G93oujeyjVGFejd08gw1Vx2yVjK8Yzf3CMAACAASURBVLoigRKP19WdyOVg2aKeEtuD8yO1BXSd1dKYWCyETpBpXFyLlJVUucpWD1s6RxglbGqy83j1vks08jyP1/N4+5SHdFDys/dbdyJk5eCpmibcR6Xb0Q2eqAwPlefn4IcnHYBZo4akrXht4fr+gKvqmjrxjb+/BXq9WRxbOKwU7jkLxuGjB41EfkxILlPFaztkpcPbFVXwTRIiy8cFpvTgqvjcv6cTGbJJnk4UEYrLu5QsO9dG9Kjm6IGlc2PvpMfLp9fvacbjmxrx0OpdaOjsBhCtWnP4uKH45pFVGFFqLtmZisf7Tijeps5e3PDsBjxT08AKon3rbmhBLs6cMxqnzRyFkvyI5+sVb0Q+vh9v9NB2ebxSZFOi9fC5NCBN1Zz47TqdYlAfKq1kSzHo+fOK1yte351o7xrINNRsq3rlCjUPhOLt6AnhgZfr8Ls3tqOjJ6g8XeWZhMOYPKwQ3z6qCgdWliA7Jz6cG2twSeBD28HSX1Qzle22lk5c/9wGvLi5qW+cYYRRkJ2NT80dg/+ZMwZFedle8casUw2INOV4NfCnv6HmqHFjDzUTqKfBerFHp8vQ9h6v93iVBHzlqqj1TMuOqEETiEDK8XqPN34zDRbFy7zpr1/fit//ZzvaqHT3XoxgUNmed8hEHFRZhOysSNWpxCuV/OM7pXiVogewsb4dtz9fjZe3NiGkPV+EUZidjdNnj8Zn549FDkJqvCaFkkqO14eaI8hwXhKaNyfHK17v8UajTzYgmRFc5aIBuMIMtgIaqQCZbDQMF+BL6k4kbZhUxuQquG7qTKGfKyGIJaS1FK5kqIbPt9GJJES0i4ZhO1gUgI3gKqIGDQrHBWSyIS/5fRJCkh4IN7KNnpZJAf9YOdGnbe8J4aHXtuLXr29BdzAG7B8GqsoLcfGSKswbNUTV9nYdwJLHawP+aACbjRIhhYu3NHXgR0s34cWtzUoZ7936KMzJxhmzR+MTM0dgaFG+Kbqn0Oq8TOvJZUhIY3KhgKUcr7Se6On39vYYgTKu9aToRG1tCoVqMkK43kzobhXxCIXUvkuHRiY1SUhFxrb15KLf7K6vR0V5ufFdpSiV9uAlAJULXMWmH6ZLAldJqGY9tzYdIa0nDWCzgauk81aiO/K5Ep3Itj8CpraA0mS6lDIPSd1hxeQNaBSq7TOJL8UTJctAleAzNY83EdWsx5tu6zI+29ayTocGbahm3iu+j4XH60IqcuHaFC9/zj/ptlPjvJju1RxTU1tAl4xdh4MkY614bZQtScYuOlHsIdrc2YtfvLoV/1i/e6+nGw0vz6goxvmHTsCBlcXK03Xtj3AobFyn+vB2ydjE49UylmgNNXs6cNeqLXhpWzPIyNbKNy87Gx+cWo6z5o/FsMJkHqnk8brmNhUZm/YAn6t5vOly76W9ZduzPAg11cUUalb0NPKdLZ1obHPHn0sHtEbJm5R6KjJ2nSOm9+VzyeOlArTt6axAlvFdMxmTljHPRdM5L1EAUzkrTO/C76EC5PlkW082o0l6V9e+47twHZuMDOm5A0InkhRvxONKDsfQig0G7W21JMQtG2O3tragoKDQSFCXw7ru7kS2EF1PD63nViNPzgWucnnhNguMcursTM/j1Z6CLRwm04lo3NjbAmaS403F4y0pIScwfhtz3ul92lqxubxw7fG2dAXxs5fr8Mc3tiOxnMzkskKcf1gVFo6hhxT5/nTnTlvs9lAzKVstxiYJnLuenm4VbbAdolxzW1t7ceuKTXhxSzTszO/NCQDHTRmOLy+egBHF8eVeo4q3yCDjSJlX25pJ1+Pl+5CGUVxM+kdyyH7g6ESRPTtkyNCkNm+UX/p0Il3y1hxqltpMSt4Y5y59OhFQX78b5eUVxpZ2LnBVunSi7u4eJWOzMmIBjU7k5xcYaVcynSiiIySP17aeXHQim17Se9YepZLoRPYyyJ5O5OlEfdrs/Ugn6ggC966qxV/f3oVuVbkrchFINb2iGJceORkzCKSK8YC4SZUyGwQ5Xj1ePXcEfG3e04Gbl23Cyi17EIhBY2cHgBOnVuJrh07CsMKosvM53r2xgXC4r6qSB1dFionY6jW40o0e1RxhtlhzvL4toNvjtQF/JKK4y+P14Kqo9yp5ywOJam5s68JDq7fjkbd2xOd0AUwdlo/zDp2EhePK4pSutoAHq+KlMcAcb01jO+55oQ7LahtVcQ195QQC+MDU4fjiovEYUZKv1LJXvF7xmkLCXvFGpJJpAQ1TYQ7v8XqP933p8RK9fPfz1Xhs3W70xCgmGkxVw4pwwcEjMWdsWV85x9iDaTB7vLFeeGNHD258biOe2lSvCmzoKwvAkglluHDJJIwqLfCKd69gOPeeThQ1Qrzi9Yq3rwWcLXFuA1e58mo6T2jLG0jemPd4U/NaXRWM3m2Pd09HD37x8mY8unYnOntjYEh7KUNfPWQippQGUJCXt08rXs7O5qZO3L2qBs/WNCAmkg4q3yMnleP8wyahNCtStMBUDzuV/KMt7+yad1+5am9aIxRSXpVUhtdWztBFcdq1e7dCNdsaQtjmTodJfajZe7zWXr4Sqtkr3qhydNEW3g853rbuIO57sQ6PvLk9ztOllCYNK8DFSyZj/ughChzCw471dROvfcXj1eNuaO9RFa4Ydo6aGZFOS4dPLMOX5ozAmCEFqsB84uUVb1QiLiUXAZp5Hq/n8cZHDYyhZhOdiLdpmkbSTnR8xsXHcA3pH/29V/pOiSbD79E8Xhvghb9jAkzw56R/mOgDWg42aoKm2Jg6U7hkyPeRxqQh9yYZajqRqTuRS04uGdvGxOdSxraWdRIlKBUZ2ygC3MRcU7a2gDbqVOLccQ6pgH72ylb8e8NudMR4ugRSHVBehAsPm4gZeylD5Hpyw5gsftfcufaObT1pA5J7x4ZctnFIXfO+tbkT9764Bc9S+cZQlBmAPmx0Mc5bPB7jKkr6Sk/qded6bigYslKnXHIiDSOd9aRpGlILUdt6cu1Ziefueh9p3iNtAfOs68m1jm3v4xoT6US20o0S/cl1fknvqrnSrG+gxxd7jg2UjKU2k5msGdd+1nQi07va7g309PQktQV0bTZJKbgUr3SvSylIi1NSvC6l4BKsxOPlAW3iq7kWbiYyHijFK8kpE8XreldJ/lS8/JOuIafnbk9HL+55sQ7/XL8bsbUxOE/TyovwtUMnYN6oUoUCZslFSfG61pNrjaereF0Hluvw3t3Rix+vqlMtDnvD4T68s1K+44fi64dOxNgh+UnKV3of6TPXvLv6p9rkxDlzydimqLRSsO1Zl4zTNZZdipdrymZIuGQsjSkTxZupjG2KV0JEuwwJaUy625XN+UpXxi79wO+lcWNSvLbx9htc5Yr9D1STBImHRcGk2xaQOV5yw6QqLB7VHDno9tXuRGwmcNuKajy5iXnOqJ1JT3daRREuO3JKEmWI62l/CTXzYNZ824aOHjz4yhb84c3tijKlmz8owNXEMly0pAojS6IVrnSo2cZlT7c7Eb+aOd7S0hIjLUvi8br2rIRCfT81SeBZrStXDZYcL8dEx8EUreM6ldgeeh37JgmGOOhAKV4p1+RzvNGJkOT0fszx7mjrxi9e2ao8XTa0j4ZQgekVRYoytGDMkCTK0P6qeOlFEu1McNlf1uxEp6o/HEE8M+d7xIQyxfNlzpdAaJ/jje4tn+ONysLzeCOySKUfr6cTZWcnmQoe1Rx/sFA5m0I1+6LHW9PYhpue24RXdrTE5TX5jgRSXXpEFeaMGRZHtdHScCleW/Upl3EjWfS6BCnrUpvCjpJ3KQHjYj1ejXNo7wni3lV1+P0b22JqO0caHM0dWYrLjpqCCcMKveKNOTG84vWKN1GBeMXb2qoQqCYwTKYlI32oed8LNa+vb8Odz9fgpZiOPQrkFQ5j5ogSfGXxBMyqLEZ+XnLtYv5eouLt7m1DfftGtHbvAMLZKC+sQnnxBAQCDNJGL5fi7eruRFNXHVq6tyAcDmJY4USUFU1EdiBXhdmYC0xV8bZ116O+bRO6Q83ID5Sp55QUlBviUOZ+vPR8f/nqFvzxrR2KVqWZvvx70dihKuzMnG8oGLSmYtINNXOQnk4UmSpGFTydKCILH2oORdqImS7fFjAiFc/jjbeAbQaKi8/5TvJ4mTvc2tKJHz23Eau2NCUt34lDC1UZyNkji5UStq1xrXizc0NYu/PveHHLfdjV/iZ6etsVOr4otxLThv8XFo3/MoYXT+0rzWhTvKFwL7a3/Aerau/FxoZ/oLO3VYG4CnOGoKr8eBw64TwML5yBtrYOp+LtDDbhP9v+hNe2/RwN7RsQDHcjOysPI0pmYeHYL2F65YkoyCmNe3dbTeX27qDi+f75rR0KcKXDzoSYzRs5BN84ogrjhuR5xeuo0R2NKng6kacTRbaexkMZQ80hxloTLh6UvMnad7K7B7kWT4EbnG3rTBQblzcgIQqlw1sjbtPxeHlvpAi82ciQgBpSdyJtvUltAfk7Jhm75JRuW0DXu0qhNA1gI/3DJCtXkwRpPaXSJCGVtoBUiBsa2lWd4te3N8eFlwkkmjG8WHlxMytLFHaZ72RXvK3oDbTi+c234rUdP0dXT/3e7rd6swSAQDbGDTkCH5xxC0aXzu7bbKb19OaOP+Px9d/Fns71CIcjtZ77nhTIQXnhAThhyvUYU3A4ikuKraHmjtBuPLHhe1i78w/oDjYnjCkL+TnlWDD2iziq6hIU5ES7w0gy3tXUiode3YK/rN+DrmCkGxcvymjB6CG48NAJmDSciO/kK5N5l1CocrH8sPKMpNaLrlaePJ9MgCOpLWAqoWbbmKS2gK48upRPdZ3VBFeVW7oTSXPnOoOkMfEzvq+NxiS1BZTOW32myk0Siq3diTh/6bQFdDVbSastYFdXl5FOpDZeYjuYvftOglcrOhH7pxaXKIvepNStnDSBTyvBzPkZ6R9UvP3l8brg6+pdGU40nDp9nMDSIcbP+Wwrd9jB45VknAmdKN0xaQCbjXepnkshGeSUiYz76ETFJU4Zb27uxJ0r67ByCxVS/MUuQ+ctGq+AVGwf7xoTQ76v7vw5lm25Gr2hVqPSiXxDNqrKTsIpB9yJ0vzRqjN9KBxpB6mvTY3P4h/rLkBjx9oERRkdI3fKqOJD8IEJd2Lc8JlGpcA5eLb6ejy/5XqEQl0GNRj5UW72EBxbdR0WjPkcsgIRXIM071xPbd29eGRdM/64ZieY/+0zCgAsGFWq2iIy56teMObS65TPT6RruGScLo/XJOPEMbm49zTkbI0Q2BYwnXUsyViip6XyPunyeBsbG0Faj+ldpbON8nTRaNKlbGVCj5LG5OLxcn5sY5aeK61j7ZAMGzqsX/rOSCeSgBqp5CO4kU0er3SvtrBstAUXnai5pQVFhWwLGN/yTHt5NjBMKtamz/HuzfG2tCg+baJxo+fuvQw11zZ14ofPbMDqHS1xqoFjm1JehG8dFU8Zcs177a7X8MhbZ6Oh6zWrgtMfZGUV4EMz7sX8sZ9SCi7WG+vp7cAf3/gC3tz5G+VBSlcAuTh8wndx9JRLkJdDJRd/bWtag9+t/gQaOt4Un8NvGV26GGfMfRhlhRPV70rt+3SThEBuHn63eht++soW9MSQnVXYedRQXHrUZIwfVhinkyjHXbt24fe//z2OP/54zJgxo29ses+a24CG+3K8Ji+E4+WeNRnS+hzJzc2ztpaztXHT6SHyeE39eKVazVLFMpeMqRR4NpkqoVFO/COVjJTaQSrzzwAc5Vp00Yl4n+1eV61miWJGw5VtARMVPsekPV6TMZBJpINGBs8n03qSZCyFhClbuUlCUPUBNnn3YqjZdyfy3Yn0SSkZXIMZ1dwTzsKPV9bgz2t2JBV/qCzKxTeWTFalEWNb+4mpC4Tx6uZf4bG3v47eYHKeOFHrhZGFRePOw0nTr0dOVl6c4t3Zuga/evVUNHasE7zmyBMZIZo49Hh8Yu4DEe855uImXlV7H/694TL0qhCzfOXnDMfHZj+A6cNPSlnxklvZ2NmrDJjltY3xaGeEcVxVBS49agpK8nOUgbFu3Tr89re/VUp39uzZuPPOO+OKybhy+x5cFZnDVJwZX6s5IispxO1SvJSzLdQsGRm+O5ElRq/DoOnkeD2dKHqA76uKt7qpG1c9+TZq9nTGa6NwGMdMrlDUmCH58Tl8SSkQCLWs+mY8teEK8N/uK4AZlR/HRw66BwU5Q+IU74bd/8LvVn8Onb07nY+hpzokbzLOWvRPVBRNjvv9UCiIJ9ZfgxV1P0IolPCehidnZxXjwwfegzmjP6m8jlQ8XlXUIBDAX97agTtWVKM9pqwmv2J0ST6uP/EAFPU044EHHsDPf/5zbNiwQXmlv/zVr3DC8cfHeTiuUDM97fz8fKvHxe+UUjXpfMZ514es6f7ImANGT9r1PrZQM+XKUDPflX8SL694oxLxqGaPau6zsHyoeXDTiXa29+KqJ9bjzV2tCQdmGHNGDsEVx05VBSFiLxmsF8LKurvwr3WXirlU/Txmt2eNPBMfmvlj5GeXxCne6sZl+M1rn0BHz44UFG8YZQUH4XMH/wVlhZPixxsO4ZkN1+G5musQCnU4n5WdVYpTZ/4fZo/+mFIkqSpeNlEgxehnL21Gd0K7xEllxbhwVjFuvuZyPProoypkSGXDsO1JJ52UVDqVn1GNxbYkjB24i4oklYx05eQkfIoNZMOxvdP5xx07duDyyy/H9OnTVZjZK14o8K2vXKXNuJgd4QoReTpRNOzBXIYJvODKWcvcYpnXR0+Bzzc1DpByl4n5x8TTe1/1eLOyc/DIW9tx96o6kB4TG9PNyQrgf+aMwWfnj0VRbrSAimuNv739CTzy1hfQ3lvrVHJADo6a9F0cM/VyBTCLzfG2dG3Hr179GLY0P69a8UkXldQBwz+OUw+6C0V5FUm/+sa2x/CXNV9IyXsuyR+PM+b8FuOHLe4zIG05OZ3jLSgsxH92tOC6pzegtpnKPYqUoxw/N38cPjmrEltqa/GrX/0KDz/8MDZu3KgO0Z/97GdYsmRJ0pglwBEPYOY1bTlGm/Lkl7hAgpI3zPPLpAD5XEmhp/O9P/3pT3HIIYdg/vz5Sk5e8XrFqyI5Psfrc7z6tNxXFS8VCrsN/emN7fjZy5vjOg/x3Ypys/Dxg8bgU/PGoCQvonxdirexqR5Pbrocq3fdTz9IVJhFuWNw+tzfYFLZ4UngqlA4iBU1d+LJDZcjGGoXn5ObNRQnVN2GhRM/iZzs5MIere178Ps3PoVNe/4h5otJnZoz6rM45cDbUJAboRSl4vGu3dOjalqz+Ei0hQKQkwWcvWA8Pj5rtJKfBo1U19Tg0T//Gffddx8WLVqEu+++O66ZhUvG6eZ4XQbkYKrVfOutt2LevHnqj1e8keXvPV4g0N7e3n8eb0+PyKEjMtDWxs3FmbVxtOTQYBg6X2Qrd0gL2AQl16hnO483iOzsLGOuiRuci4hIOhN6T4etbLQFaUy9veScmbnFlC/lYQrXuOQkyd/F421niKigwOihuLhulLONFy5xTF1tAWNl3NETxH0vbcGjbzck0EHCyMvOwv/MHo0zZlYiLzvgVLxcT03d1Xim5irUtjyOEHqMyi4vuxyHjL0Ui8aeg9zsIqWUEmXc3l2PZ6p/gP/sflApXxMfFsjDzIpPY8noyzFsyHDjWu3pCWJD47/wRPVlaOneZERJU2FWFMzFyVNvwbhhB/cV9pBk3NnZgbcbOnH3q7uwLkHp5mUF8JHp5Thz7hiU7jVaYq0HrsWamho8/fTTOPnkkzFhwoS+j9VaZJESA+KWvyR1FJPWUyaKV9qzHBPXW7pAJlMdAgLO5syZgwULFljbAroMFMlo4r3S3qJxY+MsS891ybiHPGqh9gH3j61dqkaOm6zQTHi8rg51lJWNbirxwrmfbWe1xhfZ3tUm44CJx+uaTAlZphZ2ZydKDf143Uqu11rQwKVQGPJlDsUGJeck20JasjEgK15pgUmHHfuY8gS2GQPSQmBujfIosjQudyk5m5HhUrwEiFDZm+7PRPHyeykHk4HCTcpnS4ZcbLGEXW3duGNlHZ6r2ZPExSzIycIXF4zBh2eMQHYgks+zyYLvmpOTjWBWK56rvg4vbbsfwVCXuo9XMBxS1auOm/J9zBn5P8gOREEzyQdwAJ3BPXhl28+wovYmtHXvRPbeUpPBMI2CIThs4kWYP+IchLsLrT1qVceebKC2aRkeX/9t7Gh/BVl71ThzswFkqYIeJ0y7FmOKF8SVs5TW4qtbm/CjZTXY0tYTdxYSePj5hWPxsRkVKM6Pp+npX9QHi8rnJhhXrnNE4l26FK/LgLStJz6Xc8uD0rbeGP628V77u7fuuOMOpXjnL1igjNZ0Cji4CmhwLmz8VLYFLBtWZuw3LhkZOkoiFSmx7R2Ol+eirfWiVEBDUnIck8m40WtRWk8u/eFSvLb1xOfye5luNF22uRs0oWZXOEzKXWaCanYZA1J1F18yMrrUXBWMbNamnvfs7BxksT1OwsVNymebogp6TcTmLiMlIztw54paPFtdH6n633eFMawgD19eNB4nTq1QStRVMpLGXEdPEzY3vYDaPcuwp3MDAuFcDC86EFOGH4eRJTORkx0FbkmeQm+oC1v2vILqxmfR2Pk2guFelBeyGcGRGD90EbKQn1KtZgRCqG/fhE31z2BH68vo7G1CYc5wjCpdiGnDj0Npwei+whmJCjJWoVBWb+5owS0rqrFmF0tYRi8aKWfMGo3TZ49CcU5gUJWMdHljPtQcncddu3ejorzcqJglcJtOJ9i4xZIx4EtGRuTveby9vcqCNXm8nk4U3aT7co430UOpaWzHTUs34uVtzXH5ShJ9hxXk4kuLxuGkqcNRkGKTBEqJFalC4R6EgmFkBXLSClupIgws8BUIqnFlB3L6PFN+1p8mCWT+hkK9SoEjTN8322pIJIa8qGT7gFRN7fEyQhhnLxiHz8wfi9xAQEUGbJ6PC5ksGVzp5nj3pX68Pseb7Af6HK8HV8Er3v1T8dKb21TfgrtfqMOKuiYwFBvr+ZYX5Kkw6gdnjFT538TL1RaQv59OvkhCs/df8aY2d4nRJMpm9fZm3LqiGmt3t8ahl/OzA/jMvHH42KxRivssRZr4XK9446M+iVW6vOL1itf34/X9eMXi8vuTx6uUTW8vtrd24yer6vBcdUOS8h2aT893PP77gBHITVC++6vipbv9+o5m1ad4Y2M8ejk3O4BPzo6nXnnFG2/c8P+szWN6euAVb8QYY+TG1iTBe7ze4/Ueb4xBOpgVL8FViSFPU4431r5W3mVWFrY1d+H2FdVYXrcnoVpyGMOL8nDh4VU4alJ5XEnJ/VHxZufkqPDyLUs3YV1DvNJlvps83TPmRClXKrweCvlQ895FJYEPo1GF+LaA3uP1Hq/R4w0GY6qh75WRhEZ0ARto7UhNEmz5Ioa/gsFeZU3aEIW2fJEEruJzWW7PZqm6Qs2pADWI3kuHTmQfk/2wo/x1xSAbqlmCzbsoTrYx8T5asaa2gBqgZitM70K3SjImqplriuCqpUuX4qWXXlK0lWnTpinAiOt9dPWjbS1d+MmqWjxd3RAXWmWetLI4H+ctnoBjJ5erKkt8H74rgSWmggfSAewC60n3ahnzXRO9Kr3vbFXUJKOJc0oZr23oxC3LqrG2Pj68nJsFnH7QKJw5b6y1tKZtX7pAdTYUMH/O4vKmpht6vBIug2eFLe8sIWN1ON9EsZHAMBxTKvNOkGAsnu+2227D3LlzsWD+AuQX5Ks1lXhWuIybdOlEfJ/6hoYBaQsooYu5X4kctxUW0gWY0qFZSmh2YgZ4PpnWhSRjvbekBj02OlEwSFRzk2oIkXhJzw10d3cb2wLyJhtEXR92ybZMhKjPw5IbynRRAOm2ZpLG5IKSp1t+juO13euiJkjvqukX6cgik7aArjFxzmw1bOkF2toCSnLK5F372gKWlGDz5s04++yzsWXLFpx55pn4/Oc/j7FjxyqvzLbW9Nzx7+2tXbhjRS2WJXi+HF9lUZ5qfXfkpDJF0JHauEnvqr1EaV5t60kbkNw7pvulfSfJmN/32tYm3Li8Bpubu2K8/jB6Q2F8blYlTp81EkOLi4yHB8dlC6+65t22nvhzrXjNoEf7vktFxtLZRaPKRnVxyVh6n8S9RbnffvvtSvGychWNOBNK2LU/MhkT6US2kK9E48tExvpctMlYUtqURX9kHLtgpTaTmchYWuOaTkTFq8ceOyabjPtNJ5Jg5vozl8drsiwo795e5khoMSbTSvgCfEmbNaPJ08ltASOeNC9zizEWPLBbzwNJJ7KPyV4ykjJmjoR/m7itWk5mGUda1tlkrBC3MXKivGlFUgnx35xXHh6mQ82ljDheqYyf7TPKn+Mif5h/P/TQQ7jhhhuU98GOOB/5yEfUH9bCTQzpJM4d19i21k7c92Id/r1+d0InozBGFufjK4dMxDFV5ehsb1PPM7Vx03IyeYEu61lxcbOyrEVIbKhmvbds7eES505vfhaweHNnK25etglv7yZlSO8t1oXOxafnjsWxE0pQmp+jZGzzxqQWcFLLOo7bBkLTqGZbW0CbnDSq2TamVPas1BaQZ4hpjdtkTFlH5z051KwVL+Vr83g1j9S0D9It6sEx7SadqKLCSifKpC2ghHR/P7UF5DqmjE0er45WJK6nfitePtzXao6IeH/n8VLhXnPNNSrEywNDCutKlmoqVqzkBcaGzuklvfnmm8oI4DWktBQfOfVUXHvttRg/fnzc2reFsOvbe/CTlTX457pdSYCr4UX5uOCwiVhQmYcCS//UVA5gqfCALYQ6EKjm17c349qnN2JLczxlqCA7C18/bCI+NGMkujojTRckxevpRHKoWZ8HHlzlwVX6EJJSF17xhnytZr1QEvOEtFpvvPFGnHjiiZg5c6by9ECAOQAAIABJREFUfJlXNoUGpbAVF6AUrpRCabElI/l7Dz74IK644gqVzjj22GPx6U9/Wv09evToJKvepngZzNrZ0oX/e7EWj2+oT+rCM6a0AGfNHo7jpo5AUWF8VyPKal9QvPTu/7OjGbcuj1CGtKfLuaCn+5XFE3D81OEozM1WVYa84o14rbqcoS3qRjl5VLPcF9ejmiMnqle8voBG30JwlUaLDQ1S8d5000049bTTMOugg6zgKm3t24A/VLpSIYVIaNBduaqurg5f/epXlaI455zP48QTP6BADVLoXAJ8tXR24zdv7MSvX9+Gbpbw7LvCqCjMxdcOnYTjpgwHO/PEXoNd8SqeLilDSzdhQwJ6eUheNs5dNAEfnDGij7/sFW/0oPSKN15p+MpVEUPbdo4QXNXUtMeYR/eK1yved0TxtrS2oqS42Jizc6Fb3Yo325iHii0ZuXr1alWQf/HixRg+fLjKR2qUo8lDkTaMNgY6ggH86rUteHh1svIdWVKgws5HTIynGg1mxUvK0OptzbhpWbzS5SHAzkLnHzoJH5hWiXy2HNp7ecXrFW+cZRnjrXnFO0gU774KrkqXmpAKUOPd7Mc7kOCqxFAzAWs333wzTj31VMyaNQtUvMVFRUkANw0syczjdSteTRPRoT4Xj9dlDESUdi46envx29e34Zevb0V7T7znS6rRVw+ZiOMnV/TxfFNRvJIX7szxlpQiOyfaOzg2bCUBmSiPNfUduHUvZSi2tV95QQ7OXjgO/zV9hAovx15MIfBiGuHdBFcxX2+jf0ggNIKrCMSUlIJtLfK5uklCIuAllVCzBBaLABdlHu9AgKukMe2urxdrNacLrnLhfNIFV0nzrs8ZG96gsbFRsWlsjXK4301rhvtGArfJHm9QAVD7Da7q6OhIohMlWj8ma0hCoXJSTIhbfYDY7nV9r/XzMNDaFulOZCt6n+6zJTQuJ7KN7a9KS42Pl+51jUe6l+Ewfm5C3Lpk3J8x0RO65ZZbFGpYKd6WFmuOtz/PHYzrqScUxp/f2oWfv7Ytrp8v32tEcR4uPGwiDh0bned0UdrSvPMAoFLg3rF1rbLtHRIB1uxqw/XLalHb1BGHXs4OBHDRoRNw0tQKGPpQ9AHVBno9Jb67i/4hnRPprje1Z9vaUFpaaqXNvVPnE+eQdCJ2J1q4cKFSCDZjYSDWE+XduGcPyiydc1wydH1uW8tUVLo7kQZWxv5uus91nZlSW8B38lxMfJfmlhYMGzrUSCeyvWsgRPMx4ZJycpLHy8dIBTQki4WfBXuDyLH0oHWNiS/PtlumhZ0K8d3ej9ce39fW87tZQIMy1nSidAtoSG0BbTne2XsVr6mABseUSlhXaiNm81B0AQ0elCaFLSGtOSZ7pCM579zVG8If3tiOB17ZjNbuSNtGvWHHDcnHBYdX4dDxZQgF7c91WeXSmPguPDz4riYAj82Dj9RebsJtK2rwdlw/3TDKC/PwxYPH4bhJwyKt/QxUPR1qtq0njsvmZUhRBR1BSSwqoedR0YmKS4x73jV30piktaiZCDY6kau4A8fen77SunIVebw0bEwFWQaqgAbHSjoRebwmQ06aO9c6lop68DOuYxt/WGoLKM2dPmds54hUQEOio6p37elFrqVhisvjZeTG9q42OXlUs0c19+kzE6o5Flz1Xud4+xsGTccY6AqG8Kc3tuOnL9WhLSbszM05bkghLllShXmji0EvkvlUkzEgAdgkhZIOnYhWMxseXPv0BmxuJi0oCgQjZej8wybilBkjlbFgC3/7HG/UwPLgqqgsqDR8jneQ5Hi1V2ubkExKRkoFNCSrUFf8oUVpGpdsPXs6kVYeXvFGJNHeE8TvX9+CB1/divbecFSXhcOYMLQQXz90PA4ZN+w9V7xUum9sb8EtyzcZKUPnLp6AD+ylDEkeile8XvGaDEiveCNS8ahmS8jLK97otpEMFFf4yCveqBwbmprx17cb8NAbO9HaFYxGaMNhzB5Rgm8dPQWTyovfU493e0sXrn5yneo2FOvpkjL0pUUT8N8xlCGveCNTlSm4Sgo1R2TsmyR4Hm981MC3BfRtAfvVFjCRx/t+CDVrTcocVSiQjaVb2nDXymo0dvT0gXFIxLnsqCmqnWBiytRl3LyToealNQ246ol16OyNILH53cW52Tj/sEk4MYEy5BWvV7yJVqLUS9mF5eF6cpWM9G0Bw8rQ84rXK16vePeePq6iHrotYE5ePv66difuf6EO9Z3dQDiA4twsXHnsVBxRVRGTUY1aue9Wjpct/i775xplFDDszIpbX1w0HsdUVaAghqerPT2f4/Ueb6zy9Yo3tXz2gISae3uZxIq/eCjR4jGh9xT6WPEfk4ElOv9ra5LAe0PBUBJHUVvr0nNdY9JQchuHy9bWSY1J6L6iuaM2VCCpCemgmvmdvGy0EUkWLlSzNHf9eVd6vIl0onRRzbYxuXIoqaCaJZS2bd6l9cQx8d25lohCDYbCeGVrM368qhZbW7rw6dmj8LFZI1FkQEG69oe0nvgZv9fUFtAkp66eIP781k78cvU2BBDAhYdNwFFVkdaGiZdU0pM5XsqJtZoTL9f78FCSWnnyfq5xE0VHN0kwzZ8kJz0m2/emu2ddBoras2EgKztafCRWXiYZJ3YnMqGapXNRz7skY9s5wp/X19crxG1/C8xkMu8aOW5qlad1hA0jJDFQtCzSQTW7WDG281brB9s5wvtIi7O1BbSxLgI9PT39bwvYGzQqTy1U3T/VtIldB78Nqk8B6E1sei4PLIKrbN2LbEX4+SwaA/3ZTPr7eehoxZt0Yu3t3ym1U5MUryQnV1vAdGWc2GGI7xZXQENoCygd7NLcUQbSvbFtAdORsW3eXWOKVbx8Brv8NHX2gqjnoXnZyMsOpNU2U8mY/xkItVrxkk5k646TeACzrd+ezl4gFMbQgmzk5WTHtP2LSkwfACYZ0pDjZVO8rvVkU6wuGbvaAkoKRXof7mfK16ZsdAEN2+e2gz0cCoP/pdoulc/v68e7YIHYFtAl43TORZfiJX2T556NtyzJWPpMo/NZWMh0SWHqxDPIZEDaZKELsti6YaUrY2lM/EzTibjeUx2vpxN5OlHfWvHgqui20aFmqS2gbYO/W6HmRG8rloOdeAD4HG9EIh5cFV0ZPtQckYUrnz0goeawQU278l+ucmGufrwmr9TVj9fTiaIbhqFBBaQpTkbVelRzVE7p8Hj13V7xRiThKu4gHd6uc0QKNbtKRko9tF0FNDIpGUmZ+O5EvjuRPid8k4S9oWbP4w2p0K3ZuGGN214rGtF7vN7jtRUp8f14fT/e2CiKRzVHpOEVr1e8Tg/FRXXxitcrXq94u1Qu1vfjjVBhfOUqX0DD6sn5AhpRheFDzT7UbAO0eDqRz/HGrg2f4x2EOV6J/iHleGklESU5ZMiQpP3vyhdF2mqZaUpSvkgrXqIybXQiW24mFdh8VhZb1iVTNDRsPp22gC66hBQSpnz5zrYcLz8zA38YGrHLOBHKrwtonHbaaX3didKlE9nGxHmRKCmx/XgTvRDtwUst+GwNrF35RynHK1EeUllPtsYNLjqRBJBKhYZho6RITRJc7+NqvSjNu5TjjRQayUK2gbrjGpOEkleI27Y21VHMhE4mfc3Uui8SVgyqM01qkpC473SThHnz5inU+EA0SeCYbEhrqUmCpHg1EM2WYpDOahedSGqSIJ2L+qyw6Qi2BSQjwPR5pg6JDbnP53Idm4qFSOdToKmp6R3l8XJCOKGmTieZbBgXD6ujvR15+flGoUuT6TqAJaXAz7iIqIxMSsHG4dKbWOIWSzxeqS1gKu8j8V5jDxYq3jvvvBOnnHIKZs6cqQwqonxNB48LyOTi8dqUAtcSn81DyxQG1RSBdHiKEr2A78quOnkGrm4mile6l59xPfFdTb1i9Vo0HbKpKAWbjPmdvEwh1lTWk2TcSPPO9cV37e96yoTHSxly/5h6D7sMuXRkfNddd2H27NlgdyLK10Z3lAwUyeDifZKMyTElLzyd7kTSGeQ6F7l/bB3FbNWctGK1rSeX4tWUUpvitTskkdoU6fDC+UzdZjLR0xQVr6mAhot/J1k7Whlxsk2XyL8LhayWmyYy24p68OWlhW2zCl3vSsHarMlMebwSt1iSEw8OjsvGu7TxnbXCT5VbTJnqAhoHHXSQWmA8sEz3Z8LjlWRMxcuNauvvnC7X0CULvis3sM1DkbwM1xq33cv7+L22g9JVrCLdMfGQ5Fq09eNNV8auvSX145XWk2vuJN4lZUgP39aPVwINud7HJCcW0KC3qz1emwfp4sVaucVCfQPKqaGhQRV36C9n2SVj13ipBG08XiliqubOwnN3jUnihUv6Qz1XqE0hrSc+l99re1ebnDyP1/N4++wjF7iKm8kWas4k5ChZ9FKoWYeP3u1QMw9vXp7HG+m/TTmYjFOXt5wuncgFEvR0oqjLs2v3blRY+vH6HG9ETp7H28vuHjlG60yK0XtwVXSjZZrLiC3C8H5vkkDvxBfQsNPTuOreC8UbCjE0aKfFecXrFW9itJVOBc9GG81SQnD7Ahq+LaBaT76ARmRbeY83erwkRisSDx5fuSoiEV+5KroyvMfrPV74ylXxXiutLBuHziter3hNFr0vGRmRivd4vcfrPd4YCchhUG6Y9EPNujuRr1zlK1fpJedCWktIUl8yMt648ZWr3HSiSFQhN65Hc6p0IsnQpmdq6unKGXIhrX2ON7KOB12oubu7u//difZCrxOtikjOpwfd3V0KmZl4uVCBErpVupefuboTcSw2dLL0vS6EpNTpJJP3kaguqjtRKIzCInMbNwnV7BoT5aQRkMbuREXFxs5UmaKabQhv3Z3IRtlyvaurOxECWWjtDqIkLxuxVO247kSAajYfDEP14g0KLR11CFxaa7Yx9aGai0uM3bIylbEeEzd8c2cQJflZyA4EFE2MVyJKnu0QO3pDKMqROzFl0p3IBtbjOhX3rNBRLJM9KzE2XOdXIoKV80xU85w5c7BgALsTxe7Z2DOX4yW31YZqzgQ5LqGadTjfhvR11WsQO8kJLBOi5Mm6sNGJbOvJhXiW1hM/I6rZ1gLRJuNAMMjjJP7ioR4Kh8Ri4DYLmEKnYrBxuFzcMKmAho2vxp8PVD9eF1+NB7SpH68Oebl6ldroUa4CGnzndLjS0qJPtJ75bqa2gKY5cnmX6fJ4M+/Hm2UsfhIOh9AbDGHllmY8/Po2nHfoRBxYGTUWYxVvTyiMX7+6BVtauvDFg8ejrCBbbZh0+lVTxlJvT65j7h3TszPhc8au49e3N+OulXX4wsJxOHjcUIUZ4BW7npj6eXTNDrywuQnnHjwW48qKkVxCRi5+4uKYSm3cIgU0AmnJOJM96/IubXNn2++xbQEJ1DNF5Fzob1cbPWlvsR8vlcJA8HhtZ7WrgAb3tImmpz1Tl4xt3yutJ5eMXediOv14+T62PdtvOpELes2F+150J2ohGd+ysKVNTIRkKBS0VsySaDKZVK6SxxRSeSqf44VaS5QzIyi2OsLp0ImodJ/esAv3v7INi8YOxVkLx6G8MLfPAo0NNYfCwOrtLbhl+UaMKsnHeYvGYezQQmRlRxRwopchGU3SvPMzKnyb4pXAMKmAq1gQ5KWtTbhjRQ0mlxfi3MUTMbo0v0/xJhYp2dTYjh8+uwE5gQAuXjIZUyqKkt5XHhOLO5irqPFBik5UXIKc3ORqdb47UVTULmPAZgTy5z7UHJHjoAs1+7aAXvHqLe7i8dK4KSkuNhopmfJ46eGZrPKBULw9wTCe2rgb96yqxcFjh+Erh0zAsBilS3kk5nipfFdtbsSdK2owqjgPXztsIiaVJ7dlTIVjavPkBlLxdvf04LXtbbh5+SZMLivC1w+bhJGl+cqL1R6vqTrYGztacPPSjSjIzcGFh0/C1OHxnq+nE0UVpM/xRmTBNUED0lRGkZ8ztWEq/qOjBrb9oT1IW7SVYXUa6LaywZ5OlBv1LPSy9ajm6AbmAvEeb0Qe77Ti5Tp7bO0O3PNCHY6eVI7PLxyPsqLk9WgCVzE68vqOFlz/zAaMKs3Ht4+eihElefuEx/v0+p24/fk6zB5Viq8cMrFP6XLwkuLlO6/f3YLrntuErEAAVx03DROGRbEFXvF6xZsYBvGKNyIRHR02AeP6HWrWFo0tDPpehZo1uMqjmj2qWR8EiXnn7mAIT26ox/0v1mHB2CH4woIxqCxNDp+aPN6+qEAojJe37MGPn69FWVEezj9sIqrKo88YbB4vAVIrNzfijuU1qCovxNcOnYTRQwri8rWy4mUuPIj1jZ24fXk16PlfvKQKM0ZE8uFe8XrF6xWvvUmCrS61V7w+x9u3b/b3UPM/396NHy3dgA9MrcSXF49XaF1j2UeE0dbajlzWai7ITzxXVL7o1a3NuPqZjZhaVqg838q9nu9gU7wrahtwzZMbsGB0KS4+YjLKi/OSQFJUvAFkoaAwb28ePQqjiqUArq9vwxWPv43i3Gxcc8IBGDMk3yvemNXhQ80+1Bx7WIgerwnVLKERXQeL5PHyXhuqmSFAloGTUMA23qVGNZtQg3wuwVO8TEhRF7hKQuvqnJwJ1azfVep4YRuTJCedI7GhmiX0Xn/HlCqqWT833S41kow1qtkErkrlfZgvYtn1f6+vxy9e3oz5Y0pVeLm8MEdVvkpUvLvb12Np9U2ob12HBWPPwrwxZ6r2dLEX13AwHMabO9tw2/M1GFaQh4sOn4SJZQWIlDO0g/VcqGbKnO+auFb1vrPlwhMR6aQqLK9txE9W1mLisAJ8+eBxGDesyFiOdVdzNZbV/AgNXWtx0MjTcPDYLyA7KxJCj5Uxn0nle8vyGvSGwrj0yMmoGpon7lmJiaCL2vcXJe/aH5KMXXtW6pyjKE5hGKleUTmx5G10tURQzfMwf8F8K/hTqm/AJ7nQ7PwdEz6CY6pvaFC1mk1NEiRchuucl1DAEqqZz9VNEkxjkubONe8E65Ge1t8OUOq5e5sk9HdMwWAIzc1mOpGWoQn8Gejq6uo3j1figlLoPCxt3YlcnFkb/5EvwT+2z5mTo+K11eLk4jQJVR0uoTAChn67/EyNlwevgUvBRcKDkr2HTc/uD2c20a2S7pW6E/FgIBUsHc4y5Rsrp9juRLNmzUZra4u1O5HEddMHuE3+0rtKPN6++cmKV4xalpG5C+DZ6j24cUUNFo0ZiksOn4CivGy1lkzr6ZlNP8Bztf+rHjG2ZDE+Met3KMkfETc9Wk6U8arNe3DD0hpMqyjCNw6fgIqivMiasYwpUcaxD+Z9WvHaWv9lZ2Ub16J6bhhqHXOpvrS1GdcvrcbEYYX4zlFVGJJHWpVBToEAVtbeiSc3fRvhcA+GFRyAM2b9ARXFU7kz1PBi34dKZc2udlzz9EaUFebg20smYmxMzjfR4pf2ndSdSJKTa96l/UyFIXUnkvip/R2T5vHOnTtX8XiZBjOlwlxnW7rric+VeLyuPZvuWU0Z8+ygQ2K63kkZxz5f4vEOlIwpI36vjbNs0x/9DjXzBaSC0gOV45Xg4Hw5W+Uq7UnbkHKuguv7Gp3IBZvXlqrNsuP8ag+kr0nCqadi1qxZsKGaXd6Yi0MnyfidAFe9vLUFP3h2PcoKcvGdY6ZgcnkxwqHkXDipLyvr7sE/1l6MYLgLk8tPxBlzfo2ivLK484My1NGKX7++Dfe/VIcTpgzHVxZPwNCCHAWMkxqIp4Nq1vvO1gkoMU2wdlcLrn16A3pDwHeOmYzp5YUqdJ7UNxphvLb11/jLW+ehJ9iEkSULcOb8P6KscEKf0tUevL73r2t24PYVNVg4diguOGQsRpQWGZW6RHHivtyzx45CddGJWOXOhjNx7Vld9MbU81hzTFPZH4lGRmRvDZ7KVVwzu+vrxe5EjKDY+OjSOS9xizW4ylS4g2PinqaTZGtVKPG3pb3lQjVzPdp41Pq5tjHZonn0eJuafI7XKFjP440cEa7w0f6a42Wo+fnaRty6vBrjhhbgm0dMxujSiGeaGOZs7d6NV7c8hO173sTcsf+DqSOOUf1BYy+uJ4KWltc14dYVNZheUYyLj5iEUaUFFPKAKF5+f394vFRsq3c04/pnNyInC7j8qMmYVlnKsE+SE7KndRde3/YbNHStxowRH8H0ypOQFYhwlGPDoKFwGK/SiHlmPSoKc/HtY6ZgTHHOu94W0GUsS6kL3yQhOv2+SUL0XPTdiXxbQHXYeTpRZFO8Ex4vrVUe1k9uqsdNz23CgjFDcMHhE1FeEFEaiVcoHERLSzPy8wpQUGAoyxkM4qmN9bhxeTXmjByCbxxRhcrifKXTXMbNu1lAg4HilXWN+P7T61HFkPPRUxWiOfHSTTfyC/OQnZUTZ2jEKt5Xtjbj+0+uw4jSPHzr6GkYPzQfvao+8bvbj9cr3ugMJub2E+fWF9CISMQVCfSK1yter3hjTo93SvEqj5HVqjY24J4XanFARRHOWzwBY8v6RyciqOjZTfWq+Mb4YaTnTMSkmGcMJsWrDpxwGC9ubsKtyzahsjhPIZsnlcUbE046UW8Qr+1ow+3P16AkNwvnH16FGZXFKlTo6UTRxepRzRFZeB5vvCftebyGEn8uVLMrX8Q8KBPrSbmzvSFHqZyhPe/sPV59nL2TileFTsPAv9fvwq3LqjF/dCkuXDI5qQgGf89UQEMhhasbcN2zGzF9eBEuP2Yqyov2jQIayzbtwg+X1mDi0EKV5x4T4/lKipeh89e37lHUqbKCHFx1/AEYN4TefSRk7RWvV7yJXrZXvF7xKgn4HG90IUjghP01x5sIoukOhrG0uh4/WVWLAyuLlfKNrdNsUrzMmS6tacAdK6oxvaIIXzp4PMaXJzcOGGwerz4Uu7p7sHpXuyqCMbw4F5cdNQUjSyIcZUnxvratCTc+t1Hlr7+8eAImlxcppLi+vOL1itcr3jTAVTY6EYVpQnjxYGHex4SE4z0DSSeSxuRqC2hrNZUKRcB2rws2nwkNQKJOqbaA4bCx3mkq75Mq1SWeTjRLeYHkyZn50CG1XmxrxjZ3/DnpH8Qvme7VdKJ06Wm2MREotKJ2D+55cSvmjirBFxaOVYhkffHdGSLSKMjVO1pxE6s/Mby8eKzydNOhp0nzQ8OH38t3Nc1RuutJefp7qVWv72zFrcvr/p+96wCTqsjWZ/IQhjSApAGRDBIEEwYwrGkVBBNGoqxgxoQCigEBRaKIYlpXMYthdU1rXJ/rGhcTYFoxIHlIA8Oknvf9daemu2/XOdV9ewYGqH6fz3W6+3bduqfOX+fU+c+vzmcvOSSPmtbJZGUBf9lYSNM+WEG1M1PpmsPaREXJep4kSorNFjWPl6uqlda7tD6kMek1y1EAbVQX2+9GPjdNJ4IsYJ8+fVg6UeXzYShonLScfgYYE2eL+fn5rCxgTaQTJTOm6qQTSVRIiU7E2VNKCLlW30uifyRDJ5KiAbxnazwQSXWJHDL+jptH421TubhUgGCjupSWlCrCPCerpflqplSznnSOmoB74EAM3+UoKWgyjnEDBBN9dolGvJAFPPXUU6l79+6VwJtowwOJVqI3a1xKHpsMNPjPCahOJKXzS0rL6PNVBfT80tUqmmufG57PyFQzZAEXf7Oaft9SSEN7taJG2amiZN2uoBNpipMk1ea9l0Jfr9lKD3/+O43o3ZJ6Nq+nwB7zFCmSgDX15o8b6JPfNtKwXs0pD7KAhopo6SjG9tylhgdSlkr7kSCqVLq5AzimJjqR1Nwh3jmOnKc5c+aQ5vGCQmOSw4ssYItZ0HGk8zEfXCC0fv16JVbA+S/8XZIm9dOj9Pikph6YQ9gUp1GLNY154OlEGJOZmy817pDpRCHVSInr88DRLHWgibFy3HrYcW5ubsyjkyiACfN4cXVtnJyR7ApZQNer2Xsa0iK2pUH3llSznie1u05Lox0lIaqVkRqVQvWf8RaVQuKunLIz0tTRBV7GdpM1hE7kX5uRjhLRfmFJGWWlp1F6agqbakYhWXFpGWWklLObQJdqDs+0K67y5sKd8XrzoIHXFVe54iqRY7o3Ai8XIZqKq7SL3d2B1w/KtqpmKfvigNcBr9+eHPA64FUz4E9bITXwyy+/qNQ20iz77LMPNWvWzBTA08qVK1WXFVMqQadUIqua9XmLLR2GrMB3331Hq1atohYtWlCnTp1U6kX/N75v2ilhkHCUiNbwb3TaycvLU2PHjvvnn39WLSyRYsL4cE2kmlq2bKn++7fffqNWrVqpNDXuH/fXuHFj1QrSAW/YBBzw2jMoOrpxPF5vrqoy4sXRGdbwvvvuW9kp0HZkZTrrtfF4seZXrFhB7du3Vxkc/RvckeK6deuUH2natKnyT/Ct33//vfJB8Kl4D74JPrNz5y6EDmM//fQTdezYsfLzX3/9NXXr1i3hZkd6jp0erwGqqqtlpJRC1T1uTSIJJuB97rnnaPz48cp4YOA5OTn0wAMPqHNM/+uOO+6gNm3a0Nlnnx3z3uOPP045OfVowIABqnkCxoFrA4iPO+44ZZSmcyj8/YknnqS5c+dQ27ZtaemyZTRyxAgaMmQIzZw5k6699lp65pln6E9/+pNxTBp433zzTXrhhRfor3/9q/qdL774giZPnkxDhw6lCRMmqPvCQkIa/rrrxtP++3ejK664gi4YOpTGjhlDKG7BPFx00UWq+MMBrwNev3NP9vzR1B1MzzI2wCgkM2UdbC0jIagiteXkWvztLp2r3nvvPbWur7vuOuVTrr76amP/ey0qsHTpUvrHP/5B48aNqwQ0gKetZSQ23sOGDSP4MvieG264QQUiHPC++uqrdO+999JTTz2lNu9fffUVnXvuufTYY4/RmWeeqQIUzDGuO3v2bDrggAPo+OOPV9fG+2vXrlVn3p988gm1bu21JY18SWf7DniLi9k+qbsD8D777LMEA5o3b54Cx9tuu026cj6OAAAgAElEQVQd9sPo3njjDfrxxx/piCOOoCOPPJL+9a9/qQgSEeqGDRtUlNq1a1dlUAAsGNqdd96p/g1ju/TSS1VRwa233qqu89FHH1GHDh3olFNOUbtAvGB8ALzTTz+djj32WGWEWDRYZJ999pkyaCy0wYMH0+WXX04ffvghffnll2pMhx56qKpCxcLA7hNjxvdgzAsXLlSfGzFihAJvFHZgJ/viiy+q648cOVIBMqJbvAfQx+9ccskldOCBBzrgjfAALuJ1Ea8fFGxdopKJeOE7nn/+efWTZ511lvI3WMu///473XPPPWptY43//e9/V8IHf/7zn6ldu3Zqs4/NEgIEgOcjjzyi1jWAEX7i6KOPpl69elUWUGHTjvfgO0488UQVqeKayHpdeOGFdNddd9EZZ5xBb7/9Nn3zzTfUv39/OvjggysLi3799Vc65phj6IknnlB/x+fhv/BvjBsBAwrXsHEAGMMPws8BzBcvXqxAGf4Q10ZAs9cCb0lJibGqGRNilppC6rZE3G3igSPa8r/iqVzGb5pSKjAwrnoP76GKjlMnwvuR9wMDwC7ylltuUdEgKndhnKjqfPfddxUY/vOf/6SbbrpJgRZSs0uWLCGkSGDwAOMbb7yRIPkFwJ0yZYqKctesWUNXXnmlMmIY7Pz585Ux/vvf/1Yg/pe//EXdG5z6tGnT1G4RRgnlEqSCcQ+4FnaQiFwBvEiBY0HC2N966y26+OJL6PDDD1MLDuPFOBA1YNHgfyNKRlrn4osvVv+NsWMxYGGfc845amHifSze66+/XgH3mDFjFPD65ymSToTUEP4bv2mKUPTO20yDgRIQT0HD5oeTT0QqHe9jsxCkcpyrRtTVilxFJxwU7tNUhSrdq86wcGfH0nc1nYijbNnk4aTq1tJSSBV6/Zf9L9wrnpup0lSvWe75SM9OmmOMQaJ/SP2W45ljzo/gurhfjrKFwIE74pF8EMZkoo7Mu/tu6tmjh9qoe/4JNLToJ4B5gm/AkRPsFfNy1FFHqbWKaBER5oMPPqh8EtYxfMUrr7xCixYtUqlovBBE4L8XLFigokuAMgKGd955RwFykyZN1Ofuv/9++vjjj1WGC8HH1KlT6fzzz1e+EL4LPg2vv/3tb8rnAPDx29jw63kfPny4ysRhw6+DAwQjYD9gkwAfAR/7xx9/qGvi2vA5uLfRo0crwRX4Pn1EFjkbfh8U+Z7NniR6mo2po54dUu2G9SHRuXBd/K6pgls6bkzZsmVLQsBrM3oYNowXjtIIvGhMbyhy0oYbBHhxgwB7UImMvXd9wAswxQ4RYIjvdunSRRk4wA4A1rdvX2WAWKC4Hxg6Il2cwwK8YKxYGABUvDdq1Ch1HTwEXLd58+bqrBY7v7FjxtJbb7+lFgWAWKd/sbgQ3SI9jN0h0i7XXHONip5h0ABgGDI2CJgT7Hbff/999W9Ey/gbDPy1116jhx9+WC3chx56SC06gCrSzVhcGAPAe9CgQYTUHj4zceJEuv3229WOFYsQkTs2Hn6jx/1jQSOVjoWF/4bzMIGVZJy2BSN9F7aE93GvJnvS3Fbu/IuzJ9uYYE+4T07NJHIj5x9XKfR4BRvnNgO4F/wu7tW0gZFATnJYHCjocSO6wphMmwzbPCUDvNjIZWVnG+fKtrmR+LaSPeE93K9pI4f5sG1upOfuHxPmFEAEkNKygBydBWsfZ6UnnHAC9evXj1avXq3WKlLH8AkAQBx3IeuFTQOiyenTp9NJJ52knt0HH3ygQBefv+qqq+ill15SdgRgnDRpkromXk8++STdd9996nvYbMPv4IgLfgbXx78RpWJ+AOrwL4iMkRnDC4IhH/3nI5Uxw3UAwgB2BDDwofCL8MH4PvwifAb8Jfwi/Bl8DzJsiJIRFPhfyTx3jAH3zFE0uY2pLSCUuMU66DMFmhorTZtWI48XA8E/XKMFSRIK78Gwg0S8EkfLtmPRsoAmw/aniGBcr7/+ugJC7QTx/bFjxyrwg0HCqPE9OH4YyA8//KCADIaM1PThhx+ujB2Gi4hROzcAJoAOhQbY0eE97E5hnDhHxrygwAn/G7s/gDSuDdBHmho7zYmTJtGNkyYpQ8UCQ+oImwGkqAH+ehHBuPE7OLfFdZHOwdiwgPXuFTtNLAT88/HHn9DChfep+0YqCVE3oivcK+7Nv6OHYwSQDxo8mPbv1k3JAtapXdu4uZEiFFukYIt4YVOmBhq2BWPbDOB9LjLFIoYtcREvnjfHnZTs2Bbxaj1e07VtoCBHvMgqRIu0a6cH56h5vMbNsjBP8mZAznQgUoD9JcoL11KfUlZBingxx9iQmjZrElXStrkxPXds4LGp1Rk100YO3/v000+VX0CEik0+NsNI52ITjk0yot+BAweq81gUS8JnIFvWuXNn9ciQhcNvwRcAJJEdw/wADAF62mfgLBjFTv/3f/+nfOCMGTPUd+Cj4G9efvll9ZuISpESRoQNf4iUtX5hvABpNAbBnNx002Rat26t8o26xgWZKkSB3377rcocIr2N4y4A9pIl/6WvvvraeMZrA15pbUk1A8nSLKWAEL+LZ2J6cVi5V/J4n376aWV02FFiDwdiNR4MUiI4l0WEB0MBiCFNCwCFocMAYewASRgyIl6AIc43sJBxjVtvvY1WrvydDjroIAWiSPnC4A477DC108NiRzcZpHmxyPFbOAfGYgBoY3d78803K+Pv3RvdbjLU7hApa4Awzm9RuAUnC6cFA0cRA+5l3ry76YQTjldpcZwNI62ESFW//vOf/1SeF2GsuD+km1DE4c54o5eNO+P15sMVV4XtorrOeLGG4VdQBwIHj9QyolYAL3wSNujYqOMfbK5xNgoAA8jpFC58EQIHRKEAUvgLbMzh63BUhVQzfAYiTryw3lHvgWO2yy67TG3EAdLYjCNbB2A+7bTTVLSM8eD4LfKFzQD8FQo8kTnEd+DLECHDF2JzAzBCShnXwBhwb8goIgjB5kKnySOv64qrDFqleoJ29wYaAFFdJIDdM4AXu0OAKFI0KDxAGhZnHAArRJPY1cDo99tvPwWEOI+Bc8aZMM5kca6LF86BUQwFcPzvf/9Ly5cvV+ctMEodtWEBoGgCu0ycg+C7SDHhmvg9gDT+jWIujAFnOwBmnBPhurr6WHeuAoUIKWu8h9/A+LFwsEuN3IkhfYWFgGvifrHDxr1g4aDC21U1h12AA14HvKY0qJTpCFpcBX+AdYnCTqxBpHYBXogWsVYBWgBY+AewGJChOObYY6n3AQdURu2wVwQLhxxyiPIBKJjCdZGZgy/TGRT4OHwO2Qb4E5zdYvOtC6oAjvA/+B34BwQQqBvxR+rwoYiqL7jgAvV7GBP8GaJyXEMDL3wYAgvUxuDvCGwQ9CByN2VFHfDuwcAbuaBM6kT4W2qqd8wupVA1NcGUttIH6zB47rwO0a/3DwrKwqMyRRn6LBOf0vqpXMtILF6pNRpHw3DA64DX0YmK2HaG1RXx6vWuzwL9zyCy4At+BS/9GW5M+nMAPn/LSH2UqNO23JFicXGJyrglkkLFZ20NNHAUqRke/ms74N2LgTfSGJwsYPQZb13mTE6aJ+l8HnMtfbeqZQH1s7WNyUW8LuLdWREvbBGAYzr/1UDGVVrbNgO2Bhpc8xOOx6vnRKrzsQGvLiA0AfpeA7wmkQRbJaNt0rlezToKlIjvXMFEVRZX2SJe/5mDRKXgCjVsNAxpwdjmSfN4TZXjNkCxFf5EptI01erUQYOo+/7777LiKizkoMV6XCMF2zwlU1wlrQ+VQUlJVcIbJscOwMe9Jlpc5c9WmCIJbm3plpEcEwFj5tZsMgVfUjGMlGmyrQ/pu3hPWrOSSEKoLETlxAsScMVVYCIgrcuJuNjup6S4hNIzwl2lov0XT7PE53QDjUQFLvSGWHru0nuYY0kkQYp4uTWrM5CcHVdncZXERLAVV5maKKVwsoBcVbOt4lmScbN9Vyrblr6L95KRBZQquKUxYaGh8peTGFPp4ZRUJXnnfykpPKSMKlLake+L81ROtKNIlgW03U9QWUDMMZxzVcsCSnOs7QlpdY7fzd1PMvakZQE5ik1kus//bCOPBYzPnZFA1DxejmMqVmmHAAk8E0EaEzZyeMEZxswxaiDKeTsW51iQe4SNYpMBe+IogPooJmYOLayLoGvWFnD407y2547xg45nkwW0+sWykPITJvuXxoT3QC0EAHJrh5tj3JtkM9J72i/iCM70kqhg0rOzjSlZWUDJ3rj1jvFKsoDc/bB0InxB0tyVdjsSnUjaPe8sOpEf5CRaiUSX0LtnNM/g0iZctCyVzdt2wDsr4q2kEw0apOgFHp0I9I/YRgw2OhHsidup2uhEuyLiBSgg9bcr6ESIeE2bCam5Q7IRb1A60a6JeNGswmvHmui6kyJeXAsVxnjuHC88MiNkzyqkqLawtojXVjkuZVDwXby4zSf6PaPJT1VHvJKv1tKLQSLe3ZdOBFnAmJYYLC98r6QTRadq0PiC53O6M153xmtysPjb7ioL6L8fp07kzQg2vABeTivWdp4atKrZnfGGLXKvOeMt17mKiNVoO//a3elEDnjNlYquqjlsGa64ypsLWzTmZAHDNuOA15sLV1wV3sjpbIU/4+Ai3pCLeLXrcMC75wAvniWaFIALiramOGc0df+CkwQnE01iUKvgf0nAqytfnSygN2sOeB3wRq4fvT5MFekOeB3wVtqKA949B3jRvxsNDtAjGEow4HKidZ+/HgEtAdFLF53UTE3rdXW+Ka2OJjToIXzlFVdQk6ZNjaAtne07WcBwVsHRiby5cKlmx+Ot3MVyTTB0EQGcmUk5RxcgmAobJAOznfm4BhrRaVBTub5exEHpRLtzqhkbKLQqRQcitA7EuSX6c0MPFe1E0cgeBVzoIIRev2hLiH7gsGd8Hm1G0fkIc4BoGN2I0AFp2bJlqsk+7B2fQ5tBtEtFS0B0PvIXotmOrBzwOuD179b2GuAtLi6OKcWyUXe4imcdWiN9xTW112XosUDltW6U1GQkihNHJ0KjF0jS4WWWOZQFISQKh0Qn0nPIlahL1YgSrUEXgODfRsUeRPCgfxjkFW1j8lMTImUBVVUzQ/+I57o2ihM3TxKdyPa7ABL0sIUCE8Qs0IsWFZ76e3pMuE8IS0D6EBWt+LtEJ9LPTo85kjJgG5P6LP7PQCODrcGOTVXN2ibiXR/ovw21GgAq+oqffPLJKpWMBvpQt0KLUAAmFGQgDAKFGtCJ0GsXkTF6faNpPsAUAAt9Z1Bj8Dm0O0VLU/QXvvvuu1V/X0TW/vVl8yOgYXAiCfGsD7ZxvUC/sa1ZTXUxUncEylb4+aRVdqHDNSBcgKrm3n36UFZmplFy0PZsbWIf8G0c1Sh/40ZqxNCJbNeVmC0SJUh39DOxPXQGhWN7xPPcObYN2mCCnmZi3OC6+G1OBpTDJV3nIPlxjk4kPdeU0tJSoywgN0gdSXCl/HCU2GEHaXhg43dJEweqSy2ldxlbOJTMw4wHeIPy1aTNgERxkuhEEmjj92xzHDkmgA+aqMMBa+DFhmpnygIWFRdTiWUjxy1ENJlHz1k0hEcPbYwdaiywTT1PsOP//e9/ykECcHRva6mBRqQ94buQfoMcm5Y5k+ZYoktIwBs+Q7Q3UsD4QCNBz+7PP/9cKd5AmAP6zIh8NfCiST7kJJEuxnsAYzTMB7iikT0iYaxlADR6AKNnMPr2wi6wocF8QZwDNmKSeJOcHe5HinhtdDsbKARVJzKd0+qozEbd8T/3SODVerym7lRSOl/7Ww6opM0NvqtbRnJZN+66Nj8v+UUJeHHdZBSgpLW1adNmqlvXrHYVzxxLzZsk4OX0eKVnl/AZr45qpfZmXOcquVAD+f0SRdEwc+hCKiLmgFUDLye7hWuaGz+44irtWNgz3gge7+7SMhI2CIAB6ELoG04ealFQgIGARP/+/VUECOUopFYBHvhvgBXABwowkEjDovryyy8VQKFhPdKtUJDCZ6EghZQszkgRSSJKhH3auOqcLWqOKde5Sqogjnx2uAdEsUg3o0E+vgd9ZqSHoWgDwEW2BP/GPUD6ERqsEAGBNCUUZKCEBRUuHGsAlAG8EASBhCReSFlDNg6Sc1DK4UTN3RnvnChZQBMv3Ha0ZONv43lwm0/XMtLzblgfmGeuhz02CxymST0KyspCtHmzWRZQY6UrrjKIk5tEEiLPHRyPd/fk8cLon33mGVp4//1K8xh6qFBrAlgAJCG1hmpfSJshwoPMGcTBERUDjKGjjOgYYAuQhfwZvvfggw8q9RgAOVRXAOSQTYPEIlK6ANVdDbxwMkgBAyiRqUC0C+eNjQg2GABTfGbNmjUKOBGtQ3ULL0T8l11+OU29/XYlT4nPIuLFvSMyRqoemxHIzJ133nlKvg7qXJhDv+NyZ7ykNiWRerwOeIlcr2aihCNeW6oAC7w6Il4pWsZ7+ozXRbwh5VT3dnUiAO/27YW0bVuBis5QFARpRWgXA0AAvABkAC5AA5EgUqdwjKjwRaQMcXGAj063oljp0UcfVY4UNg5Rceib4tooMmrfvr1KYe9q4NVpaUiwYYyQnQSdqEGDhmp3DqlK/A2bDByTQC4SKUnYDc65cdaL/wbI4m94H5J0SDHjvBxnd0id6jQ9/o0zdP8ZrwNeB7z+4in8twNeB7zkIt7w0tiT6ERItyIFPHjwYDriiCPUYkcaFREq9EdHjhypgAeRKlLLOKtEahUp2BtuuEFFv4hyddSHdCsi2hdffLFSTBxaxn369FHnpgB0RI01BXjxVCMLvSIr7L0iOvT+9Z59Ip2rIgvJNMBzVf8OeB3wOuAtMRbUuYjX8Xgr18aeBLy4F6SAcU6LSBVRG1KkAGOAJNKsOprD3wCwiOoQ8SJbAKFugDGiYIA23gdwI9WMHrQAK0SGEALHZ0CnQeoV0V9NiHj9Dk/qqZwI8Pqv6zpXhWfENdDw5sJ1rvLmQTzjNckC2qoRIVOVwQgkS6nmeKKBZGQB4QgTTTXHU+3GcUFtEmMSNQHvcUURtnkKKpJgu1f/mLQs4KCK4qotW7dS0OIqW5U8N8dI89pEErjKTAAK0stoEoHotmPHjqpyFxW/4KeCeoDzW5xXIkIGXQpzi3NgvHA22rp1G0VHW7VqlUpN4zPoBgU7w/kproFGEqAItdm3jfqeBLzxVDVzleO24irOnvSYpHnCZ4LITNp0mKXnjo0QRyeS+Jy29RGPsAmeu4n+JMkCSmtWR//p6RmVmQT8TZ/xSrKA0jGaBjJOj9fmqyELCDqRiUopPTvbHEvCDXgP60QzBPybNRzTVJcsIOyJK8ANegQXtLgqbBOxBcOsLCC+xHHD8FA4NQxMOpwlx+PFd1NSUqOMUz8YL41lfs/GCdwVsoCa/mGSBQyn+fj7CTLHyBIWJSkLKM1x5Jg0jxfAi7M/zHGtWpBxi1Un8qcgIxebjfIgfReOEDYFUDA1KbHbU0qlrXop1vDL+26kZqOXfsXxw/bt29QC5iodo52JvobHCZfGpMfA0TsA4oi8/Y5J89GrQyoPjhDjys6uFbMubfdje+68jRNt3bqlhskCyr0E5Hv1+gVE+kX8b9DUkpYFVH4xiCwg0caN+TtdFrCkpFStH4lmmZoa5jtHrqVE5zjyu0FlAW02riRcGSlPjJfn8Xo2YXp2xlQzSqTxBU59RSq9rq7iKqkcHDePHRYnNC13iSpXEmOSzOFe37lqN6QT6SgPm4w0g+i8jdpWULBV2YRpZw57wquq1YmQDkeF8ZVXXqnoO/5Ngk4Xmza9/mMCf5SRbKqZo/nJUbjkR8I83oyMWHk/jBf3yWk/c9GLfu5cBkV3mwMomCLe5NWJoqObyKpm2JLJnnAv+EeiaCKSTmWarnCZDgAKIt7cRo1YmUmuz7aNNirxnXWquWHDRsaNnBfxxm7ywmvWTP3E5hOUU85XQ3sYAZ/p/XjoRBkZkIP0rxwvg8XZk6MTFRQoo0401eyKq8KGtied8docsK3wZ1e0jERl9YgRI9RZMs6U/dQTW6oZzpI7qkkWeDln5854w+vHnfF6c+HOeL15EM94nSyga6ChXYcD3rAT3dnAi/NoFGehahr9kxctWqTaMEampB3wes8Hm2UpSyVFKLqrEnfGm3zEaz7jBQUNGTnH43V0InX84oDXAa8D3tj00s4EXkTfTz31FF1xxRWq8AtRK/43ot7IWgkHvA54/ZZqK/hynau8GYsn1ew6VxkS7a6BRnjJOXUi7YC9ZiG7uzoRKqqHDx+ueip7EV2ImjVrRs8++6xq+ahfDngd8Drgrb4zXge8DnjVgT5nCA549xzgxTnQ4sWLFT8YHbReeukl1doSzTtQDYvOWDrqdcDrgNcB7x4CvAUFBQnJAuqiFa6IA4ABB2HiBMbzXe66cFCcIgneAxjh/MT0fYk7qdMQXJNxfJdTOsF74H2aqFO260pKJza+LeYX3zdVSErzlMiYcLYI+hCk4AYMGKDoRKAX4ZxqZ6oT4UxO04n8Tsc2T9Kzs80T7Am2ZNr82FRqdJeo2AS2l/LC3EZW1IJrjBaOGBMqmtFTGS0Y0e4RbSjRsEOvHUlOTeLMak65aUyoMsWYTOePtjmWOLM2GplHT+PtyT9Peuy2McWzZsH3NFG6qlI5B9dHVzNsoHBeD1viWrnqzI3p+Uj2ZJtjcKVNdEebPSXjqzFerB/8ruklzXEyvlqyJ1sxpW3NshKUoXICA4K7V+66KWVlZTHAa2vuYKMTcbKAMoUDBRNlyqmbFoQ0cXgPoAAg8hu2drAwgCDUBJtIAn4X1AQTxzSyTZ/fAGWKE99vGdcB2OOe4Tz8L2me4nFYkfPkNdCYTYMGVcgCFhRQndrg8UbTP/R1g4rOSxW3AAW8j81NkDkOMibcj5YF5OgfnD3hu0E7V0F4AYpCiHKx0fFoxx7XWKqQ1BsqqapZAkg4SfwG7jXRObY10IA9cptp3C/X8CDZBhq2pjdBG2gkOsdaj1fLAnLFVRI9yjbHeP5cXwXUDKCRhel9KYOCa0pNMiR70g00sGE0+XKsacyDWYUOjYVAJ0qN8W02/yXJTNqwR/LVto0cNjemZiHaF5iOwvb64irbw7QBLxw0msYn6rBswLv3pZrTjTxFCXj1Ytrdz3i1hwEPEcALNSAAr/9VE1PNNlCwAS82VCZglnm81VfVXFxUTJlZ4HPGEjpthUyOTuRZrKMTefPg6ESlpWohOT1eORpzdKIw1O3MqubdGXgdjzdsMw54HfBGbpYd8DrgrdyB2foIR6bSEM1DJH3Q4MG0f7dutLWgIHCvZinykaImF/GGl3JNjHgd8DrgNWVm4Du4Xs1OFtDxeJ0sYMSqcRGvi3j9KdZ4GvhzbQdtBS3SmdyuSjW7BhrRaVKOWSGd/7pUs0s1qxmw9WoOhTwuqOnlznhdxOu3i+rq1bw7nvG6iNdFvC7i3cQWV+kNin9Dm1JaWmqkE3HUHQ1kHFBhIXJVzbZCJonyYKMT2dSJMG5TZR8qRwG8QehEcMC6qtkE2up+UtOUsoX/lQydSJIFtNFkpDlWYyonSq2oKMS9zZo1i0491atqxhyDJsZRtriSexvlQaqQhC3pqmb/HMZzr9KYJBvXVc1cFSpnT7b1IdElUB2pq5q7du0aYzPSPOFegtKJbPZko7pwTASouoTKQ+zakmQBpXnCmkXLSM4HSVWoes1yFBupwt5GI/OvLTjbSFlArpe8zS9KVBfbmDZAFrARxApinZCNCmZ77lKwAt+BolPTq7roRJI9Jcv24OlEIaXzrSl/pk16elp6DAaklJSUxAJvqJzwf1yJumQINuCFkXHXtYICC57lSp2IAwUbyEkOGO9xklzSItagEASMbIBi0+PlNxk8Fxrf8c+TlgXUwMvNcTL3it+VHKUGXhPv0va7tucu2WJQ4LU9OwlQIC82duxYRSfyA6+6bllIbYo4up0EvJIdazoROLXGzU1ZiNIMUpC2ZydtBjBWOCyuqjkZDraN/gG7zsnJMTIRbJRGacOF+430bXhOfjqRKXUbj81wgYG0qcV70JTmgFeaJ/1spYCEew9+UbM9uCwiJ7ph20j45zjy+hLw2gK3oBiA73GygNL6SJhOpCu1JAkrFMSYCMUyl8qTfOKoIdJ38Z6OeJ06Ec8BtnFM3RlveBm7qmZvLpI545XkRXFtdcZbpy6lJywLmBydCL4iqCwgom2THjXux1U1ezbjzni9eXBVza6qudIQXFVzGFCkSmsHvMkDryuuospUs1MnCm9qXVWzq2p2Vc0RuRoX8bqI11U1F1m6Kpk74LmIN7x2XMTrIl41A66qOWwILuJ1Ea//3A1nvHjhjNcBrwPeyDSpoxN5+MG1IMVxyubNAaqanR6v0+PVjthFvC7idcDrgNcBb/TWtEYAr1Rchfd0VbNUXGUqoELRglRcBVDAmZGpGg5/x5kcduz+HZqmHkgtI0FN4KrsahqPF3Osq5pNIgl6nsxz7LWM5ArY/MCLOQWdaNCgQYpOhP82NbXXRVuocjRVrNvO+qqrc5WtjzDXmB73I4kk2Hi8HHfPln2ReLx63XHNKvzPLtJ16OfDPXdU+eIFVgAHvNx3g3bT0lXNnEiC3EAjJMpm2tYs7pcTSZAaaNieu7e2MiiSuaPpRPqMF/7JNMc6E8UpJsE/cf2jMZcmag/+vn7DBsoVRBKwZk3VyfEU0UoFtlg/JpEEXBfFtyZBDp2uhw/hxiRl7LB+UCVv8uVYH/iHUxuT5l8G3jJVJJibm+tPJFUWV5nWbMr27dtj6EQxV0jgDyWlpVQiyAImcKm4P4qHKckCxn2hBD8IQNHUhAS/mtTH4RxwzyblnKQu7PsyAH727Nk0cODASh4vJ+NWlb8beS1JFrC6fhPXhT1hAXMbsur4bTirSy65hG644Qbq3LlzdfyE8Zo7y578P67paRwtpTomAM4Xz9akdnKG4voAACAASURBVFXVv4f7gqxm9+7dqU+fPsqWOLCq6t/W1wMYcRzT6vpNzLHubwA/tbNeOvji+MXVMQ7cH34XVfKJ3GuV0oniiXi5nYVtVx484vXkBvEyPZBQSKYm2HbPnDqRpmFwUWBQdaKaHPFyO9VdGfFKY0o24jU1jpAoBLBBKWqqqRGvLRqzReFpaelRUSDmAfOkW0aaNjfxRLxcFCh9F+/Z6EQAR1PmJr6IF/cablaBiLdnz54EWUCdkfNHrjoa4+4nmaxCdUa80nj3lIhXZ0z5M96AEa8743VnvHonyJ7x6lSzE0lQUxWPA+YiZWnD5VpGhmMS16s5PBcAXinVjE9yWYN169eLqWZu02RLNbtezd7zccVVBQUq9eoaaFRDAw0HvFFZKge80aDgRBK8+XANNLx5cHQibx5cAw3XQKPSEALRiRzwOuDNyDAekTmRhOgo3VZcxfX+xrqUipVcxBve3HDZJFtxFVeca4vua0RVs97RuJaR3g6XO+O1nVkHPePF/KM4BNc3VTXLbTm9qmbOcF2qOexEXecqby6SaRlpO9t3soDhOXbA682F5Bd1VsEBr2EPjB2w69XspRkk6o4D3uhIgStCgy1pdaJEqS7STtUGCg54HfD63Zsu0uTOU12q2aWaI21GTDUb1YmghBLi5bwkFSEYH5wl1D/8Lwwk6HVtSjPBZQHLFUhyikk1UZ0I84sxc2oy0v0kogBVqU4EOlH37pU8XpPjsanJ2MbEqThhI4d/JHUizhFKzw7jkca0q9SJIAs4YcKEGHUirKWy0jJRnQifkZS/uDkGbQwvVp3I4gskyTRpTDYZN+67Nj8SdM3qiIujoySqnFNl6kSlZaw6lM2OJVnA3VGdSPJfu1KdCJQtE52IW7NGPV5QbMoZHU2bFqZNFpDTeMSgufd0yguf4YjVmsPFkaexCMx6vPJmAFETpzeK9zQ1wR+NaefAOSVJHs42FzZZQGmebPJXkd/FvWkeL7iIuoGGyTFJ0SV0WRXIVej8+jdk0hzbZAElGTdvjlMpNTVWi9SmFSsBrxT52J6d9NwlPV593dRUNCmJvR9Jgk+BdlmZsn9TE4bq0uO1jUk5ytp1jOpEoj1ZfIW615RUSjHMk23NSlkqG/D67divx4vzXe6MVxLskNaHLSDZkJ+vqpo5PV6OJmOzY29MsTQxnQ7WdCJDUlRtpLmjSml9aDvmNtqwJzSB4ZoscXNsu1dp7eA9yAIaudJoClVmxo+EebzujDc6RerOeL35sHWJkhxLdXWucqnmaFvluk+5Xs3ePMEBS52rXKo52p64s1ZX1Ry2J66LnQPekOPx6uXkiqvCjsWd8bozXnfGW8JGpo7H61mH4/E6Hq8yBFfVHHaXLuJ1Ea8fPAEYQXs1u4jXRbyxmzGnTuQaaDjgjVoXDngd8DrgdZ2r9Nmw4/EayPg2dSIpksN7uqrZda5ynau0s3XA64DXAa8D3t0KeLnKWNyEVJWGVA6qJM2ygLIgga4o9C8WnULlCnQ08IIOwVU14xpcRbRUTS1VFNoaaNgrbvlKa6nRBeYX98w10LBVSHJ0CX8qDZuZmTNn0qDBg6l7hCxgolXNNs6sNMdhHm+OsdG+jSvNVW2icj8UKjMKZ8BWpDPeZKuaOVtEQ4mxY8fSjTfeaKQTeTzR6Cb8kefz3HXxd2mOUVyFqleOTiStD1tRneRHpAYaSVc1MxXcuK5WFDOxHFBcZZLu087bNsf+tQGRBAgkQCihdq3alJmVGePebE1KpOduq7Rev349NWJkAaVnh0FK57iSr9Z+kVNF0rKAJj9vq2qWfhedq0BjNYvhJBeQSJQ52DHm2P+SejmkbNy4MUa3SVFhQN1JTTXNTWVjCNObmBhMvGkRa+PlysFtHFOJJgMwQqm+6dq2knsbt1iiBMGITABou9dkxoSNDx5aVmbsIrZxHG1zjHFrhwQHNX/+fDrllFMUEGCO0Q/b5LBsPN6gcwxbgk1VNcfUxn/EvWIBc9SEyHmKPfcpY5vWS44FtISrrrqKrrnmGqMsoDTHNuqO9NxhT3iZskXx2BO3PmzfhX3BnjheeFAKoI3+gTVr0h7WG5SgPF7/HGP8CxYsULKAvXv3ZmUmbXQWCWxsdowNJCeBKG3GbP5LsidcF3OM3zW9JEC3bSSk35XsyWaLNr+IZ2miZOG6+F3uXrk5ZquaJcciTZwU8doMzHbzHPDaIt5kQM4W8Xq6kw2M0Rh+NyiPV4p4YdSYKy7ilaIMW1Yh8rlXRryDBinnIfF4JUCReOG2aEzzeE2Gre2J41mLPF5LMxfcOxywSfM4mV259F1bxGvjcwZ97slEvNKYbM5OanhgAwXJjiXgVTzebduoXk6OcQMpKQEF2dzMnTuXevXqpf7RsoCmyMiWVeCoOzagQgMNRJ6czCG3dqoz4tWULRMo2+5HwgisH0S8iWY248GlKo94nSygoxNFpithhHrHHwm8+yPVXK2ygOnGxhCuZWTYPQXVZdVO1PF4vfSpq2r2bEqyJ/gBzBXX6MLRibw5dHQiRydShuDoRGGgcsVV4bmQzgldAw1vnlwDjbC9OOCNz4844HXA64DXl7tywOuA15/OdBFvfBkUB7wOeK2A4uhEYSNxEW98C8ZWae06V3nzaKu4dXq8/s1NRlS9B6qaI894nR4vqSJNrvgWm2UUMUkKUHulLKBtJ7SrZAG1SILj8SZXNr/rznjR/D+2ij7ZM16IJKQZxBkc8IYBw6Wa98xUM9by+g0blEiCaW25M97wc5fOs6XMWeBUc1FRUQydSJ93mMqn9S6Ykx/TMm5cebWu9PWngGzXhRHhJZV0owLVRAWQvhvP73LzgAo7XahRlfdjG1MysoDS/PvnqVIW8NRTCcVVKLYCDYOjbHE2YZt/vM/NcTL2lMzv4t6xs+YoNpwt2p6dNCZsHrUsYJcuXWJMKpFn5/+y9F3Jnmz3k8yYNm/eQnXq1N4laxbVryabk6pmbfbknwtcf968edSjRw/q06ePsiXOnnBtSZo06NrKz89XVc2me5WeXTLPXXOl69evb3KLipHBRbSJznHkD4COB//EYUAyc8xjYTlt2bJZzbEee+SYuDlOCYHr4XvZooGS4hLKyMwwTqoU8WJgHE3GJjcojQnXhdMC8CYa8dpKyaXdjqImFBQQDMwkC2hroIEJ5ErfbQ00MG4YWSLPznav/sYQmNNZs2bRoAo60RZwAuvUMRp2Mo0UpDkG9QA2xek7S3NcXWe8tgYa0rOTvgs6BIB34sSJ1K1bt5hna6tq5uwJf7c10MBnErUnfMf23KVmLrYGGlzKES6rrKzUyLG23avtjFc3B+JAWZpjr4DNnGpGEw34Jy7VDLuQ1H7wHgeeEo0saAMNyVfr5x5UnUhqoCGtWf1sOZ417AkUS457z82x7V6DRrx6nkxsAqdO5NSJKh08DHNPSzXznatC6vySW8TujNczC3fGG97/SJumsJN1Z7xOFtCzGX0sa9o0OeB1wOuA15C7ccDrgNdvFg54wzPieLzeXAQ+43UNNFwDDb2cXMQbdiwOeB3wOuB1DTR0epvLnDngdTxea2rQdpbhgNcBr/8c0aWaXarZkBASBRRcqtmlmtUMSNwwm0qNVDxiUyfS/WRNRRHymEJqzFy7NtA/AKJcr+agRQQOeB3wOuAtUgVQVV1cpXs1Ox6v4/HCy6SUlZUlVNUsVyZ7/T1RtWaSBdTfNVV56apmrmm3VNUsNdDAb+rG22YajJxqliradIXkzqxqxv1gfnFPicoC6qpmSVQARqHnCRXbqGo+NYJOhN/0FyTp60qFTFLlZTxVzSaFFW0TskiCWXrRViWPe0dRBCeSEDlPkRGBbY6lDZdU1azXDu6VU4fixqQ3n9w82Xi8mCvuu9LGFGk4onK2ch8iCXXr1KX0jPSYoCqZzbKNiYBjBKxZ/zxKxTDeeV6ZGqfUhN8/TxBJgCSgrmo2SQ7qrALXS9smC8itLfwdIglBZAFt2TGvSh4SlbHxcDH6YRcUUIMGEI+J/gCua6scl1SpJDEJW1UzV0wp4ZJ+7tyYYOOaTuSfCem6KRyPNyjfFkYCCkh18Hg5Hhb+DkeJbihBeLz4vsRZ5iShbDxe6bp4T+18TJZbUU3Kcfd2Jo83ik60BbzLOqzjke7HNsepKalEpkVcXKw2c0bpxXK49WDPDuPh7An3EZjHW04UKvdUqUyvcrD3UszPHTzESy65hCZMmEAmHq+kumO7n6A83mSuq2wct5tqeLBEJPEuMV5Jik16dtK96jW7M3i8sAENvJAFrIk8Xm6OYbtBMWDv4vECeLeIPF7THLuqZlfVXIkPLtXsUs0u1exSzVgFOvp36kTeUaUrrsqIbdwhpZrdGW8YTGzpIwe8Dngd8DrgdcAbnatywMt0d3HAGzYUqQrVAW/0PLkGGt582M54bV2VcLxjSq3bOuBJnatwvIBrcnUZts5VXIRi61ylRdpdcZXT49XewgGvA95KR+mqmsNdlbiilOpqGYnr4sXVE0gtI6WioY0bN6qWkZMmTQrUMhI2wXXicnq8nht1wBvefDqRBG8ubGl1B7wOeB3wRmSBbNWgDnjDk+WA1wGvv9jPAe9uBLy23YFNFpDjp6IAsrQUTcZRoh5bBSmlUPHeVlQ1BxBJsKXD9mYeb6RIAtSJMMdBRBL8Z8d+ByDNcbKygK5XcxhwuLVVXalm23NXqWaGTlSdqWYtbGKiE9lSzfBT6elpfhOujKY5kYQ9kcfL2dPu2kCDE6KQI94yAi0OlC3/S6KnGelEEoUA72leH/dDmHgTnUhflythD0ohwPdA/wDnklOmwFhN51Dx0CW48eqyeXCWTXw1TaHhNhJBxoRrwjngnk1qMpX3w9BzbHMcSf/AnEbyePHfHGUrkev67Ub6rpYFBJ0oyByzlJQQiEhmKTbMoaYTmRoeSFSweGyce+6aTnT99dfHpJr1uoMNV6U9YSwQJsf18Wyrco41f55bd7hfEy8cY7LZk21t2dYs6EQm4NUUmqqYY1wjUhZQy0wmPMdlIUXJCjImHF+AT8udwVcHZQubJmzmTLKA8dhx0DHBnmDDJgywYZrNnrg1GwKPd+sWNccmPOSuy8oCgm+YJuzsJEkoWwMN88SAoF7KnlHZGh4gOuMmXSK+2zpX2cj4u5ssoE2yLvKcEPc2c+YsGjR4EHVHxLt1K+sobWldXJfT4JTSoFoWMEgDDduYghZX2RopBD3jtckCys0qopWl/E4gGVlAqbjKJgsoPXebLCCXrbAVCcazZrFZNgGvrbkD5pWzY1NTiTlz51KvigYa8E8meo6UzVPn0sUlqskIB7zSHO8KWUDd0Q8atabX7iYLCPuXGmhs3rzJGPHqmgInC5gWmyKyAe/enGr2gHcmDRo8mPbv1i1wqjmZdL5LNcdXDGNL67ozXnfG6854Q2w0jPXBcZZdcZUrrto1xVUOeKN8lqtqji7a4tpY2jZcjk7kzSPmSerNjiicO3+0SRWuW7+echs1MqaaXXHVblRchaHqdIwpjWArruIb+CdXXIXoDGe8pl1LMn1fXcTrIl5T2hZ/qyo6ERwvzuLWrFmjqES33XabkU6Es9ilS5dWnsliDCjq6NChg0p/7kw60cqVf9Avv6xQ9BzMQ/PmzalNmzZRaVjb8VB+fr7q6W46eqrO4iqc33OpZltxlZRq9uYiI6p/8Zw5cwiFVXticZV03Ah/bCo40jUFSLubXpKv1qlb7nexhnAkZXofuAN75M5/XcQbsKrZAW9491zl6kQu4q3WiBeN7IcPH06fffYZNW3alJ57bjF16NA+xi+tW7eOjjnmGAW82nH169ePbrnllspesdXF4/WfU82YMYPuv/9+NV4cB+AeVD3AoFMrwVdKf2MD8cILL6je1KbCFAe80UcMLuINHxU44DVsWXa3iBdRgqR44SLecMSLzQ1XhWorspEKmbzvovtRLI1sbzjjRQEMotwRI0ZQXl6eAiJTAQ+Ad9y4cXTTTTdR27Zt1epDgdAHH3ygKt379u1L//rXv6hJkyaEzwIMf/nlFzruuOOoY8eO9M477xDSu/guouQXX3xRVZ+ecsoptN9++9Gnn35Kb7zxBrVs2ZKGDBmirv3oo4/S2rVr6bTTTqM+ffpUpizvuusuBbjXXnutGuvf/vY3+vzzz2nKlCm0bNkyeu211yg3N5fOPvtsJWCyYsUKOrJfP/plxQpatWoVffTRR/Tss88SABzR4FNPPUWIgE8//XQlEKHP1XZ256riomLKzMrcY2QBpeIqe6oZ0qSxLXptkSfWMwoxXcTrdf8ybZpSiouLjbKAelH7sdVWUSipE2mQM0mMxVNmzlXvafoHqB8cnUj6LkePwr1L1aC4V0QfJqUT2/1IlXK2zYCkToR7ke4VvytJL0Y+dzhMpMogC9ita1faXlio0vkmWUBN/+CoI0HnGICCZwDqlImGIdE/bGo+0piQjsR9muhE8Ty7RKQK4RynT5+ugLd169bqXk2AAyDFZ4499lgFrpgPyM2tXr2axo8fr0AOwHnjjTfS5MmTFYB27dpVAdy0adNo6tSpCtTHjBmjgLJdu3YqNffVV18pQMd3BgwYQP/+979VZL18+XJFq+rRo4cCVbyPlDJes2fPVmB67rnnqqMnAGe3bt0UiGIsGOeXX36pUrr4PjYEAOW33nqLvv32WzW25557TqXW77nnHvXf++67L7333nuKwobfkaqaJTuWnjtsCZsN3LepqhnvS70EEl1bd999t5IF1Klmzj9pWzRVLttkAfE8UkAzMwRC2MxwdCLJt1X6amQgDde1+UXMMUeztFWOS7KA0ppV9DSsnfRYmUnbsQdnTzY/juvidzk6EXfdlIKCAiPwSgYm0SVgJPiH45hK0aX0MG2AggcNJ2lKtdnoHzZQ4BwAxgvgNVFdpE0G7FgcU6icykJlLLUKYITrm7RixYIWNCmxULYinzuAFzzEgQMHKgeOOUaK0wQKtohXojxIzx2LVAOvaRNoc8DcIpbsCb+De4UtmWoGbPYk2bgJtOEc77jjDho2bFgl8Jo2MPjcRRddRCeddBLts88+ajo6d+6szlbxnACmALdDDz2UrrnmGrrssssU6I0ePVpFw++++y5NnDhR2d7YsWPpiCOOULaLSBgA+OCDD6r3ECH/+c9/pldffVUB6uGHH67++6CDDlLzgTmF3N3bb7+t/gZwRtQN8EZ0jKj6qquuot9++01dV4P4zTffrH7rhx9+oP79+9OiRYvUZgHpZqTM4bywcbhj+h102OGHUVpqGqWmxcor2jamNuCV1iwXoWCubTajQTvSTrGpwDPABokLDGz3YwNeyVejuYNJL1xHrVxhnG1MpnvV9603N5wmuwe8WUYtX2lTqwMh7jhFU0pN79uA10azhGypSd4S14WfTFR/vsbIAmpDkHabXLpS3zxXXJWMo5SMXvPVOMFnCRSkIgIYvXTYD8eBezZp1NoqSbVjMRU2+OdpZ9KJuOceTjXnxCxUnX0J1qsZjWD4zQ0WMaIT0+amqquaEfECMEeNupDyWudRTt26bKoZgIbIE6lhFemkpKiFDw1fACF6PQ8ePFgB7xVXXEHoOIbz4+OPP16lfxH54vMAcIAvIueff/6Zjj76aLWJRBQLQOzUqROdf/75hLEBVHHt++67j7p3765+F6lm2NJ1112nIkec9yKtjfTyli1b6brrrlUAi/NngDbS2IjqH374YZWGPOGEE+ivf/0rnXfeeWocl156qYp6MRaMH/+bE0mwZd0k+gfGLBVX2aIx3LvER/dHtPEWV0lcaamq2bYZCJpqjiedXB3FVbYqbQnwUVyF7CMHvFLtS9DiKsw/NpoJd64qhxX7Xjbn7aqavQmzAa+UtpIrrWV6AaIxPDYOeF1xlfd8qquBxq4EXpy14rwWUQxsoH37DpSRkU7PPPMMXXLxJTRn7hx17opUMAqf2rdvT2+++Sbdeeed6m8A3saNG6tUMFLDyGCg0AnAB2DEscJ///tfFX3CkSFzhc8hLQxON/43XrgeMi9IK8PRIZ2NCBkRLKLcCy64gL744guVKUFkjej75JNPpsWLF6sMyllnnaXGiQ0CQBtRO1LN77//PiE926xZM6dOVOGXHZ0oDFBS4OCqmnfsMIbeUoeWZHs1u6pmzzjlOS5XYMTtVP1VqDsz4uVSXntLcVU8ES8iNZyRIuWs98s4CwV4AkwBsgA7POOFCxeqNDDSm0jjtmrVSgEqUp4A7V9//VUBMsATaV+A3pIlS1RkiqgBIIln8so//kEb1q9Xn+ndu3dlNAGwhq1hEwDgRcEUzoqRlkZx1SeffKKi3xNPPFFtEAGoiKZxrowoG/9++eWXVWSNsf3j1Vdp65YtKjpGNL+riqscncjzI7asmwSAu2uvZtdAI4BIggNeB7z+zM2eFvFKVaiRmyZUNOtoEqlm2zGOJJKgi0u49Ko0JlvmzDXQCK9Z10AjnKXC8Uki6Xy97l3E6yJetWN0qeawY7HTidKM3XVcxBveTsQLvIhGEF3inFQXObqWkeHjIddAw5sLO52Ib6PoIl5vDsvKQsT1atZZAyOdKIRmxb6XXAHmdZiqapEEfSbHVazZqtK2QCSB6VwVe2BfTkhto0weNy9WWpeUKrEIrswfi9hUNZhUVXMFaHNzrNVkTJXjtnmyVdziOejdZmWqedAgVVRTXSIJUlWzFklA+tNkp/p+TM8n2YgXqSeOThQ5T5Hjiqfwx7+jRwHM7bffTqNGjVJpV9xropXj/mMCU/TPUZxgwxgTx0SwsRi4YwLbmBDxIg1tsnNb8aE0Jum54z3YMdZsVYskmDY3KK4CnQhpehTqmexJOh5S2YoaKpLAFTXq2pc9RSRBsifYOCcLKD27QLKAcC4muoPeRdlkAbnvai6oyYniN7nfxd91qpnjyeGaobJS+uX7b+jrj96irZs2UHatutT9sD9R2849KDO7doxjxx+kMeGB6N0zpxyCMnQTEQ7qT/h7oveKncKOoh2VMm7+QdvmSXp2+txQj0nLAg4aNEhVx2rgNTc1CKl74e4H4zS9Z5vjeGQBq8OeNJ0oqCygNCbcc+T7SJEBeHUDDRPH1Ntdl6nvGedYkDm0zTE2cngBGGKuXU4UKg+x6922ZrnnDlsD/xH3GsSeJDsOvGbLSdH4JOlFzsZNc+yXBcRGznSOKK1ZdV1BFtC/Zv2bQNgWAJDzT0El+DDHnI0DeDlZQG3HXCpZenZ6jrnfhT1h88i1chVtpqzifgykZWmOJR6vtO5qDJ2oWouryspo0/rV9N7iv9KHrz9DJUVFgAGiFEjVZVCvw4+nE88bS81at48xUNe5yvVqNkWP+FtV9WqOl04Ub6rZtIN0qWZvVmx0Ildc5c2TK64KryI54g2Yat4b6EQ7CrfTM/fcSh//83nVmtAUJbZq14UuvPFuyt2nZdTbDngd8DrgLROPlrAB4YTWpbN9V1zlWRbmyBVXeXMhHTHojZPr1WzYWte0Xs1Iz335f2/Q43MmUUnRDlMwoP6WmppGxw35C518/qXIiVZ+zgGvA14HvA54dYoU/5Yqbp06kVe05dSJwlkDY3HVnh7xFm7bSk/Mmkj//fBN9kxCO9bWHfani6c8QLVz6jvgJVKLB00TBjl1oijs3VUNNFyqWUeIEDbh+ejJdK5yqWaXajZttLm2wYGrmvd04N2cv47mXz+cVv/2E6Wg0AkvVHBmZ1Mheh6HQpXz3GifFnTR5AXUfN+ODngd8Na4lpEOeB3w+kHB1mJx3fr1lNuokTHocHSi+DYZNeKM13boXl2pZhgYzkK4qmXdINtfNZi/5g+6e/wwWr/mNwW82Lm0ad2S+h95CH2x5Bv6dukPlYIF9Rrm0ojxd1K7Hn0d8EYCr65qLiigunXqGIuKbCIJjsfLn2HFU1yl1x13nmqj7iRbXMVRR5JtoMHRiTBerlczGJC7KuLFc5A1jzOieorH26t5bzvjzc6uZRRJ2GvOeIuKimJ4vHARMDCJ/iGVkms6kaENtAJPiWrBvSeNSaITrfv1e7r/lstow/rV1KhBfTrwwB7UuVM7qlUri4qLS+mXFb/Tx58uoVWr11JO/QZ07uWTqUOfo7yq54rCB44SBGen6USmw2NpDqUS9crfTY1VZsF7kiygjZpgG1OKqvb2qD+aToT+vaATIfXMSdZJ160KezL1pbZdN5kx4d6xyePoH17ixCSY5hXLcHZsopGB8jH19qk0fMRwpU6EezV9X4tucLZmo4qZxou/aV44Wk+aXkHXrM3GbfQPbo5tNi6NF44dVBeTlKc+x+XOcG334/9dPEOoOEGdCFrGgelEkj1VtNrnbBHtRYPQiWw+yDbHur+ByZ5sdhxkbeH+wacNTCcKOMfx0IlMazmltLQ0Bnhthi0pRGCnCmAwNTzAdTFQzrClByKpcGjgheMI70ZTaMfW9fT1PxbSip++o8ZNcim3cWOqVSubameHxZ2LS8po67ZC2pyfT2vXbaCmTZtR74FjqU7jPGUzNomxoAaG+8GLc9DSXNiAN5k5jhyTn8crAa/IMRU42DZnp3m84Hv6XzZ7snFMpXnCvQJ4uYYHQZ+daZ6gs6sbaOS1bq2yCia7kBqNSOvDNseax2sCXtscJ/Pc4SixyeCkPFnOMrjFIU9X2rhREHiverPMAa/UkcnmF/1rFuPXDTTQI5tTT8N1xSY+FRrBQTZcsC0o53ANZrimKvgtyc9L/gnfw/oxadTiupLITjJ+UbIn2xzbsIfjO2vgxebGFGhyc7hH83i3bVxNy1+/nxrUz6aMrExat3EbFZWUUl5TKLt4Zrxu0zbauq2I2rdqRCUlpbRxUwHt1+88atCig3rfVTW74iq/w3PFVeEZSTbVjA2VCXhraqoZd+6qmj2/WB2ygHtNqnlPLq4qLS6k1Us/pNINyym1vEQVVak2R0FHLwAAIABJREFUkQp08f+8VCEyhvhbOaVSSk5ratbjWMqs5bUodMDrgNcBr6MT6ayBA15vNTjg9ebBVTUXFBhTOWUlhbT288VUvHVdRbrFS3cX7SimzKyMit2rB8Bp2TnUpOdAysxpUulrHfA64HXA64DXAW/0KnDA64BXASknC1hWDOB9jooL1ivgTatVjzJq1ycUuaSklFNZ0Q4q2ZavIuC0rLrUuOcAyqq3jwNeRydydCKLvrM+r3Odq8JRoGug4RpoaPDQTIQqaaCBlGxJSbGx2lMvRBT/1KtXzx8oWETaPdUjjrYgKXjIwLudVn/2LJVtB7imUEZOE6rf9hBKr1WfSndsoS0rPqXizavVWFOz6lKTnqdQVr1mDngd8Drg3RnAW6cupWfEtnF1Z7zR5+gm5x1PFO54vDoy5emoNopstfB4y8rKYquaQ+VKkSSIGLGtqjlo9Z5c1Uy0desWQlVm9IF/Cm3bvJ7++dcptF+rhtSoUQPvbDcllVJS06k8VEZU7lUXb99eSL+s2kR9Boyl3OZtKivUpEpSW/WeVBVoq96TvouNDb7PybhJ1bqJjAlZhFmzZlGkOhGnJpNMxa0sC1hMxcVFbJW8TebQ427H0n5s1bq2qmZ8n1sftmpQZF4iq5Z1VfPIkaMoL8+TBTRVNUtcXFsjBWlMoNdgTFxVs23NcpWxNhu3VTX75ykykrA9d64iWq9Zk5SnDhwkkOPGhO/65xif9csCmuhpmCcbz50rZLJVWq/fsEE10DBWNZeUUmqa19vA9JJsxsZswfrhZAF1dzDTb+K5SnMsVR9Lvb9tc2xbs5JiFey4YcNGFXVD0XfF+TZWFhBfD8JThHPAxHL0D4lrKPIfA8oCbs5fSwtuGEk7CjZQ547t6YBeXalW7WxlbBhL8Y5i+nrp96qRBs54L7xpATVp0bpy9iRKio2aYOPMcnNsW0w2OlEycxw5pm3bttPs2dHAy/F4bdQdmz1x5fqomoVNmXi88fAqg8qeVRuP18C7VDzeqVNp+HCZx5vsHHMONll7CioHCR4vnmtVywJK687xeMPAINkTPhWUv63nGJsbE8UmGR6vcYdQ8UfgDjYoUi8I6ftB3sP94XdBFTO9uDlMmE5kC8urq3OVLdXMda7atGENzbtuGK1duYJq165DJxzXj3JqZ6gqZjygHcVl9MbbH9KWzZsot3kejbnlPtqnVVuXat4LOlfBAXCRBOwJ75kW1N5IJ6quzlWOTlR96kTw1TriNYHRrmgZiTFho8c1a7HRiYKA4676TpWe8ep0jCllot+rSWe8AN67rxtGawC8derSmWcOpH1y63pkotRU2rh5Oz23+FXVQKNxizy66Jb7qGnLfSujfVfV7Kqa/Qt3bwReibPpiqs8C/GOAlzLyOpUJ9pVIBrkd/c64N1RVkZbSotpe1kJrc1fS88tuJ02rftDnYmec1Rfap6DzlXeuV/+9hJ68l+f0aatW6h+blM69cJrqVGTFlQvPYtyM7MoLeSd5XFnbrpDiz8tj0nX5wZc1xhVZW3ovoPoXurdijM5XN+UfpUyA3pMnBP19/t16kQu4pXsSW+0HfA64I0EJge83mzsNcCblZ1Nv5Vsp0d+XUbfbM2nIgBYeRmVlZaoSchOTaVTa9eiQ7atpUYlW2ljRl36ok4z+nthEW0OlaB9BqWqHWsK1UpLpw6169Pgpm2pb24LY4EOdrgOeMNOh9ug2AobpKwCsid4HylJ/wZGgwKXBpWqEW1jcqlm77k64A1Diq2AzUW83lzVBODdsaOIiktKKsIrJl5NSaHsrCzKMFTVB4lw/d/Za4D359JCmr5iCa0s3Eaphgb2qN3bt3YOoaNVLwrR15RGaZm16NfCAiquqG6OnDxMXLOs2nRNuwOoT8OmCpgjXw54w7Ph1InCu1wAPpdVMJ1hxaNOZIsuq1udyKWavb7teLmWkbuuc1U8gLhp8xa6ZtJU+vy/X1VmNmO/V07ZWZl00nFH07hLL6ScunXiuXRCn0kYeNEGq7w8ZOyhWhN5vNDUXbdpE939xzJ6b8saSmP3OeXUtlYOrSoupEIU1qSkUIc69emHbZupVDdvjtm2EPWol0s3dzqYGmVGV67t6cCLqE/RiQYPpv27dSP8t1QMUxMjXtCJ0tJi6RI1NuKtoBOZnLtUtVkTgVfyI1hmiv4RiMcbUiAobW444XK9ZlFx6z8+0hWqEMYwHQ/FB7zpUd/dk2UB/efZ2nXu6oj3uZdeo/E3TaOTTziWGjdqoOp5TK/vf/yJli7/kR659y7q2b1rQqAaz4dF4C0oKIgZFxaM6uRkOH+Uzgn1e5h46fzRlBrEd3WZucnoJUeJ7363aR3d9vs3tClUys5JOZVTm+y6tLm0hDaXFlN2apoC4mXbNgnfIaqVmkZXt96fDqsf7miFLyB6gbKLKQ1qux9pEdvmGPOL+TBVBup5MnEr4xkTPqOb1iONPm/e3TRgwADq1q2rklNDla+/qb2+LufsbCAnpYQ1nQjn86ZUs+Ysc+foQcaE+8G9crKA+tmZuH1BzvbB473zzjtp6NCh1KZNG/Vc/WtPX5fb3EjAa3vusGHMnwlwbOl8KdNhs3HYV7SiWHgZ2o4JNI830eeu16xJelFylBiZ7X5M/uuee+6h7t27E9SJML8mjrC0ZvG7tmwSxs35anBM0cyIq1Hh7MlWDyJxyvEebMqkAIXranUi7tlhrXObqngA7/Fn/0633zmXXn7mYWrXtg1t3bpNHRXC1mBzaelpVKd2bVr09As0fda99PCCGXRwn57xXNr4GdgUjsQSqfNJCUFV2veSmlXolBdX1awn3dy5yi5gLZHxOZJ5WShEb6/5le74eQmFzBKp6g5TqJyaZ9ahMiqnNcXbqXZaBrXKqk3fb98iTjqy1ue16EijWkfvinCvWhbQNOnSRsJEFMf9rVm7lpYtXUoHHXSQsWkEBqr1U00NNOQNCpxHKSvk7Xcs/gYaWhbQpCZjc5RSgwCpgUb4jDcnRjg7HpALAryYY+mMNx4HzImlm76LVHOlLGBentrIxQKv3NnNFo1JcxxPAw1uXQYFhcqIl1EnkuxJbySkORYbaGzbRvUMTUpsoBDPHPvHBD3eXr16qX+waeVkJqUIXgI5W5MSbOrQyCJROpEKLEpKjV3FdNDBzb/OKnANNLCmOd6r9otcOj8edNTA+/enHqJ2+7WhMVfcQJlZWTT5+ivo4qtupE7t96NbJo6jx595ie6YfS/99d4ZdFDv4MCLMcF2YpKlQoFtwjxeG/DuCh5vaShEb67+hWb8/F8qZ8TJ9aTkZmRRdloa/b5jGzVIz6SGGVm0orBABl4iGtCsLV21X6+oz1VVqhlO5qeffqKnn36aXn/9ddVIYdiwYcZFigG4qmbvMdiisWQ2A664KnqO3RmvO+ONdH67SiQhUeDdr21rOvnMkZSZmUH3zZ5Kg88dTd27daKFc6dVKfCaxpXwGa8tNSgJGdd04K2XnqHA9ufCrdQYIJyaTn/s2OZpAzIvvFMdwIvd3Zo1axTgYme8cuVKOuaYY+iZZ55R1Ke0tNgethhiUZHXMrJWrdqGXRbO58spNdUsEo6Il7suxMXx0t/dtq1Atbw77fTTvTPeggIl0s7pp9bEM97qiHgdjzdsdk6PNzwXrqrZm4tdfcYbGfECeAcMGaVS1/fNvp0Gn/cX6t61E903Z6oDXi9UDy6SkEjEWzctnZpkZivgbZKRTYCa/OIdSQFv/QYNYsq5cD+hUKkCMdNZBhbpc889p1oFLl++XJ0f4XNdunShHj16KGDlzm10yssEgDr1xLXxk9rE+dNWABgUwMycOZO6du3qgLfCxzrgdcBr2qM74HXAG2kXe0XE+0+kmlcsIU/yQL/CYvf6L7XS0qhrnYa0uayEctLSVUVzQWmJAXijvzvQkGqGA163fgP98sda2lZY6FuLOM8GeKKiNjqaBtWpaeNG1LBuLXr++efpkUceoWXLlqkD+pNOOkkBHc6CuDMUVLdKxVVcsQUGKDUDN53tA/wbN26szohcxOs9Yge8Dngd8JawBVA7O+KFv4s8Yn1y8cs0BcVVTz1EcUW8C2ZQn949lH4OXDW8NadTwKZFDW/s8cALwPh25Y/05o+fVAJvae0G9GuturSsYGPUlKCS+cq2PejwBk3of4UFNH75f2hHKBKuy6lVdl3qFCqjzE1rPMhMITogrwsd1/GQqGthh/vOB/+h+Yuep23bd8T1TFLKy6lRo/p01ejz6OCe3dQDRlT52muv0V133UUohpg9ezYNHDiQNezgxVVeN614O1dF3hCibAe8Dnj9Ru5SzeEZcRHvzo94C3fsoC+WfKuECrxXCn306Rf0xDMv0EtPPqiA95SzRlBGZiYtnDU1nGqe66Wap8yYR1dePIo6d2injujgjxs0qEcd2rWlunVij/LicvIVHxKBt7S0NKGqZltFIRYiJgGl5P5X5Xdxdmk4UoVzl+SX2LL5UIjyf/qCVn3xj4q5T6HcjofS/1p3p5t++DQaeNPS6fK0OtRm3RL6pVM7mrs2hYoqzjbxwfSUFBrWsjOdsH0jrfzsFUpBqphwvYOp+QEnRl1rXf5GmrnwMfrsq+VEKRxbzB8Ip9CfjzmcLht+VlQrStwbQBfnvaAAXHbZZewcajUZrqpZinhtc4zRmiog8T1UcOM3Y+lESKvzcl62KnlpTLAl2BRH2cK1OZsxVY7rpyGNCfOnZQFN1ZfSdW3rw/TdsCzgSGrdurVRscdWwR0C956hAOKepTlGsR5eoFskWp0vVUvb5ljLApo2gsnMsTQmzUQwUWxsc2yrZo89HkqhuXPnUM+ePal3794qi8VVNdtocRLbQ6IT5efns1XNqFrmZAFtdixlzvQcN2gAGdboVzyULdxrPFXNJaWlNO76W+if7/xfhT6854MR/QI0n310AbVq2ZxeeeMdSk9Lo36HHUz/ePNdapLbkI46si+98trbdM1NU9V7uuFSqLycQPS5YuwIGjPyvLhwFvekj+kivyDR+FJKSkpi9XgFCT69iKXuLQAGDni9wh+z/qOm35ju1ksnMN+Fo1z1LW3+/t0KPE+hum360LcN96Mbv/8k6nK109LoxJwu1Dx/Oe3f+A+6clNLKgqVVH4GTTUAvAPKC2nTd+8oIQU8yTote1CDTkdXlo3DQb3x/kd018LHlMOL61VO1KB+Dk255mLquJ8nPeh3dJgbXa3LzXEyMm7SHEvnvxqMOFlAybGLz64CFLh7BehqXrgJFLizcMyt7X4kW8QmAxsMzlFyZ+i29WEaE5wj6EQjR4aBl9v8SBtTbtOk54Jbd8igaOA1OUppjpN57jY9Xu5etaPjbEZ67noDyXFMJQqgzY71JlDPIcaPoknUbIDHi02ciYZpux+bXzT5ET0GDbxcQxBujm12LI0JoKxb6Zr8olQRrW0tHuDdurWATj1nNNWpU5tuGHdxpW+GN27UoB517tRelAgsKiqmL5cup5IdxZXDRDB16/S5dEz/w+iuKRPicuu6GNn0YW597BF0InSuKlj5DeUvf6sSzHL2PYiWNmpHE5f/J2o+kGq+bN+edHj9XPq9aDNdvfwz1dNZvzJSUmlEqy50Svk2yl/+NqHzEZL/dVv1pNwuf6r8XP7mLXTbnAfpi2+Xk0Fn3fjA0tPSaeDx/Wj0OadRelqqAt2aLJIQeRMu1RyeDXfGG54Ll2oOz4VLNXtzsbPOeDXwts5rRQvn3k7Pvfgqde/aWdXPvP3+v+m4Y46kJo0b0Suvv6MaaBzT7zB65c13KK95MzrkoAPom6Xf0fIf/kdH9+tLy777kfLzN9EBPbrR2SMupcP7HkgzbosPeDl03uPPeBMBXoBki8y6lJORQTtCpbRi+9aoeDUe4EWK4433PqJ5jzxNJSXh3ZK4PSpPobatW9CUay+mFvs0UWetDni9GXMiCetpypQpNGrUhZTXOo9yDA00tEPjlICwMcJCl5oacGISUqpZZ18cj9fxeCP9W03g8UYC77wZN1GffgPpstFDqWuXjjT68vH01MPz6aDePejk04dTemYG3T93Op0yZCQd068v3XHLDXTPA4/SY08+Tw8tuJP+uugZWvL1UkU5Gjbmajqi70EOeHWqjOvukgjw4lpIDeMcwFS9Fg/w/rpyFU28cwH9tmqNRP+NwuG0lDQaftYAOv+0P6u/O+CNjhQ4DrBTJ4ovunTAG52RkHo14xiBO+NFTUFyvZqdHm88ES/m2HT0IflFf2ATDbyT6dCjB9HYUecr4B175QRa9OBcOvCA7jTgrFGqgca9s26nU88dTUcdeShNmzye7n3oMdU28oF50+lvTzxHX36znObfdSsNG3OVA1492dLOuzxURltXfkMbVao5RUWSXKrZlrS3AS8c3NMvv0kLFz1PqWlCf8rIHypPofb7tqKbrhxNeS2aOeD1PQQX8bqI178uYRNwzOajGHvrWQe83oyuW7+echs1SrhlpE6TSq2BpSwIzngbNWpkdLfYTH/11Veq4A/n35F92AMBb6uWNH/mLTRwyGgaevZg6tC+LU245U6aM30y9erRlYaPvVplggC2F146ng45qBfdcPUltOip5+n5v79Od9x6PS1+6TX6dvkPdPOEcTT0L+Mc8MYHvKEI4PUKlqoLeH9duYZunrWQfv7994qh4Qw4mj2s3ihX8bSKr2tlZ9GY80+nAcf1qyymchGvi3j1DDhZwNgObQ54ozMdJnEFfMLWP7omAi+K+T744AM655xz6Nhjj6Vrr71WVX4D5IMAb16rlvTIvTNo/YaNVLt2LUpPT6PNm7dS/Xo5lJWVSfkbNymOLmhC+Rs3K/1dvLd9eyFtL9xB9evnEPR7YXPbt++gM4eNrX7gZUUSQuVKxcH/0h2mpN0OdjQmkQRdri/JeXFnVHLzfxRXfVsR8YaBF1XNk7772BbkRr2PqubheV1oQGh7THFVw07H0K9/rKZPv1yqKmbxT3FJsRJTNvGjvCrHFKWE0f+Q3lG8MBs1QeLbJsPjxe8m0sA/cuOD/sVQdQkikmBr6sHRJTSdiKuSt2nfVkfLyGSeHafHaxNJwHPwMgPpyqb8L1uq2SaSgOuZ6Gm2NWsTScAa4OxNkgW0iSTYnrsk6iAJm0jKOTaQM1Fs0HIVoIJ/TMpeCBJ0VXNQtgeeHdfwAXMMCcSqrmr2V3BH2iPmSau2mZwv5gkR75FHHqk2DhBTOP300+mCCy5QtCuTOpfpOjrVrIF385atyhenZ6RTQcE2pbELO8DnEAOh3S3+N/CnVq1s2lFURKhsBvUI/xsNj/D+GUMTB148Q9OLE7hIKSwsNH4DF+IepvQefoiTBVSBYMDrit+FjNvqpbT1x/fVvWPctfN60zf196Wb//dFQsCbTik0rEVHOqV8O23+4b2KqmaiWs06U922h1FKOaJbjw6F/1VYVMrKX0UuCD/PS5oH2zzZ6ETSQgz6uxi/5vFyrSylbi9Bn/susacKIQoABkf/CDrHeoFGzhWcI1qHQhhD83hNTjjoHMZjT/gMpxhTXb+7ZcsWIy9cjzfoHEsLvqy0jLZt32Zcs7Z5SnTt4BnOmzeP3n33XcrNzVUgINFkTLZhG5PNucFXcGfW3O/pawZ97vAVemNk8gm4LrjrL7/8chT/FYD4pz/9iRYuXEh5eXm2W1MgCToRqprvnjGZTj37LzT07NOoa5f2dN2N02jenTdT926daeTYayk1PVUVVF142Xjqe1Bvuu7Ki+jRJ5+nF15+nabfcj0988I/6Lsf/ke3TLiSLkgw1YzNA/yU6cXNYcJ0Iin3r9/jIl59TmvW47XLnuH7pmjZO+ONjXiXNtyPJiYc8abSCES85dtpw7K3KoE3JTWdUtIyozi7WY3bUVarQ6h+/XoJaTHiAQVNNWOOdcRr0jyGEegoIxF9SIxJipo0nQjRu/8Z6KiIP5PzsgNSxW11FFfZojG2WM/SQEPTiTjNY13xyemN+qvZw6nmUZTXurVRiEKvrSBVzfr5cFXN2FDhxWke6yyJ6X4kOpFkTxiT1EDDlmouLfVaFiaqx2troIEMCzZbHI+aqxwPz3F0cdWvv/5a2Q4W4428LsDnoYceUq1ijzrqKNUPHdGpf31J0aUNPFGxbmqMogKHUEjNX5AASwJlDbzc+TDehxrbuHHjKnvUY4zHHXccnX/++XTiiSeqhjm2l7+46pCjT6WLR11AXTt3oDFXTqDHH5xHB/buTqecNbJCJGEqnXrOhXQ0iqtuvp4WVBRXPThvOj2C4qqvl9E9M2+r8uIq05pNGHgxGTVNnSjRqmbpgeriqkFZRGuXvMz37Cwvp8ymHanWvv12KvBi7DtLFjBynhyPNzwbjscbngvH4w3PhYnHq99FdB/ZuQqbneuuu04d3Vx//fUq3coBIOZ4TzvjRar5iCOOUJsCNBeZNGmSinYB6NKxVKRP8gNv32MG0RhUNXfuSBePm0CPPeBVNQ+EOlFmJt07cwqdet5oOvqIQ2mqqmpeRI8//QLdfzeqmp/1qppnuKrmKHyUq5rjb6Bh20Vp4D0ztwmtXfJ3Kt22QRVIxZzhOuCNmkpbdLkrIl6nx+sHhXSjc3c8Xm+e4PCrmk5kAl7Y5c0330xoqXj55ZerTBD+xkWIeyLwvvfeezR//ny69NJLqW/fvmoubJlAv++uBN5WLemeWbfRjVNm0fHHHEHNmjamvz2xmC4bM5zatsmjO+bcp1L8oy4YQjPvvl+ln4ecdgr9893/ow/+/QmNHn42vfd//6Hffl9N55wxgM678IrqL64qN5wKS4VMe0vEe26rDlS8dS3lf/celRSsJ6Szo14A3iYdKLvN4S7itTTBsNmToxM5OpHfqdpSzdCVloo0awqdyAS8SLOOHz+e7r//fkW5saVm90TgxXEZ0ur+M++gVc1/u++uqPqhyFR4ZDo+6n97uy21GdV//2PVWjpj6BgHvNpwd3bEe25eR/XTxTu2UXlJIaWUl0V1uIImQllKOu0oS6MGDWKrBm3nakHPeF2qOeyipZoBvXuujqpml2p2qWZT5izeVPOLL75IOPsdM2aMinL3RuBFitn0CgK8rVu1pAfnT6dl3/1E+zTJpexa2fTrbyupfbt9VZXzDz/9rAA+r2Vz+vF/K6hB/frUvFlTWrtuA+Vv3EhtWreiNWvXU3FxCdWulU1nDru45gGvXFwFykOxKhYw0YnCjjK6AKFi40EomOAKQHTRkLm4ikk1N2xHE7+L7tVsSzVDnWhkXhc6t1Un9VEpGsN7uhl4ooVMQYEXVeuFhdvVDs1UXCXPsScLmJ4eO/8aqPBvUxGUdMarKWZcgVRNjXj54iqigoKtKqIyVfrGA7zSHNuKq0wtI5MrrpILF3HeiDGZinBsm5vgxVVEmzdvUjZsWtO7MuLliqvk567n2Ly2Is94tXBC//79VbFVuAo409gJL2jEi3W5foPcQIOrtJb8vPaLtgYaDRs2irkfjGnHjkK1ruItPuR8tr9l5FEnnU1/GX4Ode7Ynq4YfzM9vOAuOqBHVzrjgrGUmZVJc6dPprOGX0JHHX4ITZ4wjh545El6evHLNH/mrap15LfLvqe7pk6iYRdVbecq+AI/BZBVJ4IxcLQR7j2dhpZkAYNeF9/jDt3Ly0O07Y+ltPn7d9QzwgOt07oPLWu4H93642c2rI16P5VSaWjLjnRWi/bq73DOuB7X3gzAa+LJYay6GtFkYIpeVE5Klsv/0t/lqAc2Hi+ux9FRpGenKU+m7+I9iccrqdRI19VzzKmkwJbghOGgOXWiVEg3GpqISVWbtjnGc00H8CqOdvRLuh/bdU32pNWJRowYoWgUqOg0PXvbmbVUlCI9H3XGCwqeIQpR91MWMnL6bc9OzxNXOat4vHXrGjd68cyxJAfJvSdVNevNpyTBx60t21xomUlsbqZNm0YDBgxQVcxe0OH5Cm69Sxxs7Re5+0XlNAq3uCptzrfZxiTZkyQLaANtPQ+JqBOBTjRvxmRCcdXYkedTF7SMHDeRFj0wxyuuOmskpWdm0n2zbqdB546m/pUtIxfRomdeoAfmTlNnwl9+syxQy0gdWHARvMmeUkx6vLZJNxHF9Y/GpcebHtupRhuuJPXFOpbyEBX8sZQ2ffd2JfDWbXMgpbU+kFYWbafyULlqJJWqlIZ8L1VFF1K6u96Xy6lxRjblZmSr/5SMHu9pMn6i4GlzLFKjC2QU8H2u4YG0iHFdaY45x6KAt6BANQPhImJJxg3PTmoQwH1XywKa6AU2O5Wcg+272lGaZAGlzZjNjk3fDevxgk6Up+hEHPBKoGAD3iAbOds8SetDV6hyz90mC8iDgqf/zN2P9Nz1mkVGzrQh5hoe4LnaNpCSX4Q9IZJGpHfTTTeprk2dO3eurOKV1rt0Xdscw7Zwjpwo7Ur7PrbZTmkZuxmzAa/EisEmD8FIosB7952T6ag/n00XDj9bidpfef0t9PA9M+iAnt1UxAuRhHnTJ9OQ4ZdS/yMOUa0hEfE+tfjvdM9dt9FjT79A3yz7jmbennjEq9dIQsC75xZXHUwN2h2mDE5O62K3yXdzqmmpZjxcRyfyTNyWBrVFiPg+51gQ3SeTapYKf/hUs1Mn0s5rV6aaq1IkQd9PZKoZwHv22WdXRrzujDcMWUHOeNG56qH50+mLL7+hls2bUVZmJv244lfav0sHtYn9aulylV3s1L4tfbP0e8pt1ID2bZNHK1etpjVr1lPHDvvRqjVrqXB7oarXGTL8kpp3xosp2j14vA54TVG41GovngYaMGQTWDk6kTfbuqjOAa+3MZI2N1Kq2QFvePUGPePFFWpqr+aqLK4C8KKqGcVRaRU656WlZaonMza5JSWlihIKv4X/jc8goo5sNqR9HwqugrSMNEW7+pzcxMHegxtoOOB1wFuq0tvcmbWLeD0LcTze8KZpZ/B4XcRbqAp2nKCaAAAgAElEQVT5uNSsPyNk/CBRRMvIlrRg1m00Y85C6n/Eoapi+cnn/k6jhg6hVi2a0T0PLKKsrHQaMvgUuvehx1Vnq1NOPIbe//AT+uyLL+m8swbRBx99QqvXrKcBJx1L54663EW8etJ1WjH+qmYHvA54HfBGpm45xoADXge8Jl+BrEN1yAKiOLRqgdcrroIe78WjKoqrIvV4h4yizAxPj3fguWgZ2denx3sHPfLEs/SVKq6q+paRNTrixYO3FTaw9I9QJJ0IhOhUytn3YGrY7jBVrenOeONLg9pSzSgQ4dSJkk81m1V3UEiGa6O4yl8gsiee8bZGcRVT1RyUumNbW8kAbzLPPWiqOZ50fk1uoOEi3uoBXq6qeQBaRmZkVFtVMxeRi6nmsrJQjDoRio3wAk0j9lWuHGFGRqbx9zSPNyenXsz7qB72qvcyjNf1Km7NFc8Yk1e1Gfu+phPlL39LKeACbOvtezDVb3uo+t/S/eC7XhWw+XfBLfYqSWMrovEeqprr1TM30EB3HVzXVFGI97yqTZP0olb3MM8xeHBeVXOdmHn0ztWCzzH33HFdcFvxm2ZZQAiXpzE0puBzXFS0Q22cPM5yNGdI21PQOZae+7ZtBeo+s7K86vbIl2SLOEvSXGnTAjE99w0b1hNkAUeOHFmhTmSmE2FteVFrrC3KYwItDrYIW4vlXQF4wTP0OMvmOTavWY+7yq0P29rasmWzxZ5wTGD2QbY59qrkTWsWTIQC1WfA9H5xsSeSYJb55H0QnrU0x1g7uC4KtyZPnkxDhgyhLl00nUjyi0SlJSVK6o4bE++rifLzPTqR6V4le4rHjjl78qqaC6hBg4ZGjMCaNq0rPYec2Ir/YjEiCUedShdfCJGEjjRm3AR6HL2ae3enAWeOpIzMDLp39lQadM6FdFSkSMJTL9CDd0+nRx5/TtGJgogkeJXlplv1fIHJP6Vs2rQp5iu2EnWpvB3vYWdeHVQXnsdbTjsKNlF58VZKBUiWE6XVqkvp2fXVbJRBhSMgt1WiJuA9RGSmRhaeEQWj7uA+JXoB5hefMVFdbPSPoGMCSGmJsUSpLjZ7snECYVOm1JTtXpPh8SIdBpAzHW3YqGA2OpefJgMe74wZM2jo0KHUpk0bBYAcbzwZOpHElcaYOAlE2/2IFEAiSks10PiI1KYV92r6vo0KJq2PeNasSYnJlhmw0YmktQV7gi1hzU6ZMoXOOOMM6tixY9J0ItuYUJ1vyhbhXm1UMNscS7zjIvhFRmFIKs7Fb2K8XIo7Et4iezXfN/d2mj7rXup/+CHqjPeJZ1+ikeefRW1at6T5DzxK6WlpdO6Zp9KChxZR5/b70aBTjqf3P/yYPv5sCV0wZDB99MkX9Psfq2ngn3HGeyUd0fdAmnHbBC6Yjfo77gfP1/TisJItrvJ2UeYFo2XPTD+E9zAIU+cqG6BIgK6J4qaH7UVjBco5B3GUNg4d5+w0X61+/QaGDi0eeHLflbigtlQaABDf5zpXSXzOZObY1kCD412GwKMuD9YgQDfQ4Hi8ycyxBCiqgUZ6urFzFX4TL8nxsPxHQ0MWyAIi4h01apTYQMN2FGN77nh/2/btSvA78oUIBBx3KLgY9+3lKnFE2dlZqslGZAbH5rylOZZ4vBIVTIOGNMfcJgPXLUCWKifH6N+kCmLJB9k22lg7AF0Aio54IxtoSD5I8rc24F0PHi/TQEOyJ70JkarzJZlPrB9E2qaXLmAzvWe7n1jgvZCaNd2HZk6dQCFGjD4u9Kz40Lr1+TTmiol05GEH0Ywp8QEvd33tx021FXtEVbMGXuyeTTsld8brmYYN0G1nvGig4ehEXqSAl8nx2ObYZIthPd7q4/H+9vtKWvT0i/TRJ5/T9sIdUWlLbIrwMqUjU1LCabR2+7Wh0cPOoQN6dKvcdDhZwLDbjbdXszvjrZoz3sIdRTR87NX0zbfLqVHjhp6IXJIvNPBYl7+Rhp19Gk285tKkrrbH04kc8IbtQ6z+LvfOHLhdrAPe8DzuSQ004ADue+gxmjn/wSgFl3i9SgqVK59WWhaiA7p3U+dgLZrvo77ugNcBr9+OYBOIeNExy/SqqqpmXPt/K36hx558gQq2bY/XnOXPpRA1bZxLZww6mdq2aZXUNR3wlnqFTOY0tetcpa3LAe+eC7zXTppCz7/8BtWvl0Md2rej7OxwWjlUGlJ1O6a+4UBcOJBVq9fQL7+tpPT0NLp/7nQ68rCDHfD63LKLeL0J2ZnAi9/T6emkUDLyyyh6NTV/T/AHHPA64FUmY0uDOuDdM4EXZ1/jrr+FXn7tLZUmnnvHLdSqZbPKm/WqmlON59m6gO3RJ5+nO+fep5wc+JDH9D/MAa8DXiMU7WzgTRAPd9rHEwZeFF/g3Md0hoVCGVAIuKozTLokC4hUJ1c9qQt/ODUfjscLZ4DUIIqrEj/jldvauV7Nnp1i7nWFZKItIyVAx7WlObbxeHXqPFGJMVs7w12Was5rRTk5OcbsTFAebyTw9urRjebdcTO1atlcbcSKUJG5fbta6yhgw7yg9R4iYDQdwLzi+UE2bcbd9ycEvJIfwXPfuHEj5dTNqaDKRPtDuWWkR7+RCn8kHq9WFPMXj6r5KCpSRVBmCqBcVCcVK0m9mnEv+EfyqSZpOb0u8W9OSQ71A7m5uWwhGZ47p2Rma6DBSV864PVsWQTeoqIiMwOpHI0oDFprFaG9VPGsZQHxw/4XFjb3XXye+019LdP7eE9XNXMFLxiHdO0g72Gx6EVs2kbZ7lUak/RdgBHuGZQI/xzbqDtBxwSFp4JtBeo3ucpyTv5NG2EQe5LUiXSaKYg92b4LqktGukf/8E44wy/JFm3XNdk4AOj2qVNpxPDhFTzeOmybS+leOXvCvF89cQq98vrb1HP/LjRn+k3Uonkz2rxlK81Z8JASCgcgXzp6GH2z9Dt64G9PqkKrv4w8h3rt31VxFB976nmadc+DCnjnz7hVdf8JVXDguTGpNDXxaxpgBHsyb/BDar0GsRnJj2DN4tlic8OBK1etnsxzV/aUkaHuF8VV5557LnXo0KFy/UrrMuiahT2AqubxeGN9uXTdIHasV4hWgGrQoEGMf9KbBWmOMU+sTQnxqvTcqzPMxf1y6W5ujlNCCGF9L1vZfElxiSIkm142OpFU3GOjumBcHLAiQglS1RwPxYnbPStqgqDHa6O6SDtVaZ5serzSPNm4edyYdFYhaOcqG9WFo11hEwfwhaP0v5J5dslEvBKdyDYmE40M0m3gdtroRLaIl7UnospUs454W7ZoRmvXracx4ybSki+/oaP7H64A+V8ffkLjJ09TmysIh+MsF/eEVPNdlRHvFDq6n5dqTqZzlY1OxNVlxHNkEkSPF9fVHFMOqCQ7lmg/8E+RsoBQJ+rSpYuaQ6kgUs8xF93bfLWNToTnzEW8QX015kGiEyFw8Jq1xL70+uCAWZpjqRMarou5MrYcthSdStQ2ZHXQCAabDA4PHZ1Ide6JfmHf4WQBvTlxZ7xh29hlqebWeZRTxS0juVTzmrXrwsB71OE0d9pk1VQgCngPP4TKQyEV8c6Yl1iq2ba5CdoyEmsWXaKCppq9bnP1YgCnalLNSM/HumAnCxiek2SqmiXgReYIxyUmu7ABr5RWtwHv5s2bjBXcCZ/x2hZMTZMFdHSisFE7OlF4LqQFY7NxB7wVEa8D3kqDsjVOcVXN3lRV5xmvA16my42tuIorisA5Eoq2OAUVCVAc8Drg5YqrnCwgqY4+uqo5srjKRbzRnflcxBv2Izpaq2nqRA54HfCq8y2cZSC/73f8+hyK20jI3bQ8kQTO6EH/wPW5lpH85sY10NCuxUW8zckBrwPeZKqauVS/i3g9L1OlqWbbTmhXRbzB6UTujFeDkTvjdWe87ow3WTpRzTnjha9GcVVuo0bVQieqSuDVBBjU23A9322FZkHPeLEJ12e8kQGUrmKXCr5QXBXojLe0tNSoToTBcNwwqTIWwKvpRP4SA13xKQkHcNWIUvUerquBN4hIAnevuuCIMwRbVbMuJecqJEG3MHULslXG2qqapcpLPDtpjnHPpipHW1WzqVo3MroMOiYtkoDo3pRVkOZYuleMR7JxFOCkZ2RQdlZWTKWMdK/SdTl7QlWzlgXMyzPr8doyKIrOwNgTfveqCbepBhq9unejOdMnU8sW+9C69RtoLKqav/qWjup3GM2edhN98O9P6Pqbp1NaahrNnn4T9Yuoap45/wE1Zwtmoqq5r9rRe3MM2czYgiLbmkVVM4phTEwF2xzbqvNtVc3165ulPG29BLj1oZ57WYjS0k0yhkRQ0snKylTVvKATnXPOOdSpUyc1abbsiyREYZtjTSfi1K64oxgAIQrYJCEKqfIY68dU6YvrQo4wUhx+8Uuv0daCbYq0V7d2LTrqyL7UpLG53aRmisRaGxHsCXQtjQG4t3++8wEd1KcX5dStHaP4hme2avVaeuu9D2nlH6uVqtERhx5IHdq3pfyNm+jlV9+i3r32p81bttCqNeupTV5LatSgPrVvt28UDQy/axKEkPAupbi4OGFZQOnmJd6lzSlJvDJ8F/9wpe8S8OqdC8cB5q6rFwXHJ5Q4gdJ49XW5Razf57hsmsfLSeXZ7oe7ruaiccCLtDoAMFEebzxzwc2xticOeG33yl3XNibcq5Zx8y9yaZ5szw7f9Y8JzhHAO2IE9Hjz2DmWNhJ4b0dRkckfqb9NvHUGvfbP96hn9640Zxp4vPvQ+vX5NPbqSQp4jz7yMJo17UYFvDfcfIeS15w1dZICXrxAJ1I83rIymjn1RqXeotczlI20jC8ctW68YZtjiU5kmqfIm5N8hfRdzTH19Hhjdws2tSXJ3iS/CHvC0RHWLNSJALzg8eqUpG3zL/FepTFJPF7JnuKxY6mXA47DsLkxvSJpo3gGZ1wwlk487ig1P59/8RU1btyQJl17mWruAjRGm1KAVGHhDvXMatfKVv9GlKp6iJeWUa3sLHXsB53fYujFp6dT7dq16KobbqNLLxpGTXIbKWnArOzwRnrlqtV045RZBGpd34P70JKvv6Xl3/9Ed9w8npZ99wPNuudhmjz+cnrkycV0bP8jqFGDetSwUQPq2a2zWmulJWh6kq4Uv+rl1FMBJ55TZqbXeEZvtE2bQKdO5OhElWvDpZrDbmJ3qmrevHkLPf38K/Tu/31EBQXbjIDy+8pVqmEGgFd3rlqzdj2NvcqLeMHL9Xi8H9P1k6crBzJb83gr6ER3zbtfObu8ls2pbk7dStAA6sLPwNW0aNGcRp5/JvXuub8aBwCFi5ocnahrZcQr1XRIUoW2Sut16FxVw1PN548eR9MmX0sNGtSn5d/9SIueeZEmX38lzZr/gNJSH3r2afTZkq/pvQ/+o6ht5501mPr07k5T7vz/9q4Duqpi7X6hg/QapGP7bchTmoCAPEUR9YkNlWKhCkiTXgOBQCgp9F6ld5AuKNIEBaSI9fmw0RJEOoSQ/Gt/k8m9uXdKciNCdM5aWcq995wzZ87M7PnK/vZo9rbExMTSKy80oCqPVKAFyz6kfQcOU+7bcjF4h40az0ANznqpkrdT945tKGdOwSFeunI9bdzyKW8wAZa415iJMxnMT5/+nXZ/cYAef6wabfl0J/2nQT3W9i1erCjlyX0bTZw+l1W+Kj9cgZ5/ui7t2LOftmzdSQUL5KMmr75A9917N99DJoP5bvIc8DrgdcCr2JZnJOBdtXYTdesXxpM8UyZ1tTn5iNUqP0wjB/eh4GJFeae++ZMddOz4CSpdqiQ9UacmQT5w++69DLx1H6vGv8PivmDpagqPnEBXrkJSUHeI8pL33nMnCynAqnbAK/rK8Xg9Y8aXx9vwjVZ0913lKUvmLLTvwCF69ul/08v/aUAvv/kuvdfqTXr2qboUMW4avf7K87R6zSbae+AwjRrSl15s0pqGDexBv585R+MmzaTO7ZvTmEmzaELEYNry6S4qXKggrf/oEypTuiS99PzT1KX3YN5cli0tVIcAnjhav/1Gcox38Yq1tG3X51SnRlVa/9FW6tLuHRo7ZQ61bdGUPv50FxUrVpQOffU13R5clB6t+ggtWLKKKtx/N23Ztofat2xKuz7fT3v3H6KIoX3ptly5Mj7wYkcoM4Gxe/DOxvsr6UTe3FAsdFig4VLxdQXZYnIuq9kzEdNTq1nG+v7JdKI+g4bT/CWr2LUGa1RX3Q2uvOZNG9FT/66V4jeIxwVlysQi976HpPHFnv6dC2igvKT3gVKi3PdBRKd/P0MxMafZepg8OpwerfKwA96kznLAqwfexi07UWifLlQgfz767fhJ6hc6ksMePQaE0/xp0WyBjp8yh776+js6duIk5c2Tm7/v0nMwTR8/nH7+9Ri17tSbnnmyDp05e44G9+3KceSrcdeo/5BR1LHN21S65O3UqWcodXj3LbqzfFluzIw5i+n3P/6gzu2aM7Zg3sxesJx++eUYVa1ckT5ct5l6vd+WRo2bSp3bNqdVazZR3ry56Yt9B6hzuxZc7/yPP87S3EUraNnqjVThwf+ji5cus1U+LKQHA3+Gt3j37NlDM2fO5GQMTHQEs59++ml66KGHONYkazXrqpago3WygHhJP/30EycDFC1aNMXC4g0KiK0uWLCA7r//fqpcuTJh57Z8+XK6/fbbqU6dOikXpKQyZI5OZE8eccAbm1QysgWVCqByVVdI/q1aTw89cB9FDw/h3bjvIRcWFSgjHocDiSk64MW8kklA3r+5hgUrM5KrgmjanEUUNR6av0QTIodQ7RpVHfA64PUbU74W7xstOtLgvu8z8CLhr+eAcAoP7cUAPG/aaPrhv0ep35AI6tetPX3+5SFav+kTihoeQt37htHUseH08y/HqHXHXtS0UUPaumMPRYX3p8++2E85smWjDzd8TB3avEUlixejjr1CqWMbD/B+unMPRY2bTqF9u1CJ4sXo+MkYGjdlDjVp9AKdO3deAG/XdoSkQgDvyrUfUcGC+emLfQepQb3H6a47y9LKNZuIEhPo4JHvqOt7LemXX4/Tf4/+zO7mHDmyZ3zgXbhwIY0dN45GjRzJCVaLFy+mI0eO0Ny5czmgfvLkCc4YLFy4ME92WKJyt45ECqSa43uAK0rOnT4dyxVWINaMgRAaGkrVqlWjl19+mTsL8SckQsgi7rgndq3vvfceAz6SIwD2gwYNojJlylDr1q25IDnOhRoIiusDqJFAAsAvWLAQl6bEObDSYH2YEpUcj1fMV5s6kbN4ibr2HULLVq2jig/eR2NGDqL8+fLyThyJzoULFeCYFizWy5evUtYsmalQoYKUNWsWHof4HIsMrOXiwcXo6tU4+v3MGUgbUKEC+Xgcc0LSpct08aKQDyxapBAD7anY03T1ylVeMPPmzUNTZy+gyLFTuWDHhKgwql29igNeB7xW4H3t7fZ07dp1TqJC+OOVF56hZ+o9zhbv1DHD2Ipt9V5PKlOmFK/Lp2J+p2Eh3dkFPDp8AP1y7Dh16RlKEWG9qf+QKMqbLw+dPn2GIof2o4nT51Grd96g24sVod6DRrBbuXzZ0tymy1eu0LTZi2jtxi1UMH9+OnfhAjV46nFq+ebrtHX7Z7Tho0/ZfY37vNu8Ca3b9DEFFy3K6/iUWQsof758VKpkcWrW6D807YMldOnSZTrzx1l2lTd68TnOe9BavCqRBDPVgigeWWMakQQbnSjQwtsA2lmzZvEfdu1btmyh6dOn04QJE2jJkiW0c+dOBrPnn3+eHnjgAerRowdbrwDDEiVKUExMDC8WQ4cOpW+//Zavg38DqOvXr099+/alChUqULdu3fi6J06c4EWmRYsWVKtWLX5RAN5OnTrRU089RY0aNWKVEwm8ZcuWZYscbcD/t23bltsFSx3Ai3sgi7F3794UHBzM161Zs6YyEUa6qXU8ORudyBRXMwlRmBI1eDODrGaNmkx6iuWbMklvlEiCjbIli9oDeHwPW0KLqbqOKsQA6TZkNadOJAHKLSnjuN36AXjXJwPvvi8Ps3bupYuXaPjgPlS3VnUaHjWBFq9cS2VKlqSRg3tT2TKlGHS79Q2jQ0e+ppqPVqHB/brR7s/30aDwaE5aCe33Pj1a+WEGaGQ0L1+1nsUqpo0bzpvYtp17Mw3j7aaNOKFq1rylFInM58REmhg5JFlgQZeRa0quMpX7tM0P07kmCiDeM8Yb5rBOuUjnOcPnNpEEjCX8gU6UVpEEnQSfiU6ENklZQNXzmOas7XlM60haRRKOHT8pMpiJ2EosnJQMFnP6NAUXLcKfY5z9cfYclbw9mP44d57pRucvXKKihQvxxhAhjly5oCQWxBQhbAaRn4DwBzaimDOxp8/w59h0ygMeGyQeAjALFSzAeQnIiMYae+HSZaYPgVoEkL10+bLIjM6enX49dpzlM4sHF6FrcXGUOUtWdnnnue02TuLKnFkUZ9FJRQapZAHTQ79Jj4ybjiKAQbN06VIG03r16vHk2LtvH73ZrBlVqVKFFy2ou3z99dcMxEjXhwULAN2wYQNt3LiRxowZSwMHhvD5+DcWOaiDtGnThho0aEA//PADVa1aleB2W7FiBQMkwB3XnDhxYrIebZcuXejJJ59k4MVvcd+SJUvyTgxA3LBhQ9qxYweVL1+eRo4cScOGDaOTJ0/S+PHjqWXLlgzUU6ZMoUqVKmn5tDYaho1OhBeummj43EbZ0p2L8/B88AKkVcbNNJ5sbboZdCK0V8q4qYA3Pc/D5yYSBXmBJ8sCMp3obZYF1EkvqugfeM/g3S5fvYEl/8YMD6Ede/bRwGHR/Azg3IKqMSAsguYtXknlypSi8RGD+b9YiNq+35cOHPyKaj/2KFsIUCfqPXA4bxZHDunDdCJ4iAaPGEMLl62mfHnz0IKZYyln9uzUrPX79Mtvx6jNO43p3eZNac6C5RQ9cTqHfiZEhFKNapW14w2/webmRskC6saxpBNhA6Giwxi53xByQzg7ALlUSSdSyQLa5ruJHmWjWWJswcunowjq6Ha2eWlaR2Qf6+hETLvKlDmZgua9sbXRyDinQJNAaJKZTE0fm2iWun5Ce3FfnTqRFtO0soAJiVoyuGlnZ6pcZdqp2gjbsHgBqtHR0bwowJqE5frss89SSEgI1a1bl3c+eNBXXnmFpk2bRlOnTqVVq1axNRwePpxCQ4VbGP+OjIzk3TuAE65huIQBhgBgxG3/9a9/MbDCasZv8FKwUHTt2pXBHsCNc/r160cVK1bkv8mTJ9PRo0fZssW/sZgCpPHSMNjQRljF8+bNSy4zGYgkV6AWr83KS4/FaxMkwL11ls/NsHhtRQsCtXhTY41hPHj3RQqLt3Rpyq3hSut2z8ho9nY179y9j0LCIujCxYs0MWooPf1EbRowZBTNWbiCypUtTZOjw+iOcmUUsoADmE7E6kSZMlNU+AAGXvAkAbzzl6xk4F0yZyJbvE1adKSff/2N2rZoRu1aNk3m+jLwRg5JLr6RUSxetNskC2jzdIhxnEVZTATjCZu4bNmy04ABKS1e25jRvXcJjqa5FajFm5o26TxyabV4vYHXtI7gdyZL2+RBkWHHQGQBTcVcTJWrjBZvoty+ez29bVG6GepEiPF+8MEHtGjRIp7027ZtY6sWFui4ceOSLcvdu3dT7dq1GaABhADeXbt20bBh4Qy8Dz74IJ/76quvUvHixdmKhqVx6NAhuvPOO3lB3LRpE7uDDh8+zK7qN998k8ETljbu9dVXX1GfPn0YZMPDw6l79+7syoa1gpeE71588UVauXIljRgxgifz9u3b2ZUNwAfwyso5umIULsYrBqSL8Xompk6P1zfGu2v3PrZwUwJvBM1ZuJyBdwqAt3zZVNdqvh4fT6HDPcC7lIE3JzVu0UEAb0sAbzOaPX+pi/FmMZeMBPD26tWTN+6ygAbW238yj9cXeH03pt7fO5GEv1gkYd26dQxkUVFRDLwAyoEDB3LMdvXq1ZxshSSqDh06ULly5didC7cu3MX79+9nSxWgCWsV4AjQhrWJOGvnzp3ZJb1s2TIGzUmTJtHBgwc5cxpu60cegVtYxNUAsGFhYbR161aOBSEZq127drR582YaPnw4u2ERYwYYL1u6jJYtX8buNLi04ZKG1Q4wltnZDnjNYuoOeAMB3r3Uf4gA3knRwzwW74LlVK4cgHeoB3g79aH9Bw9R3do1KGpYCFu83fuH8QYUhTYeq1GVALyDwkcLizdfHlo6ZxLlzJGT3mj+HvN+27Z8k9q1csCbGllArDlI0MQ6g/Kg0mp1wCvGuYlmKS1InaUdaK1m2J5OjzcLXDX+RQDQMfiTlAfsEmGBwn0DIIX1CeAtVkyQ9mVH4ju5S5Kl1TD4YcnCgihSBNQLUTUTrmUAogjWx/D1ENP0rWeK83A+PscgyJ+/ACUmJnAiA4ACbQAoy98BjJHE5f2CpfvCAa8DXowbhDOaN9fTieTYUanJ+Fq8SJpav2krj7+XX2hA/3f3HbRu48dc0adQoQL0ygvPcrYz6uMuWbGGjv70C9enRfWf//7vZ/pw/Uc8Bxs+9zTHgjFWUWgD5+fMkYPebPwyj/u5C5bR6TN/cGJWzUcr0Yy5i53Fa7F4QVvEBh0GBNYaB7ze9qwDXiMN4Ga4mk0++r+ygIav28PJAooeSU9Ws+Px2oEXGz1s6pBz4Jvc5gu8JYoHp1zNCAXvr2tj7MgZwCZSlUhmmncCNIRIAo4ps+YbgRftR8IXPEm43z+tZCQ246NGjWIKI+iHMr/DuZo9w9VZvIYaqzcCeE2BaLkr1NFk0gO8toQjEyjIJIIboceLhVLnUrmRerzoa5UVjvZIkQRVVnN6gVdXaMTkak5NdTCd+ootj+FmlIwExUynToTQChL5ULgFHHKELaRec2qA15Sgk9oCGn5o7rPh0gEvPFPIi0COBorPIGcC4aJAgdeW+CMSdDIry2eiHwD+8Gb5JgGaAeoAACAASURBVDamN7nK5GpGIibyT1CAB94NFN2Rh21zk55azfCmAOhVSZy6nAG0y9bHplgrvsP8wX1Vh28BDe/fZDTgxbvDOFY9q/RSeSsxyWcNunLlSprViUyZZfgOE00l0o6bmnbepu/wEHhInVQhFg/s2HXl8qSb2XcgmK5ray+eFYMI2dGqw/Q8trR507noX7Qbi9ef+TxoEw5dprWkE+mAWSfFZrqurY+xOKCfVVWVUvPudG2y3RfjiZV2FLkM6Xke1bmQBUSuQtOmTakU6ERJ4Q3vd4t+QG4BaGlI4kPOwOOPP85Z+oOGj6GVazZShQfu5Vq04FqfijnN8+X24GKUO3cuOnEqhs6dv8jKQSWKF+VNHcYYOJQQT0Dhd/APUfj9xMkYvnVwsSJ0W66c/LvTZ87y7zJnysTl90DpAP/xWtw1KlAgPxUqmJ9mzl1K0ROn8diMDg+hh+6/h77//ntmIMyZM4fBBvx5JBXBlS0VxXSygIG+O9PcwrPIkJIupKXb8KaVkoJ7YeMIusnOXbtoxfLlvHlCDoj3Ydv8m9ZbW5sknSitSky2+WFan9Be9DE2N7rNmq6PbXPLRGNCP+uKEqVmrdBl35vuievivqlRYvLuCyXw4ka6FPXU7IQADDJ+kdYBptPqNVkoaBNAAcCb1pKRqRn0ujbJAQbg9R3YNmvMlKJuaxMkqVAPVCULaLPk0lNAw8TjtdGJdN4KjA8bnUgCb5r7OP46A4SOwwhOoE4/lfV4s2RRul9NtBLbu1Pt6OFGxoKM8YuxpLL+8ezHjx/nJEJYT/gN3M6NGzemE39cpR2f7aUHk4AXRdqHR03iKkAjQntT3drVWeBgycp1XDB+1ODe/F/Egrv3G0oHv5IFNN6nzz7/kkK5gEYmCu3XNamARjxFjJ1Gy1ev51q1XEAjOwpo9KFfj52gt5q8Qu80eZXmLgKPdwanTDR+qT7t2vYxAw7ai34BRQ9V3+QCZ7LC8XsdX1Z6wHS8S9O5tvXLtsji3rp2+d4X7xqLctZs2ahc2bJc3AdMCt/zbRavjU6k2yzjcxPw2gpo2AwsneoUrmuSBZS5OTpjBf2je7emNpl4vOmlE5mMClmvX2UEyfb6vnOnTuTUiZLHCwAFi4fOAkHlKnBMb4SrGYuxarL9E7KasVB9+eWXdOzYseTKSSo36N69e2n06NHs8scCjvrgoMWt3bKLNmz+NLly1Z9GJwofQI9VF1nNaaETJVIidWrTjH49+l/mxP/444/sGUIFODAApKdGeqnSqu+cGuCVUoW+iyEWYHgPsMnRVaeCm1pVIwO1BrCr0BfQgF64SAzF+4OXBpujkqVKUaagIH5unQcl0Kxmk5GEdgQqC4hzbe5kndWK/sUY/Se4mk08XqOrOaPweF1ylWcJuZExXge8op//yhivfLNYfLFgwer1BSO0B5x10OrAU0ectHr16uxa8y2g8acBL/R4k+hEaQFeUat5CFWv/DAXuQEHH5Y65jBinI888giDV6AxXlTSun49XpsDYfK+2GK80hoLtGSkrrSjtzqRajMQKPDainoECrwSNFQbBRsoO+AVb9gBb3w8T3SdOhEyM01uE501diOTq1wBDTF4/wkWb2qA95tvvuGqZzVq1OA/ZAZLcLjVC2hgnqD0KqxfUO3eeecdtgYd8Io377KaPVuRjJZc5SzeCxe0rhzTy8Tu2QGvGPjO1exZAG41ixeWGN4P4vq+1pgeeC/RxKgwUUAjLII+WLiMypUpQ5O5gEYZOnkqltp07k1fHjhMj9euQdHDBhCk0hD3RZF3SAw+xiUj42kwKlctXkH58uXlkpFQPGrcHJWrjqW6chUABuIjRYoUYWvVAa8DXl/r3wHvX0wnQvwkPv6aMrFE7gp1FJv00Ikc8HqGvgPeWxd40bLUloy8cOESbd/1Ocfo6v27FpUrU5p27NpDh7/5nvLlyU1PPVGHChbIR5cvX6GNWz7lso+lStzOYgrHjp2gLds+41jlE3Vqsk4pxsXuL76kI99+T9mzZaeGz9ZjdbLV6z5iVRfIEVb6VwVXQOMa1i9zyUgdV9q5msXc+8cAb3x8/J9KJ8Jkh3swEIqNjX6DbMlMSXJL3jsl+NIlNUEV8LfRZHQ0JWkF6jLaMEiQ/WpU4cgsigv4Hra0eVNfoH9xfqAUG1PaPNqpywJG/FGnJoP26vrJRnmwUacwpnRZ8oG+Oxu9wCSSYHt3tsxxXdam5ErrlHNU2d+4Fko8sizgA/fR6JED6fZixQgJTt6HKVsXAIxkIh09De3ShWK81WKmzV5IUeOnCT3eiCFUq0ZlgitON96Q7YwYtS6ZL9DsVtNYlHMWVJe00ols7900js+fv0DZs2dTJlfZxqJpPNnaBKoakpyUMev467ye6pLFbONY915lHF2n2GOqA8HvLiiTVoHI1Mem8ZTePjapE+G+CP2oDh1jI+jatWt+wGt7maaHN8kC2h7eNGFs4HkzgVc1ieWzBsJttfWTCXhtWY7Wzc0NAt5AAdImC2i6rm3MoJ91tAVsMrCJ01koOrqd3KwFsrmRwItNRmq50hJ4WRbwQcgCDmQdUt/DtpGjxETKniOHkhZn62O5KE2bs5Cix09n4IX04GOPCllAHfde8i7TCry2+ZEa4FVtbiQVzERp1G1Mbe9dygLqsppN48lEt7ONcVDVChYoqAQyUz/Znsc0nmzAa8qWTg/2mIDXtC7axhPODQR4TePJ0YlcjDd5jXau5r+Hqzl7tmz08y/H2EUMFSK4lf939GeK/f0MbyTuuqMs11yGkPcPP/6Phb4hEP5/d9/J9Zt/PPozUjLZRQ3eLq5z7MQp5v0ClO69+05eyL/9XtCESpUoTsHBxWja7AWuVrNzNXNIxNGJXFazMW7gYrwuxqtyEd1qyVVpifF+se8ghY0aRxcvXqLIYQPoiTo1KGzkWBayL1u6FEWHD2B5wFMxsdSpVygdOnyEatWsRuEhPWnH7r2s3QsX5LCQnlS9WiWePyOjJ9GSlWsoT568NGdyJAN38/bd6bdjx6nlW69Ri2Zv0Kz5SxzwOuB1wJu0oDg6kaMT8VCwVe1xFu/fw+LdBfBkPV5kNQ+1yAL2pv0Hv2JZQGQ1b2VZwKGUJXNmBmhvHu+8xSsov8xqhixgC8gCpj6r2XeDcytmNWPDJbm8Mk8FoR14CjB/cJhim2lJrpK5Kbg+cicQYoBbUyqrydirqVYzPA5oj3Rh43xcD//Gc8DVjFgrsuHh0sccx/URz8d1EWqR//aO9Toer2e0mnjhjk7k6EQ8UtJbGs0V0BATLiNbvLdGAY0wql29ilHl7FYD3l9//ZUmT57MlCcAIaqC3XfffVxfGrrbp06d4trYuopMADBUzPrmm6/pjjvuSJH8qCqgsWfPHi4ogrGGSmQtW7Zk78LHH39ML7zwAv3vf/+jChUeYslRVaF9jNM1a9YweD755JMMrChYMn/+fD5/7ty5DMLYNAQHB3N5UQAxiplAExgbi5MnT7J4RadOnVKUoHXA64DXCiiOTuQZJA54Uzdh0E/402XrOuDNzBZw4JWrMh7whoeHMzDVr1+fxR02b97MwhTbt2+nKlWqUPv27aljx470zDPP0Nmz5+j48WNcEhJa27AWAbwnTpyk995rTz169OBzAGz4g9UJkQiZrAeAbdasGdWrV49BWhYXAcAfOHCAChUqxPW7UTSlRIkSDPqIm5YtWzYFQK5fv57GjRvHIhS4R0REBO3fv5+aNGlCffr0SQbYRYsWsbIVNhIoYNK2bVuuhIbnRBW0rVu38vnycMCbunUkYIs3AUFOn8OWGWvKSoP7ArsslTKFzdVpS5vXLZQ2OpGprJotxht/LZ4L6evUPTAZQCdSFfCXmX9pLT9n6ye4l/AbFZ3IBCgyy04HNiZXM66LWs1QvlGdbxNJCDRrE+4yjCkVPc2WhWprkw144a5TZTWbuIa2d2c615bVrCuW71cycs8+Gjg0kmO84yOGUL1/16aQoRE0d9EKju1OjBxCd5QrwzHed7v0pS/haq5VnSKG9qdtO/dQz5BhrEKE+DAyk+OvX6chI8bQgiWrKG/ePLR49gSO8TZt1Yk5wO82b0ZtWzSh2fOXUeS4qYJOFDmEalWvohVbwZJjsnhN7y41fayTg5RlOVWygN27d+c59corrzDw7du3j2UMAWZVq1alnj170muvvcbKUFOnTmUwhCUKQMbv8P4AYK1atWJQhSjClClT2OWLOQMwLleuHK+2+AxW6VtvvUXVqlXjMY5a3VhLVq1axe0YMWIEgyoAG8CK9w+LG9aqBEmc89xzz9GECRMYWNE+WM6438CBA2nSpEm8OQCAw6J/4oknaMaMGWzV47nQT2iDCnjRV7p6zLY6zlgXdRQb4IOKuoZ+Mb13+b1u/TKNp/QaJHoKYAKdPauWBZR5GUpZwKtXryp5vDhJXww8QUvDwAvBIEK8QsZEvHHdxCfE703KHzr6Bz4HnxYvUycLqHsebmMiaXljpjZhokltT9/Ni3T7mhRUAu1jDFy0S6VOJPs8kHdnOhfvDc+KBSGtRe1tbTL1McaTTu0qNX1sUrjx5qD6vj88KyaMiv6Rnuex9TEWLMwdHZfa93P8u8eAYawc9NADgk50+swftOXTnRR3LY6er/8k3XVHOdq8dTsdOPQNFSiQj/5T/wnKnz8fSwCuWruJfvntNypftjQ9X78eHf35Vy6qgaL+9es9TmVKlSBsTrdu/4wOHfmGNyKvvfQcZc2SlZOt/jh7jqo+UpGqVKpIM+cuodETZyTxeAdTjWqVeJzq3oFNxs347ixrhW5uyTnrqyiGe8FSnDhxIm8I8O7hvq1bty6DKCzf999/n8EM5S+/++47dkXDVYxKXAMGDOAh9PvvZ6hJk8Y0aNAgBj3UpW7UqBFr8KJcZtdu3XhTg/eGGtYffvghZ4YD6HEftCMqKorFJOD+hSXcq1cvqlmzJt19993UtWtXlpCEVS43np07d2Z9Zpz/7rvvsmsc+s3Qd4Z0JObrDz/8wO3nYii7dzOAb9myhVq3bs0bh08++cTPWDKt1abvJFcamwMVBpioSLa5ZbqvSWbStlakB5cwjnXPqrtukM7iNVmXMvivAhsskvhLq8Vrs15s1hgWLJX6h7zujarVLAtoqCxeacGn1eI17c7Q55io+I1K89hm8draZIrxoo9VBQ+kBaKraW1z65p4irZazZInqvNI6CwfWz9JHq9qZ27yoKTGGtONRWmNqUQSpOsPG0tf8O3Wb4gooPHgfTQGBTSCg5PBTi5kEBXInFlUVfJeDNEWiG7gwLN6Xxu/8x6Lso+9F0cpLYfzUUBDWrywqlFu0rSOSN6lyqrCddEWHQfYZI2ZrCaTSAJcynDlol1w90L7GO7eIUOGUGRkJLuZAXqIiUJgvkKFCmz1lipVikENB9aDN954g8/p0KED/xeqTNHR0XTkyBFWl8LmBfc4fPgwW8C//fYbbdiwgYEf1uq0adP4egBEuIjhfgbwApyhYgVAbdCgAd8P/btjxw6+LixnyABic4BnwTUAyogfwx1+77330qZNm2jXrl38LG+//Tbdc889tHHjRtq2bVuKQkC2cWzzeqIfVBYvrmsSorB5k0zFXLBhwvqkK6KEc1XfyWdVyXGij68b5EVxTbxLVdzfdF3H43U83uT9k8tq9mwlM3KMt0TxYL89sUnTVQKvqg60bRPoXcZyyqz5GZpOBIsRFi5ctzExMRwHhdU5cuTIZODt3bs3AySsHLh84RbGogurVmycLtLrr79GISEh7CrG9RBvBQgC+AB4WODhIgbwhYaGsiULoIS1jXtOnz6dLVu4rFeuXMnWb/Pmzdl6HjVqFJ/38MMPJwMv3i1czF988QW7keFOhusYbZgxcyaVKV06eSO2du1aBt7+/fvTwYMHuW3Y4OzcudMPeE0Glg14HY/X8XgdjzdpGbbtYh3w/j2AN2+ePFzsIjEhgYoVK8Jx+eMnTrJrGcU1ihUtzDv/+PjrdOLkKTp77hz/pnSpEvyb2NjTSM6lokUKU47s2Xn+nDt3gc5duMCLNAN7ENHx46foytUrVKRQQXZdT83gBTTgbkUsFOEUPDOswZdeeomBF4C5YsUKDqM1bNiQrVJJzYGVWrFiRY7BItlm8OBQzkmAlYoMY4QrcD2Ab+kkEMS5iBPD7YsNj4z5wmW8dOlStnwRU4Y7GxYyXNKw/hEDhiUN9zZbY9evcyb17NmzOMMZ7m1Yxtgc4FkA4EjOkp6Mzz77jC1tgDc2VbDqAdiIEXuXZZUeFicLaI47B5xc5fR4nTqRhBsHvH8P4D185FsaO3kWXb50hfr36kyPPVqJoidMpw83bOGYbUjPzlSqZHEG55CwKDry7XdUo+oj1PP9dvT5voMUMWYyQQy+V9d2VKnigwzQk2bMpQ/Xb6HcuW+j0eEDGEyQ1AXgbtyoIb3+0vM0c97iDG3x4u2jtjHctXBZIikJgAVQxPMCWBHmQRgNIRC4mfEbmeQovApZ6erVK8nhNljGyJQGqOE872Q9AB/uBxcp3LIATAl4+B2sRtwfmyRcB+5bgKi3+12GPWRITV4f10a7cQ1cVwIvfo8/PA82EQgf4N++IRUHvJ61wPF4NT56RyfyDJL0Zu+ZYrzIas6tKWovY326pCBTBrHpXFuMV8Z8/swYL3ozI7uad3L1KRTQuEiToobR00/W5mpUsxcs5ySqKaMhC1iWTp6KodadetP+A4epbp0aNHpYSFIBjTBe3KPDQ6hWjapsrYUOH03zF6+kfHnz0NIPJlFOFNBo/h5nNbdr+Sa1a9WMZs9fmqGBF2NfFvBPa14GxowEXsTRfQ8Vj1f+JjXufB2P15RvgOvHxMZSoYIFlcl6OrUrnOeA9xYDXtsLMdGJzKBglgXEAMP5usC5zGjzdY0gaRmJJabkKnxvSpvXJQ1homFHiYy2tCZXmZII8Jz4XufmQUwO70GXXGVPIlBLlwVq8UpJx0CTq24W8Or7iejChfM8JlTJVXg3OHQZ9LbEnz87uUqvx3vRq3JVBM1ZuJzpRFOiw5KBt03nPkKPt04Nih4qKlf1GAA9Xg+PF8/DerxLBPCyHm+OHNS4RUcG3rYtm1G7lr7AO4RqV69qSK4CnegMW4JpTa5ClrVpzgaaXGVL/DHNj/QCr2m+mypXmRP9iGJP3zzgLQBxBp9NCNaKK1cuU44c0JX236CYk6sERujWangqdONJWPoJlC1bVr+bSkzLmjWbtk26JM2AXc0qdSI0BH8q60VmOprKpl25epXy5M6tfECZherf5SJeAReX6oWA+pGQqFc6AfDmyJmTsmX171jcE0cgzyPapJbOkmnzt5I6ke39mFL5Tf0kvQoBywImJColHWWcStfHV6/GUVzcVZ5Qqs2NSNdXjxk8q45/Z+snmzqRbjzJ5zGpE+mUTiTVBRsq1fnq7O8gBkpBJ7qPxowIoZ2799HAYVFs8UKe7+knatOAoZGCx1umFHNsYfnGxP5Obbv0YR5vnVrVKXJof/p0x27qFRLO948Y2pdqVa/K83IweLxLVzPwLpo5jjckTVt35pKRbZo3obbNm9KcBcspeoKUBRxMNQ3qROinQGUBbe/ONGevXYunS5cucs1paA57HzZmhWl+2N47ZAGx6AeidmXK+ret1axOpJMFNMwP2/OY1hGnTiRGFTYZCQlq/Ai6dk2lx5uQBLwqLVnsNq9T5sxZVNhJ167FcWwByQVJpU29fmc+V1Ae1NdF2TSxGfBvE76TdCLsWnwPPLxY7DIp2iwoE6rr4semc7H78ujx+m7f5HVxT/+tnel5QCw29TF2jOiLnDlzKTY3pndHlICNhEYj2NQm9IOkE/m/I/Gsuj42P6vwSAig8e8ngK7khft/b+5j07tDm8QmUDXeEvlZhSxgDuV4EsCb9vlhahP6AeNJ8Hh9r53IXhAhWecZx9ikAnhBJ3oIdKLhA2nnnr00cKgX8D5Zh2s3S+CdGAXgLUMxsafpXVi8B7+ix2tXp4gw7wIamSlyWD967NEqImFoxGgP8M4azxZvk1adGHjfbd6U2rZoSrMXLKPoJD3e8aATJfF4df0kgDe3Ro83PmnDq56znoXff8ykZs6KzbLvtRPZXSwsqrTOWTmO/ccT3pEE3mzZsmsMEv2aapofGMc4dGsbgBfxY9X3uK7Y8Ka9j01tEsALT6BKo9bcx+a12tzHGE/CMFBZteb5blpvJXjqxgTuq3tW3ThNM53oZrmaTW5qfKdzNWNQmt26LrlKrgSBupqlm+3v4mrG82TkGO+NrtUsXM05qXGLDgZXc8YrGZkaVzPGxp8lkiDnnS20lFFdzWpuq3A1q4r/2NZquc4E6mrWhSptmOaSq1xyFc/V9MZ4dQP3nwa8poSvjAy83373X5o8cz5n3vbo3JaqVf4XZyVv+Ggrlbi9OPXs/C6VLFGcdXjDIyfQ199+T5Uefoi6vteK9h88TGMnz2ZLqEv7FlyUA1nNM+Yuoo2bP+Ws5qEhPSh7tuycwHX85El65YUG9NILz9CseU4WMC3qRDcaeHF9l1wletmUI+SANx7p+FmUJeZsFq+ucpVtF2Wr1WxK/MmoyVUOeEXFn78f8N7PlauKFC5Ely9f4SATXG9Zs2bhOtsJ10WpV1H2MxOXgsQmjt3q2bJSwQIFGGQvXb7MjtZcuXLy77FoYdcfF3eN5ybAF/+F7OC1uDi2XnLkyE7TZi+giLFJtZqjnMXr7VO2ZTXfiOQqB7yeN+CAV1u2y5zV7IDXM4icxSv6Qo4J3WbN5CL6OwLv/ffeQ4P6dqHgIoVTxBFRjB3Jib7JRPJHV65c5e/UdamJkxo5FugXnRTvADFCxDEXLFlNk2fN49yOCVHmrGZc6laTBfy7uZod8DrgTbFQqutlOuBNrevJAa8DXm8M7D9kFH2wcDlzrMuVLaXM7Aeo6EQHridl/aN4v+/BoI2kRhXVIOk7ed2TMafp+HGhZTt1bDg9UvHBDKXH64DX8/Zt7ldXMlK6sPXqRB6aEuibKbetQQnQ8PI5kMWFk3QZn4Jk7p+dJ4LfcezmUoskCH6qKvMYmbyygL8qewxtEq5BdcaaTK5SXRvZx9iVqwuuJ7ArTXVd4aZGsfbMSioSvpM8Xt82o//wvYj5+NsKyArEoepjZCrq+wkiCYLHmyvXbX4LpamfPH3s34ciDqJvE66LPtZloeK941nUBTT07072sW+2rnwwVAHyyAL60j/Eu8N91QU0RKF9VVatuZ+QXHWOx6laJMH07sR7V49xOZ7UbUL/C3WiPIqxKoo7CJGElBnPy1ato/5DRnK5RwWVIKkr0Xd+U11hw6b1I5/rBgVR3do1KHxgTyqQP58X8PrPAcnjVc09Me/U/eSZH+rsY5yrG08y41ZIefpnNcsqVbosYN2cleNYcLv9nxXjCVQi1bopPDe6dZHYnY9QgG5dFGu1mhUQGxvDlatUzwPGgGo8iRFgzj4Wa5v6WbEWCFnAgsrBJHi8YAuo18UgCtIyL3Bt3dzCeML6pK71IHi8epEEXTa7YJjosr+xjsBzU7BgIcWzij4UHrmUYy3o7NmzSj1eXEUnaecBSP97iVhQnFIrlnlyAE8NncXGMfUMsJT3xeco5QZXmaqoQXr4nCZOIL7DfcG7VHFM5fOoQMHGLRabATW1Cv2L+Bziav6bJkEn0qm6mK5r4/EiWQeLh45jalIC0rVJAL6eK42BizGlk0C088LVHGwbFxTvFf2vK9gSaB+bxiKeBffFs6rmnk7o4Oy587Rmw8f07Q8/UtzVOOVih0muchUzYCTR7TIraSUCrnXnJiZ9K78vHlyUnvp3LbrrjrLJ7dCtI1LKUzWebsacRYNNGcR4P7ZxrMt4hpcKY0k3nkz5Bqb11sTjxfMgtuwrgShfjIkfLDYS8do1yPYdxrFKQ1v2sa44kOm9y7VC18cAe8wdnWypro8lf1u33nqokirqmpBL1T2rro+VsoC2RckmgowF2iRcrntA08s0xeTQXo/F62/N2SaxCYxMg1MW0MDu2feQFbPEzlu1s0NxczU1QZ6r6yf0L/pD1oj1vrctdmnqY/SDrk22AhqmeKptPJnaBAsE4827gLt8XtuEsRUeML13UwENUz+hbab5YaK24bqYxLoCGiaFIezmBc9dDZHesVjfsYpFMihTJhZEUI1jsblRcT39i954FwexAZUpxmsaT6npY+Gl8u8LU9Gb1ICCbn7YgArjCWCj03e2bbR1QIUNuNgMqN8PakHrCmiYxlNq+li3PtkKaEhZQNUO0fbeTWsF+LRYJwIBXuFh1HkC9YYBxjjuq5JAlH2oykFJM4/XNjhvVMlIl1zlGaYuxiv6wiVXecaEiQpmWgDw3Z8lC+i7kNo2gS65yjOOXVaz6AvTxtS2GbCVjHQ8XsXOQtb7dXQiASimieiA1wEvesDbzZhW4MW5OGChegMvPvO26KVXAVaEdLNKD5K3lReIOIYDXge8vps1B7ycyKSPMepcH87iFUNJJFeJGIlOOUcv3OCAV05Ip07kWZx37NjBbmgpgv7DDz/Q8ePHqWrVquxew5gzuf+8x+I333zD4ZnKlSsnAy/GI+6xd+9ejjFDuP2xxx7juP62bdv497jXxx9/TBUqVGBJu8qVKlOu23JpkurMXGkHvA54HfB69YDNRSSls1Q+ege8DnjT6nK8WepEGamABjZxffr0ocKFC1O3bt24i5csWcJAGRISwlmisogMYv/SkpVJhwBPxLAQX8NmBqLuAO1evXox8MKKXbx4Ma1atYqqVavGQA6AffbZZ6lBgwbUuXNnqlu3LgPs1q1bqXv37vTdd9/RM888k3xvXF/Umc7EbcG98G+VMADa74DXAa8DXge8qn0EJ8r83WQBXeWqjFe5CsALkEQiH0AQx7Jly+jzzz+nHj160Nq1a+mLL77gJI/mTSpbrgAADONJREFUzZvzf6dMmULff/89J+G1bduWihcvzp8dPXqUYmJi6P7772fQBvDGxsZSmzZtqHXr1lS/fn0G7j179tDw4cPZ6p0xYwaD8FdffcWZvzgPVjOAd/Xq1bRz504G2Pbt23NmKX4PofiaNWvSSy+9pJSwdMDrgPcfC7wqWcBAqS6SMCzViXw7VWa3qiTgTN/hOqYMSZlxi12/vx6vyPrDcSvJAtoyrXU0GTwLLBbB4/VXJzL1U2r6WNdPMuNWJQsor6uT4LNlt5roRBhLUp1ILwuopgzZqDsmSpDMQtXJuNnGk07m0DS3AK4AQVVWM56lf//+DIYVK1bk8QyLs2zZslS7dm2aNWsWNWrUiA4cOMDnP/XUU7RmzRoGV3z38ssv83jZvn07PffccwyMd911F4WGhvJ4OnLkCIWFhdHIkSP5mjhgLTdt2pR/v3TpUmrVqhVbu2jLW2+9RZMnT2bgnTlzJjVr1ox27dpFpUqVooMHD3Im7YMPPEAzZ82inj17Uq1atVKEXND3oLqgrYFSAHV9bKOnoY/BuvBdD7zj2YFQAPFudW2Cm15mNfteW84Pk/yojh1hW6ulOpFq7bOtQaZMa1sfIzsfOuUqDDCF4GxtMtEHpTpRWilb6cEltBfjWJXVbBpPQdevJ6SpgIatuIOtgIZ4maq0bXsBDbFQ+sed0SZ9AQ1BgBagoJYU1LdJFDywk/Hza3i8QuZQV0AjsDYJzrIAXlUBDcTVbH2sTpvHeQJQ/PvJXEBDvDtdoRFzQRZzH8sCGigq4Q+85gIaKEqg62NboRG5UOpkAU1j0TSeTG0yFdDAd3A1o58Bcjg++ugj+u2333jSw+JFvFZyGd9++212J8PqhFUMAMVvK1WqRK+//jpNnz6djh07Rn369OWCLABxWLERERFUrlx5vv7Zs38wwMJanjdvHlvccEXj+V577TUaNWoUAy2AG65nfP7jjz8S7n333XdT0aJFGYQB2K+++qpPEYFEL1ezigKof3eY7x5QUBdh0BU8kFKeKllAYTigQAOK3vjTc1Izjk0FNAC8uvEkwh7qeYk2qYow4B15JDdV8qOJFBt7mgoVgiC9//PEw5uXJaXMpAcoZQENf5lV/CZ1BTQgC+iveYzCHWJDqymgoVmrPfdV95OpIIu5ABMwQnKW/eVdPZsM9ZgQdCJVsRAp5emPAY5OlOBkAeVkM2XG4jsU2kdZQpWFYnLJ23IGXIxXvAGAKoAT1pgvF1G6mosUKcIghwMxWViZZcqUoc2bN7MLGmCK3544cYJ++ukntnQnTpzIcVt5bQAjABbHoEGD2MrG4tGhQwd2DTdu3Jg3LAsXLqQvv/ySOnbsyC7n3r1708qVKxn0AN6wjh944AG2svv27cvxZtxjzpw57JbGPWF1N2zYkAHfd+PkXM3O1fyPdTUnSj+sVw/YFkqXXCU6y6kTeQaNA17RFzKbXRdHN9ElbMALkET5PwAhDoDg7t27GdhGjBjBMVy4FuEaxrWQfAW38c8//0wlS5bkzydNmkTFihVjCxfuX1jRkp722Wef0dixYzmOjAMutK5du9Kdd97J1nCXLl1o3bp1DLwvvvgijRkzht544w2KjIxkNzZixwBvgD5c0mgr2gNQxjV8Dwe8Dngd8Drg9VsYJLi65CrB7XQWr8cyxf+pLP8bBby4LgAULrrg4GBuCIALsTS4dH/55RcGPoAd3LzYPB86dIgt5xIlSjAAlitXjq1gJFLhGgBYgLDk8cIVCnc0aEp4tjvuuIO/B4jDZY1zYBmjSmT+Avn5M8RyQSvCdXHv8uXL872//vprQkEDtAX3V8UYHfA64HXA64DXAe91IY6hS3ZxwHvzgBd3NtUR9i56oRrIpvKZrnKVx1shyxmmtcyr3KQLURT/N+D0eD19IuuR68aprr6B7GOdN8lVrrqiVicylX10las8w9BVrvL0hSug4ekLjzqRf5JHWitXeS96Dngd8PqCoGSo6AolOVlA0WOokY4kRHh+dH0okvV8ZAHj46/7ZTV7MuX8s1tt0nLIwBMiCXkVGxqRYayTG9R/BzqRXqrQnNUszsWhy2oWKerqKl3IdjNlSOpkAVMjc6hrk62PIauFNutkAXUZt7iurY91bUIf4lkF1cW/r0z9hPdj72O1mIQQSYhLEknwz5BEu3SSaAnIZs8UpMzotLXpwoXznN2qy0I1vTtTH5v6SWY1C6qL79yTGZLqLFRbxi2uresnZDXjEApQ/tKLHgqHIgsV2eyZQedSaPka33siu60FnShtWc2ecayWwrPNWbjnVVnNNik80zoiFmF9H2M8CTqRSojCLk2qy5a2rdUekQRFVrOBsWFbv0zPKqUX8+dHVrMfHLHnRgB62rOaxX3VazUAUDeebFK3guKkZ3sI8Y8/Mas5Li5OKdIpOWkqd4BYWFSgLBKOZMUa1Q5AKKiolTRM9/SuS6u6rkmdCNf1Vk3xPd90X9O5JqUT2V7dfU3Pg/YlXE/gBU11SB6vTiovPX2M++k4jABeFY+X22voY5m/p7qufFYBkP4TEZMUfzrpRduzBtr/WJyzAHh5gUh5mLiTYgHWzw9TP0mutE6dyMSdtI6nJI6pajzB9ecB3pS/4OsmJGrHYqBzFnfxAK//QmobT4G+d5s6kendWcexoY8xnrCR06kTmZ7H1ibdufgc7lfQzXSucx13ODXj2CQbi+dVqbbhuiaFIVsfm/oC7nzd+mTDDxM/2DQW8R3uq+Isyz5U9XGa6UQmFwTcxdLixY5StWBJjqPvGmtzNeM8PKSOHC2B17+AhhR4D6IsWVT81IxFJ0I/wULBe8ACnbY+llxpdRwqUDqRfHew0lTyZLYs+ZtFJ8LzqoWxiaTFKwS7Ux5YOHAIjrY/UMndsyrWF2hWs5x3Qrg8ba5m29zCIomFGRs5VXEHyZnVbYwCbZO0UFTvAGMCz6mWePPwLnV10HXa0FKyDuuTqoAGjAasIYH3sTnGC4vXd1zI0BIE3lVjJtDYPt577OlYKlSwoPJ5cF30r067G32VHlczuK2qdR4eO8yrtNawl+M40Bgv3MLZsvlbtXJu6frfJFWIuYENpMnVDEvaV6IyzcCLZcbRicRi6+hEHtBxdCLRFzcqq1nOu0BATo5VnWCHi/F63p1LrvL0RXqBVwVGuLpLriJywOsKaCSjZ6AWr1zYdbSrW9XiFdWC1PEieFCwszZZvH8lncgBr2eTB/F3xPpMXOn0WLygbLmsZlG5Kj0WrwNeWf1LkVzlCmhkLFczlh+nxysWYZklb5Je1C3Ats2AA96UfawDOVOmta2PHY/X08cm/e1AXc24ekys2dWs86C4rGbPRs/sag4wq9kBrwNeOcScxeuZbA54HfCmjN6LpDkR29cnljoerwhFIhHTWbwGizcBfhufAztVQUlRD7BAY7ym+BcC555C1b4tMsu44bpYKFXqRLiSacLgXE/Bdf/7mnY7ssQfsvdUyjkyAy+tbisT31nGSNBunTqRzoVqe1ZTP+Ga6GOdmoypn2yWj6m4g1QnAsXG95DPo1NuSU+bTMBrG0+4byAlI7k62PnzylrNNne+jcebmgIaqvFki1mnJ7ZvsnhN787WJtOz2pKr5NqW1jmL9yPu659wh+88ohv+dCLbfEebdV4d21qNKmUAQFWymOnd2frYxOOVuS8qxR70BVgZqhCO7EOdl0p+rwsPYTxhfdIl4OqTKUXSaSChCxOPV85Z1bsLunr1qpJOhI7X0j8MafNMJ4qL42L6qsNGP9DdE2XqEkndJrRVqrLo4m5oi+7atmfVUVIk/QOgoLo2aBigyagOW9q8qZ/SQycyPautjyXw6rIgg8DLUzxuep4VCyHGlBR39+5Lvm4iGftYO56SEqF039voH6bxZBvjunNxHsaxFJNXbYh1FI709DHGEw7VYmiiYeAc07Pie9N4O3vuHK8T6szlwCmApntizqKPBY/Xf7AG+u5sz2obTyY6UXraBDoRqC66Z00PzdJGJ8J95bj0Hss2elSgc0syW3QYkJ4+NmEh7qt7Vh0VKUhn8ZqsJlPQHRYK/kx0IjWFQxZ3UBdSMO3opTUGOoSOTqQrQwaDX8joqZNsTLvC9GQ126xL0+4MCyWeWUcnMr07mxYmBmdaS0bK3fHfJblKbuRupeQqWx/bLF6T1ZSarGadxZUai1flkcDzSB6vaj0w0a5kclUgsf0bZfHK96Nr07nz55kTjvUpEMqWqvpRarx5soCGzuLVUbZSY/HqnlW6mlX8YVzXlDlueu+2NpksXhsdVUeZk141nRWeGjqRsnKVi/HeHOA1LywJ7PrQZRS65Cqxf3bJVR474kYDr0uucjFeb6vVlYwUvRFwyUgHvA545YRyyVWepcUlV6Xc3DjgdcDrgFdVuCawrOb/B8R6YMSB4eLJAAAAAElFTkSuQmCC;" vertex="1" parent="1">
          <mxGeometry x="842.35" y="114" width="294.15" height="320" as="geometry" />
        </mxCell>
        <mxCell id="F9bRvU_HwHoMVBIt6-M2-16" value="" style="edgeStyle=orthogonalEdgeStyle;rounded=0;orthogonalLoop=1;jettySize=auto;html=1;" edge="1" parent="1" source="F9bRvU_HwHoMVBIt6-M2-14" target="F9bRvU_HwHoMVBIt6-M2-15">
          <mxGeometry relative="1" as="geometry" />
        </mxCell>
        <mxCell id="F9bRvU_HwHoMVBIt6-M2-14" value="" style="aspect=fixed;html=1;points=[];align=center;image;fontSize=12;image=img/lib/azure2/identity/Azure_Active_Directory.svg;" vertex="1" parent="1">
          <mxGeometry x="696" y="198.5" width="70" height="64" as="geometry" />
        </mxCell>
        <mxCell id="F9bRvU_HwHoMVBIt6-M2-15" value="" style="aspect=fixed;html=1;points=[];align=center;image;fontSize=12;image=img/lib/azure2/identity/Azure_Active_Directory.svg;" vertex="1" parent="1">
          <mxGeometry x="707" y="356" width="70" height="64" as="geometry" />
        </mxCell>
        <mxCell id="F9bRvU_HwHoMVBIt6-M2-17" value="Authentication" style="text;html=1;strokeColor=none;fillColor=none;align=center;verticalAlign=middle;whiteSpace=wrap;rounded=0;" vertex="1" parent="1">
          <mxGeometry x="690" y="481.5" width="60" height="30" as="geometry" />
        </mxCell>
        <mxCell id="F9bRvU_HwHoMVBIt6-M2-18" value="Application Stack&lt;span style=&quot;color: rgba(0, 0, 0, 0); font-family: monospace; font-size: 0px; text-align: start;&quot;&gt;%3CmxGraphModel%3E%3Croot%3E%3CmxCell%20id%3D%220%22%2F%3E%3CmxCell%20id%3D%221%22%20parent%3D%220%22%2F%3E%3CmxCell%20id%3D%222%22%20value%3D%22Authentication%22%20style%3D%22text%3Bhtml%3D1%3BstrokeColor%3Dnone%3BfillColor%3Dnone%3Balign%3Dcenter%3BverticalAlign%3Dmiddle%3BwhiteSpace%3Dwrap%3Brounded%3D0%3B%22%20vertex%3D%221%22%20parent%3D%221%22%3E%3CmxGeometry%20x%3D%22690%22%20y%3D%22481.5%22%20width%3D%2260%22%20height%3D%2230%22%20as%3D%22geometry%22%2F%3E%3C%2FmxCell%3E%3C%2Froot%3E%3C%2FmxGraphModel%3E Dysvl&lt;/span&gt;" style="text;html=1;strokeColor=none;fillColor=none;align=center;verticalAlign=middle;whiteSpace=wrap;rounded=0;" vertex="1" parent="1">
          <mxGeometry x="412" y="481.5" width="108" height="30" as="geometry" />
        </mxCell>
        <mxCell id="F9bRvU_HwHoMVBIt6-M2-19" value="Network" style="text;html=1;strokeColor=none;fillColor=none;align=center;verticalAlign=middle;whiteSpace=wrap;rounded=0;" vertex="1" parent="1">
          <mxGeometry x="970" y="481.5" width="60" height="30" as="geometry" />
        </mxCell>
      </root>
    </mxGraphModel>
  </diagram>
</mxfile>
